%TF.GenerationSoftware,KiCad,Pcbnew,10.0.5-10.0.5~ubuntu24.04.1*%
%TF.CreationDate,2026-09-29T00:04:24+02:00*%
%TF.ProjectId,MSP430_G2_PDIP20_Devboard_THT,4d535034-3330-45f4-9732-5f5044495032,rev?*%
%TF.SameCoordinates,Original*%
%TF.FileFunction,Paste,Top*%
%TF.FilePolarity,Positive*%
%FSLAX46Y46*%
G04 Gerber Fmt 4.6, Leading zero omitted, Abs format (unit mm)*
G04 Created by KiCad (PCBNEW 10.0.5-10.0.5~ubuntu24.04.1) date 2026-09-29 00:04:24*
%MOMM*%
%LPD*%
G01*
G04 APERTURE LIST*
G04 Aperture macros list*
%AMRoundRect*
0 Rectangle with rounded corners*
0 $1 Rounding radius*
0 $2 $3 $4 $5 $6 $7 $8 $9 X,Y pos of 4 corners*
0 Add a 4 corners polygon primitive as box body*
4,1,4,$2,$3,$4,$5,$6,$7,$8,$9,$2,$3,0*
0 Add four circle primitives for the rounded corners*
1,1,$1+$1,$2,$3*
1,1,$1+$1,$4,$5*
1,1,$1+$1,$6,$7*
1,1,$1+$1,$8,$9*
0 Add four rect primitives between the rounded corners*
20,1,$1+$1,$2,$3,$4,$5,0*
20,1,$1+$1,$4,$5,$6,$7,0*
20,1,$1+$1,$6,$7,$8,$9,0*
20,1,$1+$1,$8,$9,$2,$3,0*%
G04 Aperture macros list end*
%ADD10RoundRect,0.250000X-0.625000X0.400000X-0.625000X-0.400000X0.625000X-0.400000X0.625000X0.400000X0*%
%ADD11RoundRect,0.250000X-0.450000X0.350000X-0.450000X-0.350000X0.450000X-0.350000X0.450000X0.350000X0*%
%ADD12R,1.133000X1.377000*%
%ADD13R,1.350000X1.410000*%
%ADD14RoundRect,0.250000X0.625000X-0.400000X0.625000X0.400000X-0.625000X0.400000X-0.625000X-0.400000X0*%
%ADD15R,1.600000X0.700000*%
%ADD16R,1.600000X0.760000*%
%ADD17R,1.600000X0.800000*%
%ADD18RoundRect,0.250000X-1.500000X-0.650000X1.500000X-0.650000X1.500000X0.650000X-1.500000X0.650000X0*%
%ADD19R,1.000000X0.600000*%
%ADD20RoundRect,0.250000X0.400000X0.625000X-0.400000X0.625000X-0.400000X-0.625000X0.400000X-0.625000X0*%
%ADD21R,0.800000X0.800000*%
%ADD22RoundRect,0.250000X-0.625000X-0.250000X0.625000X-0.250000X0.625000X0.250000X-0.625000X0.250000X0*%
G04 APERTURE END LIST*
D10*
%TO.C,R2*%
X114400000Y-136550000D03*
X114400000Y-139650000D03*
%TD*%
D11*
%TO.C,R4*%
X109800000Y-118600000D03*
X109800000Y-120600000D03*
%TD*%
%TO.C,R5*%
X109800000Y-123400000D03*
X109800000Y-125400000D03*
%TD*%
D12*
%TO.C,R6*%
X103360000Y-122600000D03*
X105360000Y-122600000D03*
%TD*%
D13*
%TO.C,C3*%
X110575000Y-139700000D03*
X110575000Y-141700000D03*
%TD*%
%TO.C,C5*%
X125560000Y-129095000D03*
X125560000Y-127095000D03*
%TD*%
D12*
%TO.C,R7*%
X103360000Y-124740000D03*
X105360000Y-124740000D03*
%TD*%
D13*
%TO.C,C2*%
X122600000Y-117600000D03*
X122600000Y-119600000D03*
%TD*%
D14*
%TO.C,R1*%
X158000000Y-136250000D03*
X158000000Y-133150000D03*
%TD*%
D15*
%TO.C,J1*%
X99240000Y-123500000D03*
D16*
X99240000Y-125520000D03*
D17*
X99240000Y-126750000D03*
D15*
X99240000Y-124500000D03*
D16*
X99240000Y-122480000D03*
D17*
X99240000Y-121250000D03*
%TD*%
D18*
%TO.C,D1*%
X115900000Y-113000000D03*
X120900000Y-113000000D03*
%TD*%
D19*
%TO.C,U2*%
X116700000Y-117600000D03*
X116700000Y-118550000D03*
X116700000Y-119500000D03*
X119300000Y-119500000D03*
X119300000Y-117600000D03*
%TD*%
D20*
%TO.C,R3*%
X113500000Y-130000000D03*
X110400000Y-130000000D03*
%TD*%
D21*
%TO.C,U3*%
X106500000Y-118200000D03*
X106500000Y-120600000D03*
%TD*%
D22*
%TO.C,SW1*%
X101075000Y-138900000D03*
X106525000Y-138900000D03*
X101075000Y-142100000D03*
X106525000Y-142100000D03*
%TD*%
D13*
%TO.C,C1*%
X113600000Y-116500000D03*
X113600000Y-118500000D03*
%TD*%
M02*
