M48
; DRILL file KiCad 10.0.5-10.0.5~ubuntu24.04.1 date 2026-09-29T00:05:21
; FORMAT={-:-/ absolute / metric / decimal}
; #@! TF.CreationDate,2026-09-29T00:05:21+02:00
; #@! TF.GenerationSoftware,Kicad,Pcbnew,10.0.5-10.0.5~ubuntu24.04.1
; #@! TF.FileFunction,MixedPlating,1,2
FMAT,2
METRIC
; #@! TA.AperFunction,Plated,PTH,ViaDrill
T1C0.450
; #@! TA.AperFunction,Plated,PTH,ComponentDrill
T2C0.800
; #@! TA.AperFunction,Plated,PTH,ComponentDrill
T3C0.900
; #@! TA.AperFunction,Plated,PTH,ComponentDrill
T4C1.000
; #@! TA.AperFunction,Plated,PTH,ComponentDrill
T5C1.340
; #@! TA.AperFunction,NonPlated,NPTH,ComponentDrill
T6C2.700
%
G90
G05
T1
X98.4Y-131.0
X101.0Y-143.9
X105.3Y-121.0
X105.4Y-126.4
X106.7Y-143.8
X106.9Y-122.5
X106.9Y-124.7
X107.9Y-120.8
X108.1Y-125.5
X108.6Y-141.9
X109.8Y-126.8
X110.6Y-143.4
X111.5Y-125.5
X112.0Y-118.8
X112.4Y-141.9
X113.7Y-120.1
X120.9Y-119.9
X122.7Y-121.3
X123.4Y-124.0
X123.9Y-126.3
X123.9Y-127.5
X126.5Y-130.7
X127.9Y-133.1
X129.2Y-129.5
X130.8Y-127.9
T2
X117.9Y-129.9
X120.44Y-129.9
X129.78Y-124.28
X129.78Y-131.9
X132.32Y-124.28
X132.32Y-131.9
X134.86Y-124.28
X134.86Y-131.9
X137.4Y-124.28
X137.4Y-131.9
X139.94Y-124.28
X139.94Y-131.9
X142.48Y-124.28
X142.48Y-131.9
X145.02Y-124.28
X145.02Y-131.9
X147.56Y-124.28
X147.56Y-131.9
X148.85Y-136.3
X150.1Y-124.28
X150.1Y-131.9
X151.39Y-136.3
X152.64Y-124.28
X152.64Y-131.9
T3
X104.0Y-132.1
X106.54Y-132.1
X158.0Y-127.46
X158.0Y-130.0
T4
X119.6Y-135.69
X119.6Y-138.23
X119.6Y-140.77
X119.6Y-143.31
X129.74Y-113.5
X129.8Y-142.6
X132.28Y-113.5
X132.34Y-142.6
X134.82Y-113.5
X134.88Y-142.6
X137.36Y-113.5
X137.42Y-142.6
X139.9Y-113.5
X139.96Y-142.6
X142.44Y-113.5
X142.5Y-142.6
X144.98Y-113.5
X145.04Y-142.6
X147.52Y-113.5
X147.58Y-142.6
X150.06Y-113.5
X150.12Y-142.6
X152.6Y-113.5
X152.66Y-142.6
T5
X95.16Y-119.68
X95.16Y-128.32
X98.96Y-119.68
X98.96Y-128.32
T6
X95.9Y-113.6
X95.9Y-142.4
X157.7Y-113.6
X157.7Y-142.4
M30
