%TF.GenerationSoftware,KiCad,Pcbnew,10.0.5-10.0.5~ubuntu24.04.1*%
%TF.CreationDate,2026-09-29T00:04:24+02:00*%
%TF.ProjectId,MSP430_G2_PDIP20_Devboard_THT,4d535034-3330-45f4-9732-5f5044495032,rev?*%
%TF.SameCoordinates,Original*%
%TF.FileFunction,Legend,Bot*%
%TF.FilePolarity,Positive*%
%FSLAX46Y46*%
G04 Gerber Fmt 4.6, Leading zero omitted, Abs format (unit mm)*
G04 Created by KiCad (PCBNEW 10.0.5-10.0.5~ubuntu24.04.1) date 2026-09-29 00:04:24*
%MOMM*%
%LPD*%
G01*
G04 APERTURE LIST*
%ADD10C,0.200000*%
%ADD11C,0.000000*%
G04 APERTURE END LIST*
D10*
X145682707Y-118842742D02*
X145682707Y-117642742D01*
X145682707Y-117642742D02*
X145282707Y-118499885D01*
X145282707Y-118499885D02*
X144882707Y-117642742D01*
X144882707Y-117642742D02*
X144882707Y-118842742D01*
X144368421Y-118785600D02*
X144196993Y-118842742D01*
X144196993Y-118842742D02*
X143911278Y-118842742D01*
X143911278Y-118842742D02*
X143796993Y-118785600D01*
X143796993Y-118785600D02*
X143739850Y-118728457D01*
X143739850Y-118728457D02*
X143682707Y-118614171D01*
X143682707Y-118614171D02*
X143682707Y-118499885D01*
X143682707Y-118499885D02*
X143739850Y-118385600D01*
X143739850Y-118385600D02*
X143796993Y-118328457D01*
X143796993Y-118328457D02*
X143911278Y-118271314D01*
X143911278Y-118271314D02*
X144139850Y-118214171D01*
X144139850Y-118214171D02*
X144254135Y-118157028D01*
X144254135Y-118157028D02*
X144311278Y-118099885D01*
X144311278Y-118099885D02*
X144368421Y-117985600D01*
X144368421Y-117985600D02*
X144368421Y-117871314D01*
X144368421Y-117871314D02*
X144311278Y-117757028D01*
X144311278Y-117757028D02*
X144254135Y-117699885D01*
X144254135Y-117699885D02*
X144139850Y-117642742D01*
X144139850Y-117642742D02*
X143854135Y-117642742D01*
X143854135Y-117642742D02*
X143682707Y-117699885D01*
X143168421Y-118842742D02*
X143168421Y-117642742D01*
X143168421Y-117642742D02*
X142711278Y-117642742D01*
X142711278Y-117642742D02*
X142596993Y-117699885D01*
X142596993Y-117699885D02*
X142539850Y-117757028D01*
X142539850Y-117757028D02*
X142482707Y-117871314D01*
X142482707Y-117871314D02*
X142482707Y-118042742D01*
X142482707Y-118042742D02*
X142539850Y-118157028D01*
X142539850Y-118157028D02*
X142596993Y-118214171D01*
X142596993Y-118214171D02*
X142711278Y-118271314D01*
X142711278Y-118271314D02*
X143168421Y-118271314D01*
X141454136Y-118042742D02*
X141454136Y-118842742D01*
X141739850Y-117585600D02*
X142025564Y-118442742D01*
X142025564Y-118442742D02*
X141282707Y-118442742D01*
X140939850Y-117642742D02*
X140196993Y-117642742D01*
X140196993Y-117642742D02*
X140596993Y-118099885D01*
X140596993Y-118099885D02*
X140425564Y-118099885D01*
X140425564Y-118099885D02*
X140311279Y-118157028D01*
X140311279Y-118157028D02*
X140254136Y-118214171D01*
X140254136Y-118214171D02*
X140196993Y-118328457D01*
X140196993Y-118328457D02*
X140196993Y-118614171D01*
X140196993Y-118614171D02*
X140254136Y-118728457D01*
X140254136Y-118728457D02*
X140311279Y-118785600D01*
X140311279Y-118785600D02*
X140425564Y-118842742D01*
X140425564Y-118842742D02*
X140768421Y-118842742D01*
X140768421Y-118842742D02*
X140882707Y-118785600D01*
X140882707Y-118785600D02*
X140939850Y-118728457D01*
X139454136Y-117642742D02*
X139339850Y-117642742D01*
X139339850Y-117642742D02*
X139225564Y-117699885D01*
X139225564Y-117699885D02*
X139168422Y-117757028D01*
X139168422Y-117757028D02*
X139111279Y-117871314D01*
X139111279Y-117871314D02*
X139054136Y-118099885D01*
X139054136Y-118099885D02*
X139054136Y-118385600D01*
X139054136Y-118385600D02*
X139111279Y-118614171D01*
X139111279Y-118614171D02*
X139168422Y-118728457D01*
X139168422Y-118728457D02*
X139225564Y-118785600D01*
X139225564Y-118785600D02*
X139339850Y-118842742D01*
X139339850Y-118842742D02*
X139454136Y-118842742D01*
X139454136Y-118842742D02*
X139568422Y-118785600D01*
X139568422Y-118785600D02*
X139625564Y-118728457D01*
X139625564Y-118728457D02*
X139682707Y-118614171D01*
X139682707Y-118614171D02*
X139739850Y-118385600D01*
X139739850Y-118385600D02*
X139739850Y-118099885D01*
X139739850Y-118099885D02*
X139682707Y-117871314D01*
X139682707Y-117871314D02*
X139625564Y-117757028D01*
X139625564Y-117757028D02*
X139568422Y-117699885D01*
X139568422Y-117699885D02*
X139454136Y-117642742D01*
X137911279Y-117699885D02*
X138025565Y-117642742D01*
X138025565Y-117642742D02*
X138196993Y-117642742D01*
X138196993Y-117642742D02*
X138368422Y-117699885D01*
X138368422Y-117699885D02*
X138482707Y-117814171D01*
X138482707Y-117814171D02*
X138539850Y-117928457D01*
X138539850Y-117928457D02*
X138596993Y-118157028D01*
X138596993Y-118157028D02*
X138596993Y-118328457D01*
X138596993Y-118328457D02*
X138539850Y-118557028D01*
X138539850Y-118557028D02*
X138482707Y-118671314D01*
X138482707Y-118671314D02*
X138368422Y-118785600D01*
X138368422Y-118785600D02*
X138196993Y-118842742D01*
X138196993Y-118842742D02*
X138082707Y-118842742D01*
X138082707Y-118842742D02*
X137911279Y-118785600D01*
X137911279Y-118785600D02*
X137854136Y-118728457D01*
X137854136Y-118728457D02*
X137854136Y-118328457D01*
X137854136Y-118328457D02*
X138082707Y-118328457D01*
X137396993Y-117757028D02*
X137339850Y-117699885D01*
X137339850Y-117699885D02*
X137225565Y-117642742D01*
X137225565Y-117642742D02*
X136939850Y-117642742D01*
X136939850Y-117642742D02*
X136825565Y-117699885D01*
X136825565Y-117699885D02*
X136768422Y-117757028D01*
X136768422Y-117757028D02*
X136711279Y-117871314D01*
X136711279Y-117871314D02*
X136711279Y-117985600D01*
X136711279Y-117985600D02*
X136768422Y-118157028D01*
X136768422Y-118157028D02*
X137454136Y-118842742D01*
X137454136Y-118842742D02*
X136711279Y-118842742D01*
X135282707Y-118842742D02*
X135282707Y-117642742D01*
X135282707Y-117642742D02*
X134825564Y-117642742D01*
X134825564Y-117642742D02*
X134711279Y-117699885D01*
X134711279Y-117699885D02*
X134654136Y-117757028D01*
X134654136Y-117757028D02*
X134596993Y-117871314D01*
X134596993Y-117871314D02*
X134596993Y-118042742D01*
X134596993Y-118042742D02*
X134654136Y-118157028D01*
X134654136Y-118157028D02*
X134711279Y-118214171D01*
X134711279Y-118214171D02*
X134825564Y-118271314D01*
X134825564Y-118271314D02*
X135282707Y-118271314D01*
X134082707Y-118842742D02*
X134082707Y-117642742D01*
X134082707Y-117642742D02*
X133796993Y-117642742D01*
X133796993Y-117642742D02*
X133625564Y-117699885D01*
X133625564Y-117699885D02*
X133511279Y-117814171D01*
X133511279Y-117814171D02*
X133454136Y-117928457D01*
X133454136Y-117928457D02*
X133396993Y-118157028D01*
X133396993Y-118157028D02*
X133396993Y-118328457D01*
X133396993Y-118328457D02*
X133454136Y-118557028D01*
X133454136Y-118557028D02*
X133511279Y-118671314D01*
X133511279Y-118671314D02*
X133625564Y-118785600D01*
X133625564Y-118785600D02*
X133796993Y-118842742D01*
X133796993Y-118842742D02*
X134082707Y-118842742D01*
X132882707Y-118842742D02*
X132882707Y-117642742D01*
X132311278Y-118842742D02*
X132311278Y-117642742D01*
X132311278Y-117642742D02*
X131854135Y-117642742D01*
X131854135Y-117642742D02*
X131739850Y-117699885D01*
X131739850Y-117699885D02*
X131682707Y-117757028D01*
X131682707Y-117757028D02*
X131625564Y-117871314D01*
X131625564Y-117871314D02*
X131625564Y-118042742D01*
X131625564Y-118042742D02*
X131682707Y-118157028D01*
X131682707Y-118157028D02*
X131739850Y-118214171D01*
X131739850Y-118214171D02*
X131854135Y-118271314D01*
X131854135Y-118271314D02*
X132311278Y-118271314D01*
X131168421Y-117757028D02*
X131111278Y-117699885D01*
X131111278Y-117699885D02*
X130996993Y-117642742D01*
X130996993Y-117642742D02*
X130711278Y-117642742D01*
X130711278Y-117642742D02*
X130596993Y-117699885D01*
X130596993Y-117699885D02*
X130539850Y-117757028D01*
X130539850Y-117757028D02*
X130482707Y-117871314D01*
X130482707Y-117871314D02*
X130482707Y-117985600D01*
X130482707Y-117985600D02*
X130539850Y-118157028D01*
X130539850Y-118157028D02*
X131225564Y-118842742D01*
X131225564Y-118842742D02*
X130482707Y-118842742D01*
X129739850Y-117642742D02*
X129625564Y-117642742D01*
X129625564Y-117642742D02*
X129511278Y-117699885D01*
X129511278Y-117699885D02*
X129454136Y-117757028D01*
X129454136Y-117757028D02*
X129396993Y-117871314D01*
X129396993Y-117871314D02*
X129339850Y-118099885D01*
X129339850Y-118099885D02*
X129339850Y-118385600D01*
X129339850Y-118385600D02*
X129396993Y-118614171D01*
X129396993Y-118614171D02*
X129454136Y-118728457D01*
X129454136Y-118728457D02*
X129511278Y-118785600D01*
X129511278Y-118785600D02*
X129625564Y-118842742D01*
X129625564Y-118842742D02*
X129739850Y-118842742D01*
X129739850Y-118842742D02*
X129854136Y-118785600D01*
X129854136Y-118785600D02*
X129911278Y-118728457D01*
X129911278Y-118728457D02*
X129968421Y-118614171D01*
X129968421Y-118614171D02*
X130025564Y-118385600D01*
X130025564Y-118385600D02*
X130025564Y-118099885D01*
X130025564Y-118099885D02*
X129968421Y-117871314D01*
X129968421Y-117871314D02*
X129911278Y-117757028D01*
X129911278Y-117757028D02*
X129854136Y-117699885D01*
X129854136Y-117699885D02*
X129739850Y-117642742D01*
X127911278Y-118842742D02*
X127911278Y-117642742D01*
X127911278Y-117642742D02*
X127625564Y-117642742D01*
X127625564Y-117642742D02*
X127454135Y-117699885D01*
X127454135Y-117699885D02*
X127339850Y-117814171D01*
X127339850Y-117814171D02*
X127282707Y-117928457D01*
X127282707Y-117928457D02*
X127225564Y-118157028D01*
X127225564Y-118157028D02*
X127225564Y-118328457D01*
X127225564Y-118328457D02*
X127282707Y-118557028D01*
X127282707Y-118557028D02*
X127339850Y-118671314D01*
X127339850Y-118671314D02*
X127454135Y-118785600D01*
X127454135Y-118785600D02*
X127625564Y-118842742D01*
X127625564Y-118842742D02*
X127911278Y-118842742D01*
X126254135Y-118785600D02*
X126368421Y-118842742D01*
X126368421Y-118842742D02*
X126596993Y-118842742D01*
X126596993Y-118842742D02*
X126711278Y-118785600D01*
X126711278Y-118785600D02*
X126768421Y-118671314D01*
X126768421Y-118671314D02*
X126768421Y-118214171D01*
X126768421Y-118214171D02*
X126711278Y-118099885D01*
X126711278Y-118099885D02*
X126596993Y-118042742D01*
X126596993Y-118042742D02*
X126368421Y-118042742D01*
X126368421Y-118042742D02*
X126254135Y-118099885D01*
X126254135Y-118099885D02*
X126196993Y-118214171D01*
X126196993Y-118214171D02*
X126196993Y-118328457D01*
X126196993Y-118328457D02*
X126768421Y-118442742D01*
X125796993Y-118042742D02*
X125511279Y-118842742D01*
X125511279Y-118842742D02*
X125225564Y-118042742D01*
X124768421Y-118842742D02*
X124768421Y-117642742D01*
X124768421Y-118099885D02*
X124654136Y-118042742D01*
X124654136Y-118042742D02*
X124425564Y-118042742D01*
X124425564Y-118042742D02*
X124311278Y-118099885D01*
X124311278Y-118099885D02*
X124254136Y-118157028D01*
X124254136Y-118157028D02*
X124196993Y-118271314D01*
X124196993Y-118271314D02*
X124196993Y-118614171D01*
X124196993Y-118614171D02*
X124254136Y-118728457D01*
X124254136Y-118728457D02*
X124311278Y-118785600D01*
X124311278Y-118785600D02*
X124425564Y-118842742D01*
X124425564Y-118842742D02*
X124654136Y-118842742D01*
X124654136Y-118842742D02*
X124768421Y-118785600D01*
X123511279Y-118842742D02*
X123625564Y-118785600D01*
X123625564Y-118785600D02*
X123682707Y-118728457D01*
X123682707Y-118728457D02*
X123739850Y-118614171D01*
X123739850Y-118614171D02*
X123739850Y-118271314D01*
X123739850Y-118271314D02*
X123682707Y-118157028D01*
X123682707Y-118157028D02*
X123625564Y-118099885D01*
X123625564Y-118099885D02*
X123511279Y-118042742D01*
X123511279Y-118042742D02*
X123339850Y-118042742D01*
X123339850Y-118042742D02*
X123225564Y-118099885D01*
X123225564Y-118099885D02*
X123168422Y-118157028D01*
X123168422Y-118157028D02*
X123111279Y-118271314D01*
X123111279Y-118271314D02*
X123111279Y-118614171D01*
X123111279Y-118614171D02*
X123168422Y-118728457D01*
X123168422Y-118728457D02*
X123225564Y-118785600D01*
X123225564Y-118785600D02*
X123339850Y-118842742D01*
X123339850Y-118842742D02*
X123511279Y-118842742D01*
X122082708Y-118842742D02*
X122082708Y-118214171D01*
X122082708Y-118214171D02*
X122139850Y-118099885D01*
X122139850Y-118099885D02*
X122254136Y-118042742D01*
X122254136Y-118042742D02*
X122482708Y-118042742D01*
X122482708Y-118042742D02*
X122596993Y-118099885D01*
X122082708Y-118785600D02*
X122196993Y-118842742D01*
X122196993Y-118842742D02*
X122482708Y-118842742D01*
X122482708Y-118842742D02*
X122596993Y-118785600D01*
X122596993Y-118785600D02*
X122654136Y-118671314D01*
X122654136Y-118671314D02*
X122654136Y-118557028D01*
X122654136Y-118557028D02*
X122596993Y-118442742D01*
X122596993Y-118442742D02*
X122482708Y-118385600D01*
X122482708Y-118385600D02*
X122196993Y-118385600D01*
X122196993Y-118385600D02*
X122082708Y-118328457D01*
X121511279Y-118842742D02*
X121511279Y-118042742D01*
X121511279Y-118271314D02*
X121454136Y-118157028D01*
X121454136Y-118157028D02*
X121396994Y-118099885D01*
X121396994Y-118099885D02*
X121282708Y-118042742D01*
X121282708Y-118042742D02*
X121168422Y-118042742D01*
X120254137Y-118842742D02*
X120254137Y-117642742D01*
X120254137Y-118785600D02*
X120368422Y-118842742D01*
X120368422Y-118842742D02*
X120596994Y-118842742D01*
X120596994Y-118842742D02*
X120711279Y-118785600D01*
X120711279Y-118785600D02*
X120768422Y-118728457D01*
X120768422Y-118728457D02*
X120825565Y-118614171D01*
X120825565Y-118614171D02*
X120825565Y-118271314D01*
X120825565Y-118271314D02*
X120768422Y-118157028D01*
X120768422Y-118157028D02*
X120711279Y-118099885D01*
X120711279Y-118099885D02*
X120596994Y-118042742D01*
X120596994Y-118042742D02*
X120368422Y-118042742D01*
X120368422Y-118042742D02*
X120254137Y-118099885D01*
X118939851Y-117642742D02*
X118539851Y-118842742D01*
X118539851Y-118842742D02*
X118139851Y-117642742D01*
X117111280Y-118842742D02*
X117796994Y-118842742D01*
X117454137Y-118842742D02*
X117454137Y-117642742D01*
X117454137Y-117642742D02*
X117568423Y-117814171D01*
X117568423Y-117814171D02*
X117682708Y-117928457D01*
X117682708Y-117928457D02*
X117796994Y-117985600D01*
X115854137Y-117642742D02*
X115168423Y-117642742D01*
X115511280Y-118842742D02*
X115511280Y-117642742D01*
X114768422Y-118842742D02*
X114768422Y-117642742D01*
X114768422Y-118214171D02*
X114082708Y-118214171D01*
X114082708Y-118842742D02*
X114082708Y-117642742D01*
X113682708Y-117642742D02*
X112996994Y-117642742D01*
X113339851Y-118842742D02*
X113339851Y-117642742D01*
D11*
G36*
X105849901Y-114553086D02*
G01*
X105860674Y-114553254D01*
X105871441Y-114553584D01*
X105882199Y-114554090D01*
X105892948Y-114554761D01*
X105903685Y-114555604D01*
X105914411Y-114556621D01*
X105925115Y-114557803D01*
X105935807Y-114559157D01*
X105970920Y-114564434D01*
X106003921Y-114570997D01*
X106034849Y-114578952D01*
X106063745Y-114588383D01*
X106090639Y-114599384D01*
X106103350Y-114605508D01*
X106115577Y-114612062D01*
X106127325Y-114619062D01*
X106138596Y-114626508D01*
X106149400Y-114634423D01*
X106159740Y-114642816D01*
X106169616Y-114651695D01*
X106179041Y-114661080D01*
X106188013Y-114670976D01*
X106196533Y-114681400D01*
X106204616Y-114692361D01*
X106212265Y-114703872D01*
X106219485Y-114715943D01*
X106226270Y-114728588D01*
X106232636Y-114741817D01*
X106238588Y-114755642D01*
X106244126Y-114770079D01*
X106249256Y-114785138D01*
X106258315Y-114817166D01*
X106265802Y-114851822D01*
X106279624Y-114927317D01*
X106291848Y-115003058D01*
X106302481Y-115079027D01*
X106311513Y-115155194D01*
X106318946Y-115231529D01*
X106324774Y-115308016D01*
X106328994Y-115384623D01*
X106331606Y-115461325D01*
X106331881Y-115560997D01*
X106329988Y-115660695D01*
X106326445Y-115760419D01*
X106321784Y-115860164D01*
X106311190Y-116059699D01*
X106302407Y-116259245D01*
X106301815Y-116271070D01*
X106300834Y-116282554D01*
X106299459Y-116293693D01*
X106297703Y-116304495D01*
X106295568Y-116314964D01*
X106293061Y-116325100D01*
X106290184Y-116334905D01*
X106286941Y-116344386D01*
X106283336Y-116353546D01*
X106279379Y-116362381D01*
X106275076Y-116370906D01*
X106270420Y-116379118D01*
X106265432Y-116387022D01*
X106260104Y-116394614D01*
X106254446Y-116401909D01*
X106248465Y-116408904D01*
X106242161Y-116415603D01*
X106235544Y-116422005D01*
X106228613Y-116428118D01*
X106221379Y-116433946D01*
X106213843Y-116439490D01*
X106206009Y-116444758D01*
X106189478Y-116454457D01*
X106171820Y-116463074D01*
X106153073Y-116470636D01*
X106133282Y-116477172D01*
X106112480Y-116482700D01*
X106072119Y-116492184D01*
X106031595Y-116500896D01*
X105990925Y-116508840D01*
X105950113Y-116516013D01*
X105909175Y-116522416D01*
X105868119Y-116528040D01*
X105826956Y-116532890D01*
X105785701Y-116536964D01*
X105635251Y-116548293D01*
X105484729Y-116557746D01*
X105334175Y-116564607D01*
X105183611Y-116568164D01*
X105033087Y-116567691D01*
X104882632Y-116562483D01*
X104732287Y-116551812D01*
X104657165Y-116544204D01*
X104582080Y-116534964D01*
X104536892Y-116527867D01*
X104495905Y-116519200D01*
X104476935Y-116514227D01*
X104458950Y-116508813D01*
X104441931Y-116502937D01*
X104425858Y-116496580D01*
X104410713Y-116489731D01*
X104396472Y-116482363D01*
X104383112Y-116474466D01*
X104370619Y-116466024D01*
X104358963Y-116457011D01*
X104348132Y-116447422D01*
X104338103Y-116437234D01*
X104328850Y-116426430D01*
X104320361Y-116414989D01*
X104312605Y-116402901D01*
X104305574Y-116390147D01*
X104299234Y-116376705D01*
X104293571Y-116362564D01*
X104288567Y-116347703D01*
X104284195Y-116332106D01*
X104280438Y-116315759D01*
X104277275Y-116298644D01*
X104274684Y-116280737D01*
X104271136Y-116242498D01*
X104269632Y-116200906D01*
X104270001Y-116155828D01*
X104272440Y-116005278D01*
X104272560Y-115854663D01*
X104271088Y-115553373D01*
X104240825Y-115553278D01*
X104240107Y-115233293D01*
X104240189Y-115073316D01*
X104241259Y-114936815D01*
X104517276Y-114936815D01*
X104517880Y-114957368D01*
X104518964Y-114980546D01*
X104553945Y-115605612D01*
X104590909Y-116229124D01*
X104629338Y-116237190D01*
X104682193Y-116243810D01*
X104747851Y-116249014D01*
X104824676Y-116252836D01*
X105005326Y-116256414D01*
X105211100Y-116254764D01*
X105428973Y-116248095D01*
X105645908Y-116236618D01*
X105848866Y-116220548D01*
X105941034Y-116210856D01*
X106024815Y-116200098D01*
X106024374Y-115859213D01*
X106025165Y-115521586D01*
X106027220Y-115350600D01*
X106027567Y-115265082D01*
X106026333Y-115179569D01*
X106022667Y-115094081D01*
X106019651Y-115051350D01*
X106015713Y-115008637D01*
X106010741Y-114965936D01*
X106004629Y-114923258D01*
X105997270Y-114880597D01*
X105988562Y-114837959D01*
X105903163Y-114831530D01*
X105820661Y-114824802D01*
X105780196Y-114821903D01*
X105740097Y-114819606D01*
X105700246Y-114818140D01*
X105660529Y-114817738D01*
X105156711Y-114822036D01*
X104904847Y-114826452D01*
X104653063Y-114833279D01*
X104629342Y-114834219D01*
X104608451Y-114835505D01*
X104590220Y-114837287D01*
X104574480Y-114839740D01*
X104567496Y-114841266D01*
X104561068Y-114843026D01*
X104555181Y-114845024D01*
X104549811Y-114847298D01*
X104544944Y-114849859D01*
X104540544Y-114852729D01*
X104536605Y-114855931D01*
X104533100Y-114859481D01*
X104530006Y-114863400D01*
X104527308Y-114867711D01*
X104524979Y-114872435D01*
X104523001Y-114877589D01*
X104521355Y-114883197D01*
X104520010Y-114889274D01*
X104518960Y-114895848D01*
X104518172Y-114902931D01*
X104517317Y-114918724D01*
X104517276Y-114936815D01*
X104241259Y-114936815D01*
X104241439Y-114913382D01*
X104242605Y-114878066D01*
X104245241Y-114845366D01*
X104249465Y-114815169D01*
X104252206Y-114800971D01*
X104255384Y-114787361D01*
X104259020Y-114774313D01*
X104263116Y-114761822D01*
X104267694Y-114749865D01*
X104272769Y-114738439D01*
X104278350Y-114727517D01*
X104284455Y-114717093D01*
X104291095Y-114707148D01*
X104298282Y-114697670D01*
X104306033Y-114688643D01*
X104314367Y-114680052D01*
X104323290Y-114671888D01*
X104332820Y-114664125D01*
X104342971Y-114656759D01*
X104353751Y-114649774D01*
X104365179Y-114643147D01*
X104377272Y-114636874D01*
X104390043Y-114630940D01*
X104403498Y-114625320D01*
X104432536Y-114614990D01*
X104464502Y-114605764D01*
X104499501Y-114597533D01*
X104544696Y-114588399D01*
X104590077Y-114580348D01*
X104635622Y-114573386D01*
X104681313Y-114567510D01*
X104727132Y-114562724D01*
X104773058Y-114559034D01*
X104819074Y-114556438D01*
X104865156Y-114554942D01*
X105111301Y-114552175D01*
X105357489Y-114551727D01*
X105849901Y-114553086D01*
G37*
G36*
X106242863Y-112904924D02*
G01*
X106246180Y-112905300D01*
X106249513Y-112905883D01*
X106252872Y-112906663D01*
X106256242Y-112907622D01*
X106259627Y-112908757D01*
X106263024Y-112910063D01*
X106269851Y-112913132D01*
X106276696Y-112916756D01*
X106283553Y-112920859D01*
X106290402Y-112925370D01*
X106297230Y-112930208D01*
X106304015Y-112935302D01*
X106317392Y-112945952D01*
X106342954Y-112967025D01*
X106345377Y-112970034D01*
X106347665Y-112973137D01*
X106349811Y-112976326D01*
X106351817Y-112979598D01*
X106353676Y-112982943D01*
X106355389Y-112986366D01*
X106356954Y-112989852D01*
X106358370Y-112993398D01*
X106359634Y-112997007D01*
X106360739Y-113000665D01*
X106361691Y-113004367D01*
X106362484Y-113008118D01*
X106363118Y-113011905D01*
X106363588Y-113015721D01*
X106363895Y-113019563D01*
X106364034Y-113023430D01*
X106392957Y-113312661D01*
X106422395Y-113615846D01*
X106499758Y-113612289D01*
X106573954Y-113613569D01*
X106644796Y-113619818D01*
X106712100Y-113631163D01*
X106744370Y-113638793D01*
X106775683Y-113647743D01*
X106806021Y-113658042D01*
X106835358Y-113669695D01*
X106863667Y-113682727D01*
X106890939Y-113697151D01*
X106917135Y-113712981D01*
X106942244Y-113730235D01*
X106966236Y-113748933D01*
X106989088Y-113769090D01*
X107010780Y-113790724D01*
X107031286Y-113813848D01*
X107050586Y-113838480D01*
X107068652Y-113864637D01*
X107085470Y-113892337D01*
X107101005Y-113921598D01*
X107115240Y-113952434D01*
X107128153Y-113984860D01*
X107139724Y-114018892D01*
X107149920Y-114054552D01*
X107158729Y-114091857D01*
X107166118Y-114130820D01*
X107172069Y-114171450D01*
X107176561Y-114213778D01*
X107494026Y-114213500D01*
X107802021Y-114214424D01*
X107845488Y-114214097D01*
X107867518Y-114214056D01*
X107889411Y-114214658D01*
X107900220Y-114215323D01*
X107910891Y-114216303D01*
X107921396Y-114217654D01*
X107931704Y-114219419D01*
X107941775Y-114221653D01*
X107951582Y-114224408D01*
X107961085Y-114227736D01*
X107970261Y-114231687D01*
X107978636Y-114236027D01*
X107987131Y-114241091D01*
X107995658Y-114246798D01*
X108004129Y-114253097D01*
X108012459Y-114259910D01*
X108020560Y-114267175D01*
X108028342Y-114274819D01*
X108035723Y-114282784D01*
X108042609Y-114290995D01*
X108048919Y-114299389D01*
X108054563Y-114307897D01*
X108059452Y-114316452D01*
X108063502Y-114324987D01*
X108065185Y-114329228D01*
X108066624Y-114333434D01*
X108067808Y-114337607D01*
X108068732Y-114341731D01*
X108069374Y-114345799D01*
X108069732Y-114349802D01*
X108069811Y-114353951D01*
X108069627Y-114358189D01*
X108069182Y-114362504D01*
X108068487Y-114366886D01*
X108067550Y-114371335D01*
X108066388Y-114375834D01*
X108063401Y-114384958D01*
X108059605Y-114394181D01*
X108055070Y-114403432D01*
X108049878Y-114412646D01*
X108044099Y-114421744D01*
X108037809Y-114430654D01*
X108031083Y-114439307D01*
X108023994Y-114447634D01*
X108016619Y-114455554D01*
X108009029Y-114463001D01*
X108001306Y-114469907D01*
X107993520Y-114476191D01*
X107985743Y-114481783D01*
X107978019Y-114486522D01*
X107969839Y-114490678D01*
X107961248Y-114494300D01*
X107952287Y-114497422D01*
X107943001Y-114500091D01*
X107933443Y-114502346D01*
X107923648Y-114504226D01*
X107913657Y-114505779D01*
X107903526Y-114507039D01*
X107893285Y-114508056D01*
X107872678Y-114509506D01*
X107832160Y-114511256D01*
X107684879Y-114516891D01*
X107537356Y-114521478D01*
X107241008Y-114529682D01*
X107241008Y-115379443D01*
X107497350Y-115397905D01*
X107743063Y-115416610D01*
X107772341Y-115418711D01*
X107801821Y-115420502D01*
X107831335Y-115422380D01*
X107860735Y-115424738D01*
X107889855Y-115427970D01*
X107904265Y-115430043D01*
X107918543Y-115432482D01*
X107932678Y-115435338D01*
X107946637Y-115438655D01*
X107960411Y-115442493D01*
X107973982Y-115446898D01*
X107982593Y-115450327D01*
X107991374Y-115454607D01*
X108000219Y-115459669D01*
X108009051Y-115465428D01*
X108017768Y-115471806D01*
X108026280Y-115478731D01*
X108034494Y-115486119D01*
X108042316Y-115493890D01*
X108049649Y-115501975D01*
X108056406Y-115510294D01*
X108062495Y-115518768D01*
X108067817Y-115527313D01*
X108072285Y-115535858D01*
X108074170Y-115540104D01*
X108075804Y-115544321D01*
X108077178Y-115548499D01*
X108078276Y-115552626D01*
X108079091Y-115556697D01*
X108079617Y-115560701D01*
X108079820Y-115564596D01*
X108079732Y-115568594D01*
X108079364Y-115572688D01*
X108078720Y-115576869D01*
X108077812Y-115581125D01*
X108076659Y-115585448D01*
X108073638Y-115594241D01*
X108069740Y-115603176D01*
X108065060Y-115612175D01*
X108059670Y-115621168D01*
X108053672Y-115630063D01*
X108047142Y-115638788D01*
X108040168Y-115647264D01*
X108032836Y-115655414D01*
X108025231Y-115663159D01*
X108017446Y-115670415D01*
X108009552Y-115677112D01*
X108001655Y-115683171D01*
X107993821Y-115688506D01*
X107985917Y-115693073D01*
X107977580Y-115697025D01*
X107968855Y-115700411D01*
X107959785Y-115703286D01*
X107950408Y-115705699D01*
X107940776Y-115707703D01*
X107930919Y-115709344D01*
X107920882Y-115710678D01*
X107910716Y-115711753D01*
X107900442Y-115712620D01*
X107879785Y-115713938D01*
X107859244Y-115715031D01*
X107839148Y-115716309D01*
X107543973Y-115737371D01*
X107242289Y-115757694D01*
X107242289Y-116436137D01*
X107808823Y-116499326D01*
X107827124Y-116501604D01*
X107845382Y-116504186D01*
X107881841Y-116509935D01*
X107918266Y-116515931D01*
X107954741Y-116521523D01*
X107967307Y-116523627D01*
X107979444Y-116526286D01*
X107991104Y-116529541D01*
X108002240Y-116533400D01*
X108012812Y-116537901D01*
X108022777Y-116543055D01*
X108032083Y-116548892D01*
X108036477Y-116552074D01*
X108040687Y-116555438D01*
X108044712Y-116558984D01*
X108048549Y-116562717D01*
X108052190Y-116566634D01*
X108055624Y-116570746D01*
X108058851Y-116575048D01*
X108061864Y-116579559D01*
X108064654Y-116584259D01*
X108067223Y-116589165D01*
X108069560Y-116594281D01*
X108071659Y-116599604D01*
X108073519Y-116605141D01*
X108075124Y-116610895D01*
X108076485Y-116616862D01*
X108077582Y-116623054D01*
X108078413Y-116629470D01*
X108078979Y-116636118D01*
X108079271Y-116643697D01*
X108079181Y-116650991D01*
X108078713Y-116658007D01*
X108077892Y-116664750D01*
X108076720Y-116671222D01*
X108075207Y-116677432D01*
X108073366Y-116683382D01*
X108071209Y-116689080D01*
X108068752Y-116694533D01*
X108066002Y-116699742D01*
X108062967Y-116704712D01*
X108059667Y-116709456D01*
X108056108Y-116713965D01*
X108052298Y-116718260D01*
X108048255Y-116722337D01*
X108043992Y-116726203D01*
X108039513Y-116729865D01*
X108034835Y-116733331D01*
X108029965Y-116736594D01*
X108024919Y-116739677D01*
X108014338Y-116745290D01*
X108003187Y-116750212D01*
X107991550Y-116754485D01*
X107979524Y-116758147D01*
X107967197Y-116761249D01*
X107954666Y-116763829D01*
X107924265Y-116768574D01*
X107893810Y-116772917D01*
X107863300Y-116776856D01*
X107832740Y-116780396D01*
X107802135Y-116783528D01*
X107771491Y-116786264D01*
X107740811Y-116788587D01*
X107710106Y-116790508D01*
X107476150Y-116807288D01*
X107232440Y-116823728D01*
X107225230Y-116872468D01*
X107220641Y-116902774D01*
X107215564Y-116934735D01*
X107208433Y-116972889D01*
X107199501Y-117009770D01*
X107188757Y-117045341D01*
X107176188Y-117079561D01*
X107161777Y-117112380D01*
X107145506Y-117143769D01*
X107127368Y-117173682D01*
X107107337Y-117202076D01*
X107085402Y-117228913D01*
X107061553Y-117254150D01*
X107035774Y-117277745D01*
X107008040Y-117299656D01*
X106978348Y-117319846D01*
X106946669Y-117338276D01*
X106913001Y-117354896D01*
X106877320Y-117369674D01*
X106824169Y-117388443D01*
X106770250Y-117405248D01*
X106715726Y-117420486D01*
X106660768Y-117434557D01*
X106439792Y-117487068D01*
X106422272Y-117490378D01*
X106404715Y-117493468D01*
X106387119Y-117496325D01*
X106369494Y-117498956D01*
X106351834Y-117501359D01*
X106334144Y-117503539D01*
X106316428Y-117505489D01*
X106298685Y-117507207D01*
X106298685Y-117974915D01*
X106298923Y-118002598D01*
X106299562Y-118030350D01*
X106300834Y-118085862D01*
X106300868Y-118113533D01*
X106300108Y-118141089D01*
X106299334Y-118154805D01*
X106298249Y-118168473D01*
X106296818Y-118182093D01*
X106295004Y-118195652D01*
X106293099Y-118206932D01*
X106290794Y-118217917D01*
X106288105Y-118228602D01*
X106285036Y-118238982D01*
X106281600Y-118249051D01*
X106277806Y-118258798D01*
X106273667Y-118268227D01*
X106269193Y-118277317D01*
X106264388Y-118286078D01*
X106259275Y-118294494D01*
X106253849Y-118302562D01*
X106248127Y-118310274D01*
X106242125Y-118317627D01*
X106235844Y-118324615D01*
X106229298Y-118331233D01*
X106222504Y-118337470D01*
X106215464Y-118343323D01*
X106208190Y-118348786D01*
X106200694Y-118353853D01*
X106192984Y-118358516D01*
X106185069Y-118362773D01*
X106176961Y-118366619D01*
X106168676Y-118370042D01*
X106160218Y-118373038D01*
X106151599Y-118375604D01*
X106142829Y-118377728D01*
X106133917Y-118379413D01*
X106124877Y-118380642D01*
X106115714Y-118381417D01*
X106106443Y-118381732D01*
X106097073Y-118381580D01*
X106087614Y-118380955D01*
X106078414Y-118379868D01*
X106069324Y-118378314D01*
X106060364Y-118376299D01*
X106051536Y-118373835D01*
X106042856Y-118370928D01*
X106034344Y-118367593D01*
X106026002Y-118363834D01*
X106017850Y-118359665D01*
X106009899Y-118355099D01*
X106002165Y-118350137D01*
X105994653Y-118344798D01*
X105987388Y-118339086D01*
X105980374Y-118333016D01*
X105973623Y-118326595D01*
X105967151Y-118319830D01*
X105960980Y-118312738D01*
X105955109Y-118305327D01*
X105949555Y-118297595D01*
X105944333Y-118289572D01*
X105939454Y-118281257D01*
X105934931Y-118272656D01*
X105930780Y-118263791D01*
X105927016Y-118254659D01*
X105923645Y-118245278D01*
X105920683Y-118235656D01*
X105918142Y-118225803D01*
X105916039Y-118215731D01*
X105914380Y-118205445D01*
X105913187Y-118194961D01*
X105912466Y-118184282D01*
X105912231Y-118173422D01*
X105912494Y-118162396D01*
X105915573Y-118111811D01*
X105919976Y-118061291D01*
X105925396Y-118010825D01*
X105931545Y-117960393D01*
X105944846Y-117859570D01*
X105957509Y-117758722D01*
X105970651Y-117641008D01*
X105984641Y-117512583D01*
X105240639Y-117512583D01*
X105253321Y-117762545D01*
X105259277Y-117889545D01*
X105264097Y-118017152D01*
X105265539Y-118043067D01*
X105266130Y-118068998D01*
X105265877Y-118094923D01*
X105264779Y-118120821D01*
X105262836Y-118146665D01*
X105260052Y-118172449D01*
X105256428Y-118198142D01*
X105251959Y-118223727D01*
X105250537Y-118231033D01*
X105248784Y-118238242D01*
X105246709Y-118245342D01*
X105244315Y-118252321D01*
X105241612Y-118259169D01*
X105238597Y-118265877D01*
X105235291Y-118272435D01*
X105231689Y-118278835D01*
X105227795Y-118285057D01*
X105223621Y-118291104D01*
X105219176Y-118296960D01*
X105214455Y-118302612D01*
X105209472Y-118308049D01*
X105204229Y-118313271D01*
X105198738Y-118318260D01*
X105192999Y-118323007D01*
X105187047Y-118327490D01*
X105180914Y-118331677D01*
X105174618Y-118335565D01*
X105168167Y-118339159D01*
X105161570Y-118342436D01*
X105154842Y-118345407D01*
X105147996Y-118348067D01*
X105141036Y-118350412D01*
X105133977Y-118352434D01*
X105126831Y-118354136D01*
X105119606Y-118355509D01*
X105112316Y-118356554D01*
X105104973Y-118357261D01*
X105097582Y-118357634D01*
X105090160Y-118357666D01*
X105082716Y-118357353D01*
X105075642Y-118357371D01*
X105068606Y-118357064D01*
X105061616Y-118356433D01*
X105054675Y-118355484D01*
X105047800Y-118354220D01*
X105041001Y-118352641D01*
X105034290Y-118350759D01*
X105027674Y-118348567D01*
X105021165Y-118346080D01*
X105014775Y-118343294D01*
X105008513Y-118340218D01*
X105002391Y-118336850D01*
X104996416Y-118333198D01*
X104990598Y-118329262D01*
X104984951Y-118325051D01*
X104979490Y-118320561D01*
X104974238Y-118315829D01*
X104969232Y-118310874D01*
X104964469Y-118305708D01*
X104959972Y-118300342D01*
X104955732Y-118294787D01*
X104951755Y-118289048D01*
X104948049Y-118283145D01*
X104944618Y-118277073D01*
X104941471Y-118270856D01*
X104938607Y-118264500D01*
X104936038Y-118258011D01*
X104933766Y-118251400D01*
X104931796Y-118244681D01*
X104930131Y-118237856D01*
X104928783Y-118230945D01*
X104927748Y-118223950D01*
X104923824Y-118193678D01*
X104920788Y-118163319D01*
X104918639Y-118132908D01*
X104917378Y-118102443D01*
X104916999Y-118071963D01*
X104917517Y-118041476D01*
X104918921Y-118010997D01*
X104921209Y-117980551D01*
X104930466Y-117861018D01*
X104941633Y-117740071D01*
X104966402Y-117487555D01*
X104230314Y-117487555D01*
X104227331Y-117535528D01*
X104226586Y-117549225D01*
X104226001Y-117563329D01*
X104225647Y-117577704D01*
X104225605Y-117592217D01*
X104230088Y-117850969D01*
X104231861Y-117980337D01*
X104231648Y-118109673D01*
X104230463Y-118137065D01*
X104227670Y-118163118D01*
X104223326Y-118187768D01*
X104217510Y-118210950D01*
X104210281Y-118232595D01*
X104201708Y-118252642D01*
X104191858Y-118271021D01*
X104180803Y-118287674D01*
X104174840Y-118295332D01*
X104168602Y-118302529D01*
X104162091Y-118309265D01*
X104155327Y-118315533D01*
X104148307Y-118321310D01*
X104141042Y-118326601D01*
X104133544Y-118331399D01*
X104125817Y-118335690D01*
X104117873Y-118339470D01*
X104109721Y-118342722D01*
X104101363Y-118345453D01*
X104092814Y-118347637D01*
X104084076Y-118349281D01*
X104075168Y-118350368D01*
X104066089Y-118350892D01*
X104056850Y-118350851D01*
X104047537Y-118350247D01*
X104038438Y-118349105D01*
X104029559Y-118347428D01*
X104020906Y-118345224D01*
X104012492Y-118342497D01*
X104004322Y-118339264D01*
X103996403Y-118335521D01*
X103988741Y-118331281D01*
X103981350Y-118326547D01*
X103974230Y-118321330D01*
X103967391Y-118315632D01*
X103960844Y-118309466D01*
X103954592Y-118302835D01*
X103948648Y-118295750D01*
X103943012Y-118288212D01*
X103937700Y-118280233D01*
X103932708Y-118271815D01*
X103928054Y-118262969D01*
X103923745Y-118253699D01*
X103919783Y-118244022D01*
X103916181Y-118233925D01*
X103912942Y-118223435D01*
X103910074Y-118212545D01*
X103907589Y-118201271D01*
X103905493Y-118189613D01*
X103903789Y-118177586D01*
X103902491Y-118165188D01*
X103901601Y-118152430D01*
X103901131Y-118139322D01*
X103901088Y-118125866D01*
X103901475Y-118112075D01*
X103902305Y-118097948D01*
X103907471Y-118035099D01*
X103913582Y-117972328D01*
X103927769Y-117846949D01*
X103958044Y-117596312D01*
X103961758Y-117560285D01*
X103965068Y-117523733D01*
X103971660Y-117447231D01*
X103886219Y-117429729D01*
X103846612Y-117421315D01*
X103827259Y-117416902D01*
X103808087Y-117412251D01*
X103773831Y-117402696D01*
X103740997Y-117391668D01*
X103709623Y-117379128D01*
X103679747Y-117365054D01*
X103651404Y-117349401D01*
X103624626Y-117332126D01*
X103599459Y-117313209D01*
X103575930Y-117292608D01*
X103554079Y-117270284D01*
X103533940Y-117246214D01*
X103515550Y-117220351D01*
X103498949Y-117192666D01*
X103484166Y-117163123D01*
X103471247Y-117131685D01*
X103460215Y-117098322D01*
X103451120Y-117062993D01*
X103381368Y-116751128D01*
X103376047Y-116728520D01*
X103370957Y-116708188D01*
X103364398Y-116682921D01*
X102699691Y-116682698D01*
X102688902Y-116682540D01*
X102678119Y-116682249D01*
X102667339Y-116681824D01*
X102656567Y-116681253D01*
X102645798Y-116680546D01*
X102635044Y-116679700D01*
X102624298Y-116678712D01*
X102613569Y-116677587D01*
X102593831Y-116674969D01*
X102575235Y-116671445D01*
X102557796Y-116667024D01*
X102541525Y-116661725D01*
X102526442Y-116655556D01*
X102512561Y-116648544D01*
X102506075Y-116644718D01*
X102499894Y-116640687D01*
X102494020Y-116636454D01*
X102488456Y-116632010D01*
X102483206Y-116627367D01*
X102478268Y-116622528D01*
X102473644Y-116617487D01*
X102469343Y-116612248D01*
X102465355Y-116606815D01*
X102461689Y-116601188D01*
X102458349Y-116595375D01*
X102455328Y-116589372D01*
X102452643Y-116583180D01*
X102450280Y-116576796D01*
X102448245Y-116570234D01*
X102446550Y-116563488D01*
X102445184Y-116556561D01*
X102444154Y-116549461D01*
X102443461Y-116542177D01*
X102443113Y-116534719D01*
X102443112Y-116527389D01*
X102443454Y-116520184D01*
X102444148Y-116513113D01*
X102445180Y-116506183D01*
X102446556Y-116499394D01*
X102448271Y-116492760D01*
X102450329Y-116486270D01*
X102452725Y-116479940D01*
X102455458Y-116473761D01*
X102458523Y-116467752D01*
X102461928Y-116461905D01*
X102465658Y-116456233D01*
X102469723Y-116450735D01*
X102474117Y-116445412D01*
X102478840Y-116440274D01*
X102483888Y-116435324D01*
X102489264Y-116430563D01*
X102494963Y-116425996D01*
X102500983Y-116421630D01*
X102507325Y-116417464D01*
X102513984Y-116413502D01*
X102520966Y-116409756D01*
X102528260Y-116406220D01*
X102535871Y-116402901D01*
X102543799Y-116399804D01*
X102552035Y-116396934D01*
X102560583Y-116394299D01*
X102569441Y-116391892D01*
X102578610Y-116389723D01*
X102588084Y-116387799D01*
X102597861Y-116386120D01*
X102607945Y-116384689D01*
X102650713Y-116379613D01*
X102693565Y-116375188D01*
X102779454Y-116367762D01*
X102951470Y-116354794D01*
X103322227Y-116326011D01*
X103286174Y-115596230D01*
X103646364Y-115596230D01*
X103646989Y-115792956D01*
X103652335Y-115989404D01*
X103663703Y-116185487D01*
X103682394Y-116381120D01*
X103694893Y-116478751D01*
X103709708Y-116576234D01*
X103727006Y-116673571D01*
X103746943Y-116770743D01*
X103765750Y-116853997D01*
X103774461Y-116888242D01*
X103783300Y-116918008D01*
X103792686Y-116943633D01*
X103797721Y-116954994D01*
X103803059Y-116965442D01*
X103808748Y-116975020D01*
X103814851Y-116983775D01*
X103821414Y-116991740D01*
X103828492Y-116998965D01*
X103836145Y-117005484D01*
X103844422Y-117011338D01*
X103853379Y-117016574D01*
X103863070Y-117021238D01*
X103873550Y-117025366D01*
X103884869Y-117028997D01*
X103897086Y-117032176D01*
X103910254Y-117034940D01*
X103939657Y-117039409D01*
X103973514Y-117042734D01*
X104012249Y-117045247D01*
X104056313Y-117047286D01*
X105157452Y-117086479D01*
X106258853Y-117116651D01*
X106304959Y-117115638D01*
X106350993Y-117113267D01*
X106396916Y-117109540D01*
X106442707Y-117104472D01*
X106488323Y-117098058D01*
X106533738Y-117090303D01*
X106578927Y-117081224D01*
X106623852Y-117070809D01*
X106662318Y-117061919D01*
X106696887Y-117052664D01*
X106727759Y-117042800D01*
X106741870Y-117037567D01*
X106755131Y-117032097D01*
X106767568Y-117026354D01*
X106779205Y-117020307D01*
X106790069Y-117013932D01*
X106800176Y-117007198D01*
X106809564Y-117000073D01*
X106818244Y-116992530D01*
X106826253Y-116984535D01*
X106833609Y-116976064D01*
X106840340Y-116967081D01*
X106846466Y-116957559D01*
X106852019Y-116947470D01*
X106857017Y-116936778D01*
X106861491Y-116925464D01*
X106865461Y-116913483D01*
X106868953Y-116900820D01*
X106871993Y-116887436D01*
X106874606Y-116873303D01*
X106876816Y-116858395D01*
X106880123Y-116826124D01*
X106882118Y-116790385D01*
X106882997Y-116750938D01*
X106884582Y-116492358D01*
X106884772Y-116233778D01*
X106884011Y-115716630D01*
X106906071Y-115716630D01*
X106907544Y-115507262D01*
X106907495Y-115402606D01*
X106906726Y-115350308D01*
X106905243Y-115298026D01*
X106888767Y-114787903D01*
X106876813Y-114533119D01*
X106868383Y-114405934D01*
X106857745Y-114278945D01*
X106851858Y-114222236D01*
X106845192Y-114171877D01*
X106837352Y-114127482D01*
X106832868Y-114107397D01*
X106827948Y-114088661D01*
X106822544Y-114071224D01*
X106816595Y-114055034D01*
X106810064Y-114040056D01*
X106802900Y-114026228D01*
X106795053Y-114013506D01*
X106786477Y-114001849D01*
X106777117Y-113991200D01*
X106766928Y-113981518D01*
X106755864Y-113972744D01*
X106743873Y-113964845D01*
X106730913Y-113957763D01*
X106716921Y-113951456D01*
X106701862Y-113945874D01*
X106685681Y-113940964D01*
X106668331Y-113936688D01*
X106649760Y-113932986D01*
X106608776Y-113927139D01*
X106562332Y-113923040D01*
X106510045Y-113920306D01*
X106451516Y-113918553D01*
X105626593Y-113900225D01*
X105214139Y-113895549D01*
X104801790Y-113897733D01*
X104697940Y-113901415D01*
X104594089Y-113908732D01*
X104490273Y-113919091D01*
X104386525Y-113931888D01*
X104282876Y-113946533D01*
X104179362Y-113962423D01*
X103972871Y-113995549D01*
X103944743Y-114000929D01*
X103917747Y-114007938D01*
X103891950Y-114016584D01*
X103867415Y-114026870D01*
X103855642Y-114032631D01*
X103844204Y-114038815D01*
X103833121Y-114045402D01*
X103822391Y-114052412D01*
X103812025Y-114059840D01*
X103802038Y-114067685D01*
X103792423Y-114075949D01*
X103783195Y-114084637D01*
X103774367Y-114093744D01*
X103765949Y-114103274D01*
X103757938Y-114113224D01*
X103750346Y-114123604D01*
X103743193Y-114134409D01*
X103736473Y-114145640D01*
X103730196Y-114157299D01*
X103724373Y-114169387D01*
X103719012Y-114181900D01*
X103714121Y-114194853D01*
X103709709Y-114208235D01*
X103705782Y-114222047D01*
X103702349Y-114236300D01*
X103699422Y-114250983D01*
X103697002Y-114266100D01*
X103695100Y-114281658D01*
X103688102Y-114342586D01*
X103680750Y-114403498D01*
X103677386Y-114433966D01*
X103674465Y-114464449D01*
X103672161Y-114494957D01*
X103670656Y-114525493D01*
X103665690Y-114694635D01*
X103661859Y-114863832D01*
X103654079Y-115202228D01*
X103649162Y-115399289D01*
X103646364Y-115596230D01*
X103286174Y-115596230D01*
X103286040Y-115593478D01*
X103016483Y-115593478D01*
X102837881Y-115594582D01*
X102748601Y-115594468D01*
X102703975Y-115593861D01*
X102659371Y-115592742D01*
X102642556Y-115591468D01*
X102625834Y-115589511D01*
X102609217Y-115586869D01*
X102592732Y-115583551D01*
X102576395Y-115579554D01*
X102560231Y-115574889D01*
X102544261Y-115569554D01*
X102528503Y-115563563D01*
X102516821Y-115558662D01*
X102505618Y-115553117D01*
X102494969Y-115546952D01*
X102484941Y-115540195D01*
X102480188Y-115536596D01*
X102475621Y-115532860D01*
X102471252Y-115528983D01*
X102467081Y-115524978D01*
X102463128Y-115520835D01*
X102459399Y-115516562D01*
X102455902Y-115512167D01*
X102452647Y-115507647D01*
X102449646Y-115503006D01*
X102446909Y-115498243D01*
X102444439Y-115493373D01*
X102442251Y-115488387D01*
X102440357Y-115483292D01*
X102438762Y-115478094D01*
X102437476Y-115472786D01*
X102436508Y-115467382D01*
X102435869Y-115461879D01*
X102435570Y-115456277D01*
X102435617Y-115450586D01*
X102436022Y-115444808D01*
X102436796Y-115438944D01*
X102437945Y-115432991D01*
X102439477Y-115426963D01*
X102441407Y-115420854D01*
X102445639Y-115411621D01*
X102450272Y-115402635D01*
X102455310Y-115393903D01*
X102460738Y-115385445D01*
X102466542Y-115377262D01*
X102472707Y-115369369D01*
X102479231Y-115361781D01*
X102486093Y-115354510D01*
X102493289Y-115347563D01*
X102500801Y-115340956D01*
X102508623Y-115334699D01*
X102516742Y-115328804D01*
X102525141Y-115323282D01*
X102533815Y-115318143D01*
X102542746Y-115313405D01*
X102551928Y-115309077D01*
X102561432Y-115305471D01*
X102571219Y-115302552D01*
X102581256Y-115300252D01*
X102591526Y-115298495D01*
X102601989Y-115297215D01*
X102612626Y-115296331D01*
X102623403Y-115295777D01*
X102634295Y-115295474D01*
X102678425Y-115295353D01*
X102700439Y-115294927D01*
X102711334Y-115294370D01*
X102722117Y-115293485D01*
X103310582Y-115232050D01*
X103310582Y-114601328D01*
X102673577Y-114536909D01*
X102665884Y-114536454D01*
X102658205Y-114535851D01*
X102650542Y-114535104D01*
X102642892Y-114534209D01*
X102635261Y-114533165D01*
X102627653Y-114531977D01*
X102620070Y-114530643D01*
X102612506Y-114529164D01*
X102600008Y-114525681D01*
X102587810Y-114521854D01*
X102575979Y-114517627D01*
X102564589Y-114512938D01*
X102553697Y-114507736D01*
X102543379Y-114501961D01*
X102533696Y-114495554D01*
X102529113Y-114492097D01*
X102524716Y-114488458D01*
X102520510Y-114484635D01*
X102516504Y-114480621D01*
X102512707Y-114476405D01*
X102509134Y-114471983D01*
X102505779Y-114467337D01*
X102502663Y-114462477D01*
X102499784Y-114457386D01*
X102497163Y-114452060D01*
X102494798Y-114446489D01*
X102492697Y-114440667D01*
X102490879Y-114434588D01*
X102489341Y-114428242D01*
X102488096Y-114421624D01*
X102487155Y-114414726D01*
X102486517Y-114407545D01*
X102486201Y-114400070D01*
X102486214Y-114392348D01*
X102486561Y-114384912D01*
X102487240Y-114377744D01*
X102488237Y-114370857D01*
X102489548Y-114364239D01*
X102491157Y-114357884D01*
X102493063Y-114351796D01*
X102495258Y-114345969D01*
X102497728Y-114340399D01*
X102500464Y-114335081D01*
X102503461Y-114330012D01*
X102506713Y-114325190D01*
X102510204Y-114320615D01*
X102513930Y-114316276D01*
X102517883Y-114312179D01*
X102522053Y-114308312D01*
X102526432Y-114304676D01*
X102531014Y-114301265D01*
X102535781Y-114298078D01*
X102540737Y-114295113D01*
X102545867Y-114292364D01*
X102551158Y-114289828D01*
X102556613Y-114287503D01*
X102562211Y-114285382D01*
X102573827Y-114281756D01*
X102585930Y-114278904D01*
X102598464Y-114276822D01*
X102611350Y-114275468D01*
X102657303Y-114272285D01*
X102703330Y-114269748D01*
X102749412Y-114267816D01*
X102795530Y-114266466D01*
X102841663Y-114265660D01*
X102887802Y-114265364D01*
X102980003Y-114266191D01*
X103029099Y-114267493D01*
X103078270Y-114269465D01*
X103177204Y-114274842D01*
X103379985Y-114287431D01*
X103392455Y-114255775D01*
X103404265Y-114223500D01*
X103427051Y-114157951D01*
X103450573Y-114092515D01*
X103463303Y-114060381D01*
X103477050Y-114028920D01*
X103492097Y-113998358D01*
X103508717Y-113968903D01*
X103527192Y-113940778D01*
X103547798Y-113914194D01*
X103558987Y-113901545D01*
X103570817Y-113889366D01*
X103583317Y-113877681D01*
X103596522Y-113866515D01*
X103610473Y-113855902D01*
X103625196Y-113845861D01*
X103640730Y-113836420D01*
X103657116Y-113827608D01*
X103687713Y-113812619D01*
X103718672Y-113798292D01*
X103781642Y-113771320D01*
X103845946Y-113746103D01*
X103911494Y-113722031D01*
X104045992Y-113674927D01*
X104114773Y-113650693D01*
X104184468Y-113625190D01*
X104239788Y-113117104D01*
X104242858Y-113092577D01*
X104246528Y-113069851D01*
X104250813Y-113048901D01*
X104255742Y-113029701D01*
X104261322Y-113012226D01*
X104267571Y-112996453D01*
X104274513Y-112982357D01*
X104282160Y-112969910D01*
X104286256Y-112964301D01*
X104290533Y-112959095D01*
X104294996Y-112954287D01*
X104299646Y-112949877D01*
X104304489Y-112945864D01*
X104309524Y-112942237D01*
X104314752Y-112939003D01*
X104320177Y-112936154D01*
X104325802Y-112933687D01*
X104331626Y-112931600D01*
X104337653Y-112929882D01*
X104343891Y-112928544D01*
X104350330Y-112927574D01*
X104356982Y-112926965D01*
X104370926Y-112926846D01*
X104377760Y-112927304D01*
X104384389Y-112928113D01*
X104390816Y-112929276D01*
X104397042Y-112930787D01*
X104403067Y-112932658D01*
X104408890Y-112934884D01*
X104414516Y-112937472D01*
X104419939Y-112940422D01*
X104425169Y-112943741D01*
X104430206Y-112947427D01*
X104435042Y-112951477D01*
X104439686Y-112955905D01*
X104444134Y-112960710D01*
X104448394Y-112965886D01*
X104452463Y-112971442D01*
X104456342Y-112977386D01*
X104460029Y-112983709D01*
X104463533Y-112990425D01*
X104466848Y-112997525D01*
X104469976Y-113005016D01*
X104472920Y-113012901D01*
X104475678Y-113021188D01*
X104478254Y-113029869D01*
X104480650Y-113038952D01*
X104482867Y-113048443D01*
X104484893Y-113058337D01*
X104486753Y-113068637D01*
X104488431Y-113079349D01*
X104491257Y-113102013D01*
X104493382Y-113126354D01*
X104509300Y-113365083D01*
X104524657Y-113606125D01*
X104688418Y-113606716D01*
X104768169Y-113606642D01*
X104847292Y-113605606D01*
X104923877Y-113603289D01*
X105000000Y-113600000D01*
X105149236Y-113592808D01*
X105172344Y-113314280D01*
X105195947Y-113040820D01*
X105197130Y-113028921D01*
X105198574Y-113017056D01*
X105200372Y-113005312D01*
X105202604Y-112993784D01*
X105205354Y-112982560D01*
X105208705Y-112971733D01*
X105212751Y-112961396D01*
X105217570Y-112951645D01*
X105220299Y-112947016D01*
X105223247Y-112942566D01*
X105226434Y-112938309D01*
X105229867Y-112934254D01*
X105233558Y-112930412D01*
X105237523Y-112926796D01*
X105241756Y-112923421D01*
X105246283Y-112920291D01*
X105251114Y-112917421D01*
X105256251Y-112914829D01*
X105261710Y-112912519D01*
X105267497Y-112910500D01*
X105273634Y-112908789D01*
X105280115Y-112907398D01*
X105286967Y-112906331D01*
X105294188Y-112905609D01*
X105302064Y-112905233D01*
X105309611Y-112905284D01*
X105316841Y-112905747D01*
X105323747Y-112906610D01*
X105330350Y-112907855D01*
X105336647Y-112909475D01*
X105342653Y-112911447D01*
X105348370Y-112913758D01*
X105353802Y-112916400D01*
X105358966Y-112919353D01*
X105363856Y-112922598D01*
X105368491Y-112926127D01*
X105372869Y-112929929D01*
X105377003Y-112933978D01*
X105380896Y-112938271D01*
X105384557Y-112942785D01*
X105387990Y-112947508D01*
X105391209Y-112952431D01*
X105394208Y-112957529D01*
X105397005Y-112962795D01*
X105399604Y-112968209D01*
X105402012Y-112973767D01*
X105406280Y-112985232D01*
X105409864Y-112997062D01*
X105412818Y-113009155D01*
X105415203Y-113021387D01*
X105417067Y-113033638D01*
X105433729Y-113170579D01*
X105448434Y-113309734D01*
X105477269Y-113601684D01*
X105615554Y-113608260D01*
X105691852Y-113611494D01*
X105770209Y-113613868D01*
X105846885Y-113614903D01*
X105924090Y-113614970D01*
X106082136Y-113614362D01*
X106097833Y-113379267D01*
X106105863Y-113263353D01*
X106114546Y-113147961D01*
X106117681Y-113104787D01*
X106119474Y-113083073D01*
X106121786Y-113061484D01*
X106123217Y-113050782D01*
X106124886Y-113040165D01*
X106126817Y-113029661D01*
X106129052Y-113019283D01*
X106131621Y-113009053D01*
X106134558Y-112998987D01*
X106137900Y-112989105D01*
X106141679Y-112979427D01*
X106143418Y-112975926D01*
X106145252Y-112972473D01*
X106147181Y-112969080D01*
X106149209Y-112965746D01*
X106151324Y-112962480D01*
X106153533Y-112959270D01*
X106155832Y-112956128D01*
X106158218Y-112953058D01*
X106160696Y-112950053D01*
X106163250Y-112947118D01*
X106165892Y-112944262D01*
X106168617Y-112941474D01*
X106171421Y-112938769D01*
X106174304Y-112936137D01*
X106177262Y-112933587D01*
X106180304Y-112931123D01*
X106183411Y-112928743D01*
X106186581Y-112926456D01*
X106189806Y-112924265D01*
X106193094Y-112922169D01*
X106196437Y-112920165D01*
X106199836Y-112918268D01*
X106203286Y-112916460D01*
X106206784Y-112914758D01*
X106210331Y-112913154D01*
X106213922Y-112911652D01*
X106217559Y-112910250D01*
X106221234Y-112908953D01*
X106224954Y-112907760D01*
X106228703Y-112906672D01*
X106232488Y-112905693D01*
X106236305Y-112904823D01*
X106239571Y-112904764D01*
X106242863Y-112904924D01*
G37*
D10*
X111539850Y-136167952D02*
X110968422Y-136167952D01*
X111654136Y-136510809D02*
X111254136Y-135310809D01*
X111254136Y-135310809D02*
X110854136Y-136510809D01*
X110282708Y-136510809D02*
X110396993Y-136453667D01*
X110396993Y-136453667D02*
X110454136Y-136339381D01*
X110454136Y-136339381D02*
X110454136Y-135310809D01*
X109368422Y-136453667D02*
X109482708Y-136510809D01*
X109482708Y-136510809D02*
X109711280Y-136510809D01*
X109711280Y-136510809D02*
X109825565Y-136453667D01*
X109825565Y-136453667D02*
X109882708Y-136339381D01*
X109882708Y-136339381D02*
X109882708Y-135882238D01*
X109882708Y-135882238D02*
X109825565Y-135767952D01*
X109825565Y-135767952D02*
X109711280Y-135710809D01*
X109711280Y-135710809D02*
X109482708Y-135710809D01*
X109482708Y-135710809D02*
X109368422Y-135767952D01*
X109368422Y-135767952D02*
X109311280Y-135882238D01*
X109311280Y-135882238D02*
X109311280Y-135996524D01*
X109311280Y-135996524D02*
X109882708Y-136110809D01*
X108911280Y-136510809D02*
X108282709Y-135710809D01*
X108911280Y-135710809D02*
X108282709Y-136510809D01*
X107311280Y-136510809D02*
X107311280Y-135882238D01*
X107311280Y-135882238D02*
X107368422Y-135767952D01*
X107368422Y-135767952D02*
X107482708Y-135710809D01*
X107482708Y-135710809D02*
X107711280Y-135710809D01*
X107711280Y-135710809D02*
X107825565Y-135767952D01*
X107311280Y-136453667D02*
X107425565Y-136510809D01*
X107425565Y-136510809D02*
X107711280Y-136510809D01*
X107711280Y-136510809D02*
X107825565Y-136453667D01*
X107825565Y-136453667D02*
X107882708Y-136339381D01*
X107882708Y-136339381D02*
X107882708Y-136225095D01*
X107882708Y-136225095D02*
X107825565Y-136110809D01*
X107825565Y-136110809D02*
X107711280Y-136053667D01*
X107711280Y-136053667D02*
X107425565Y-136053667D01*
X107425565Y-136053667D02*
X107311280Y-135996524D01*
X106739851Y-135710809D02*
X106739851Y-136510809D01*
X106739851Y-135825095D02*
X106682708Y-135767952D01*
X106682708Y-135767952D02*
X106568423Y-135710809D01*
X106568423Y-135710809D02*
X106396994Y-135710809D01*
X106396994Y-135710809D02*
X106282708Y-135767952D01*
X106282708Y-135767952D02*
X106225566Y-135882238D01*
X106225566Y-135882238D02*
X106225566Y-136510809D01*
X105139852Y-136510809D02*
X105139852Y-135310809D01*
X105139852Y-136453667D02*
X105254137Y-136510809D01*
X105254137Y-136510809D02*
X105482709Y-136510809D01*
X105482709Y-136510809D02*
X105596994Y-136453667D01*
X105596994Y-136453667D02*
X105654137Y-136396524D01*
X105654137Y-136396524D02*
X105711280Y-136282238D01*
X105711280Y-136282238D02*
X105711280Y-135939381D01*
X105711280Y-135939381D02*
X105654137Y-135825095D01*
X105654137Y-135825095D02*
X105596994Y-135767952D01*
X105596994Y-135767952D02*
X105482709Y-135710809D01*
X105482709Y-135710809D02*
X105254137Y-135710809D01*
X105254137Y-135710809D02*
X105139852Y-135767952D01*
X104111280Y-136453667D02*
X104225566Y-136510809D01*
X104225566Y-136510809D02*
X104454138Y-136510809D01*
X104454138Y-136510809D02*
X104568423Y-136453667D01*
X104568423Y-136453667D02*
X104625566Y-136339381D01*
X104625566Y-136339381D02*
X104625566Y-135882238D01*
X104625566Y-135882238D02*
X104568423Y-135767952D01*
X104568423Y-135767952D02*
X104454138Y-135710809D01*
X104454138Y-135710809D02*
X104225566Y-135710809D01*
X104225566Y-135710809D02*
X104111280Y-135767952D01*
X104111280Y-135767952D02*
X104054138Y-135882238D01*
X104054138Y-135882238D02*
X104054138Y-135996524D01*
X104054138Y-135996524D02*
X104625566Y-136110809D01*
X103539852Y-136510809D02*
X103539852Y-135710809D01*
X103539852Y-135939381D02*
X103482709Y-135825095D01*
X103482709Y-135825095D02*
X103425567Y-135767952D01*
X103425567Y-135767952D02*
X103311281Y-135710809D01*
X103311281Y-135710809D02*
X103196995Y-135710809D01*
X101539852Y-135310809D02*
X101539852Y-136167952D01*
X101539852Y-136167952D02*
X101596995Y-136339381D01*
X101596995Y-136339381D02*
X101711281Y-136453667D01*
X101711281Y-136453667D02*
X101882709Y-136510809D01*
X101882709Y-136510809D02*
X101996995Y-136510809D01*
X100454138Y-136510809D02*
X100454138Y-135882238D01*
X100454138Y-135882238D02*
X100511280Y-135767952D01*
X100511280Y-135767952D02*
X100625566Y-135710809D01*
X100625566Y-135710809D02*
X100854138Y-135710809D01*
X100854138Y-135710809D02*
X100968423Y-135767952D01*
X100454138Y-136453667D02*
X100568423Y-136510809D01*
X100568423Y-136510809D02*
X100854138Y-136510809D01*
X100854138Y-136510809D02*
X100968423Y-136453667D01*
X100968423Y-136453667D02*
X101025566Y-136339381D01*
X101025566Y-136339381D02*
X101025566Y-136225095D01*
X101025566Y-136225095D02*
X100968423Y-136110809D01*
X100968423Y-136110809D02*
X100854138Y-136053667D01*
X100854138Y-136053667D02*
X100568423Y-136053667D01*
X100568423Y-136053667D02*
X100454138Y-135996524D01*
X99425566Y-136453667D02*
X99539852Y-136510809D01*
X99539852Y-136510809D02*
X99768424Y-136510809D01*
X99768424Y-136510809D02*
X99882709Y-136453667D01*
X99882709Y-136453667D02*
X99939852Y-136339381D01*
X99939852Y-136339381D02*
X99939852Y-135882238D01*
X99939852Y-135882238D02*
X99882709Y-135767952D01*
X99882709Y-135767952D02*
X99768424Y-135710809D01*
X99768424Y-135710809D02*
X99539852Y-135710809D01*
X99539852Y-135710809D02*
X99425566Y-135767952D01*
X99425566Y-135767952D02*
X99368424Y-135882238D01*
X99368424Y-135882238D02*
X99368424Y-135996524D01*
X99368424Y-135996524D02*
X99939852Y-136110809D01*
X98339853Y-135710809D02*
X98339853Y-136682238D01*
X98339853Y-136682238D02*
X98396995Y-136796524D01*
X98396995Y-136796524D02*
X98454138Y-136853667D01*
X98454138Y-136853667D02*
X98568424Y-136910809D01*
X98568424Y-136910809D02*
X98739853Y-136910809D01*
X98739853Y-136910809D02*
X98854138Y-136853667D01*
X98339853Y-136453667D02*
X98454138Y-136510809D01*
X98454138Y-136510809D02*
X98682710Y-136510809D01*
X98682710Y-136510809D02*
X98796995Y-136453667D01*
X98796995Y-136453667D02*
X98854138Y-136396524D01*
X98854138Y-136396524D02*
X98911281Y-136282238D01*
X98911281Y-136282238D02*
X98911281Y-135939381D01*
X98911281Y-135939381D02*
X98854138Y-135825095D01*
X98854138Y-135825095D02*
X98796995Y-135767952D01*
X98796995Y-135767952D02*
X98682710Y-135710809D01*
X98682710Y-135710809D02*
X98454138Y-135710809D01*
X98454138Y-135710809D02*
X98339853Y-135767952D01*
X97311281Y-136453667D02*
X97425567Y-136510809D01*
X97425567Y-136510809D02*
X97654139Y-136510809D01*
X97654139Y-136510809D02*
X97768424Y-136453667D01*
X97768424Y-136453667D02*
X97825567Y-136339381D01*
X97825567Y-136339381D02*
X97825567Y-135882238D01*
X97825567Y-135882238D02*
X97768424Y-135767952D01*
X97768424Y-135767952D02*
X97654139Y-135710809D01*
X97654139Y-135710809D02*
X97425567Y-135710809D01*
X97425567Y-135710809D02*
X97311281Y-135767952D01*
X97311281Y-135767952D02*
X97254139Y-135882238D01*
X97254139Y-135882238D02*
X97254139Y-135996524D01*
X97254139Y-135996524D02*
X97825567Y-136110809D01*
X96739853Y-136510809D02*
X96739853Y-135710809D01*
X96739853Y-135939381D02*
X96682710Y-135825095D01*
X96682710Y-135825095D02*
X96625568Y-135767952D01*
X96625568Y-135767952D02*
X96511282Y-135710809D01*
X96511282Y-135710809D02*
X96396996Y-135710809D01*
X111539850Y-137357028D02*
X111482707Y-137299885D01*
X111482707Y-137299885D02*
X111368422Y-137242742D01*
X111368422Y-137242742D02*
X111082707Y-137242742D01*
X111082707Y-137242742D02*
X110968422Y-137299885D01*
X110968422Y-137299885D02*
X110911279Y-137357028D01*
X110911279Y-137357028D02*
X110854136Y-137471314D01*
X110854136Y-137471314D02*
X110854136Y-137585600D01*
X110854136Y-137585600D02*
X110911279Y-137757028D01*
X110911279Y-137757028D02*
X111596993Y-138442742D01*
X111596993Y-138442742D02*
X110854136Y-138442742D01*
X110111279Y-137242742D02*
X109996993Y-137242742D01*
X109996993Y-137242742D02*
X109882707Y-137299885D01*
X109882707Y-137299885D02*
X109825565Y-137357028D01*
X109825565Y-137357028D02*
X109768422Y-137471314D01*
X109768422Y-137471314D02*
X109711279Y-137699885D01*
X109711279Y-137699885D02*
X109711279Y-137985600D01*
X109711279Y-137985600D02*
X109768422Y-138214171D01*
X109768422Y-138214171D02*
X109825565Y-138328457D01*
X109825565Y-138328457D02*
X109882707Y-138385600D01*
X109882707Y-138385600D02*
X109996993Y-138442742D01*
X109996993Y-138442742D02*
X110111279Y-138442742D01*
X110111279Y-138442742D02*
X110225565Y-138385600D01*
X110225565Y-138385600D02*
X110282707Y-138328457D01*
X110282707Y-138328457D02*
X110339850Y-138214171D01*
X110339850Y-138214171D02*
X110396993Y-137985600D01*
X110396993Y-137985600D02*
X110396993Y-137699885D01*
X110396993Y-137699885D02*
X110339850Y-137471314D01*
X110339850Y-137471314D02*
X110282707Y-137357028D01*
X110282707Y-137357028D02*
X110225565Y-137299885D01*
X110225565Y-137299885D02*
X110111279Y-137242742D01*
X109254136Y-137357028D02*
X109196993Y-137299885D01*
X109196993Y-137299885D02*
X109082708Y-137242742D01*
X109082708Y-137242742D02*
X108796993Y-137242742D01*
X108796993Y-137242742D02*
X108682708Y-137299885D01*
X108682708Y-137299885D02*
X108625565Y-137357028D01*
X108625565Y-137357028D02*
X108568422Y-137471314D01*
X108568422Y-137471314D02*
X108568422Y-137585600D01*
X108568422Y-137585600D02*
X108625565Y-137757028D01*
X108625565Y-137757028D02*
X109311279Y-138442742D01*
X109311279Y-138442742D02*
X108568422Y-138442742D01*
X107539851Y-137242742D02*
X107768422Y-137242742D01*
X107768422Y-137242742D02*
X107882708Y-137299885D01*
X107882708Y-137299885D02*
X107939851Y-137357028D01*
X107939851Y-137357028D02*
X108054136Y-137528457D01*
X108054136Y-137528457D02*
X108111279Y-137757028D01*
X108111279Y-137757028D02*
X108111279Y-138214171D01*
X108111279Y-138214171D02*
X108054136Y-138328457D01*
X108054136Y-138328457D02*
X107996993Y-138385600D01*
X107996993Y-138385600D02*
X107882708Y-138442742D01*
X107882708Y-138442742D02*
X107654136Y-138442742D01*
X107654136Y-138442742D02*
X107539851Y-138385600D01*
X107539851Y-138385600D02*
X107482708Y-138328457D01*
X107482708Y-138328457D02*
X107425565Y-138214171D01*
X107425565Y-138214171D02*
X107425565Y-137928457D01*
X107425565Y-137928457D02*
X107482708Y-137814171D01*
X107482708Y-137814171D02*
X107539851Y-137757028D01*
X107539851Y-137757028D02*
X107654136Y-137699885D01*
X107654136Y-137699885D02*
X107882708Y-137699885D01*
X107882708Y-137699885D02*
X107996993Y-137757028D01*
X107996993Y-137757028D02*
X108054136Y-137814171D01*
X108054136Y-137814171D02*
X108111279Y-137928457D01*
M02*
