%TF.GenerationSoftware,KiCad,Pcbnew,10.0.5-10.0.5~ubuntu24.04.1*%
%TF.CreationDate,2026-09-29T00:04:25+02:00*%
%TF.ProjectId,MSP430_G2_PDIP20_Devboard_THT,4d535034-3330-45f4-9732-5f5044495032,rev?*%
%TF.SameCoordinates,Original*%
%TF.FileFunction,Soldermask,Top*%
%TF.FilePolarity,Negative*%
%FSLAX46Y46*%
G04 Gerber Fmt 4.6, Leading zero omitted, Abs format (unit mm)*
G04 Created by KiCad (PCBNEW 10.0.5-10.0.5~ubuntu24.04.1) date 2026-09-29 00:04:25*
%MOMM*%
%LPD*%
G01*
G04 APERTURE LIST*
G04 APERTURE END LIST*
G36*
X101172208Y-143484254D02*
G01*
X101273943Y-143542991D01*
X101357009Y-143626057D01*
X101415746Y-143727792D01*
X101446150Y-143841263D01*
X101446150Y-143958737D01*
X101415746Y-144072208D01*
X101357009Y-144173943D01*
X101273943Y-144257009D01*
X101172208Y-144315746D01*
X101058737Y-144346150D01*
X100941263Y-144346150D01*
X100827792Y-144315746D01*
X100726057Y-144257009D01*
X100642991Y-144173943D01*
X100584254Y-144072208D01*
X100553850Y-143958737D01*
X100553850Y-143841263D01*
X100584254Y-143727792D01*
X100642991Y-143626057D01*
X100726057Y-143542991D01*
X100827792Y-143484254D01*
X100941263Y-143453850D01*
X101058737Y-143453850D01*
X101172208Y-143484254D01*
G37*
G36*
X106872208Y-143384254D02*
G01*
X106973943Y-143442991D01*
X107057009Y-143526057D01*
X107115746Y-143627792D01*
X107146150Y-143741263D01*
X107146150Y-143858737D01*
X107115746Y-143972208D01*
X107057009Y-144073943D01*
X106973943Y-144157009D01*
X106872208Y-144215746D01*
X106758737Y-144246150D01*
X106641263Y-144246150D01*
X106527792Y-144215746D01*
X106426057Y-144157009D01*
X106342991Y-144073943D01*
X106284254Y-143972208D01*
X106253850Y-143858737D01*
X106253850Y-143741263D01*
X106284254Y-143627792D01*
X106342991Y-143526057D01*
X106426057Y-143442991D01*
X106527792Y-143384254D01*
X106641263Y-143353850D01*
X106758737Y-143353850D01*
X106872208Y-143384254D01*
G37*
G36*
X119861256Y-142448754D02*
G01*
X120024257Y-142516271D01*
X120170954Y-142614291D01*
X120295709Y-142739046D01*
X120393729Y-142885743D01*
X120461246Y-143048744D01*
X120495666Y-143221785D01*
X120495666Y-143398215D01*
X120461246Y-143571256D01*
X120393729Y-143734257D01*
X120295709Y-143880954D01*
X120170954Y-144005709D01*
X120024257Y-144103729D01*
X119861256Y-144171246D01*
X119688215Y-144205666D01*
X119511785Y-144205666D01*
X119338744Y-144171246D01*
X119175743Y-144103729D01*
X119029046Y-144005709D01*
X118904291Y-143880954D01*
X118806271Y-143734257D01*
X118738754Y-143571256D01*
X118704334Y-143398215D01*
X118704334Y-143221785D01*
X118738754Y-143048744D01*
X118806271Y-142885743D01*
X118904291Y-142739046D01*
X119029046Y-142614291D01*
X119175743Y-142516271D01*
X119338744Y-142448754D01*
X119511785Y-142414334D01*
X119688215Y-142414334D01*
X119861256Y-142448754D01*
G37*
G36*
X110772208Y-142984254D02*
G01*
X110873943Y-143042991D01*
X110957009Y-143126057D01*
X111015746Y-143227792D01*
X111046150Y-143341263D01*
X111046150Y-143458737D01*
X111015746Y-143572208D01*
X110957009Y-143673943D01*
X110873943Y-143757009D01*
X110772208Y-143815746D01*
X110658737Y-143846150D01*
X110541263Y-143846150D01*
X110427792Y-143815746D01*
X110326057Y-143757009D01*
X110242991Y-143673943D01*
X110184254Y-143572208D01*
X110153850Y-143458737D01*
X110153850Y-143341263D01*
X110184254Y-143227792D01*
X110242991Y-143126057D01*
X110326057Y-143042991D01*
X110427792Y-142984254D01*
X110541263Y-142953850D01*
X110658737Y-142953850D01*
X110772208Y-142984254D01*
G37*
G36*
X96226824Y-141038682D02*
G01*
X96435757Y-141106569D01*
X96631498Y-141206304D01*
X96809227Y-141335432D01*
X96964568Y-141490773D01*
X97093696Y-141668502D01*
X97193431Y-141864243D01*
X97261318Y-142073176D01*
X97295684Y-142290157D01*
X97295684Y-142509843D01*
X97261318Y-142726824D01*
X97193431Y-142935757D01*
X97093696Y-143131498D01*
X96964568Y-143309227D01*
X96809227Y-143464568D01*
X96631498Y-143593696D01*
X96435757Y-143693431D01*
X96226824Y-143761318D01*
X96009843Y-143795684D01*
X95790157Y-143795684D01*
X95573176Y-143761318D01*
X95364243Y-143693431D01*
X95168502Y-143593696D01*
X94990773Y-143464568D01*
X94835432Y-143309227D01*
X94706304Y-143131498D01*
X94606569Y-142935757D01*
X94538682Y-142726824D01*
X94504316Y-142509843D01*
X94504316Y-142290157D01*
X94538682Y-142073176D01*
X94606569Y-141864243D01*
X94706304Y-141668502D01*
X94835432Y-141490773D01*
X94990773Y-141335432D01*
X95168502Y-141206304D01*
X95364243Y-141106569D01*
X95573176Y-141038682D01*
X95790157Y-141004316D01*
X96009843Y-141004316D01*
X96226824Y-141038682D01*
G37*
G36*
X158026824Y-141038682D02*
G01*
X158235757Y-141106569D01*
X158431498Y-141206304D01*
X158609227Y-141335432D01*
X158764568Y-141490773D01*
X158893696Y-141668502D01*
X158993431Y-141864243D01*
X159061318Y-142073176D01*
X159095684Y-142290157D01*
X159095684Y-142509843D01*
X159061318Y-142726824D01*
X158993431Y-142935757D01*
X158893696Y-143131498D01*
X158764568Y-143309227D01*
X158609227Y-143464568D01*
X158431498Y-143593696D01*
X158235757Y-143693431D01*
X158026824Y-143761318D01*
X157809843Y-143795684D01*
X157590157Y-143795684D01*
X157373176Y-143761318D01*
X157164243Y-143693431D01*
X156968502Y-143593696D01*
X156790773Y-143464568D01*
X156635432Y-143309227D01*
X156506304Y-143131498D01*
X156406569Y-142935757D01*
X156338682Y-142726824D01*
X156304316Y-142509843D01*
X156304316Y-142290157D01*
X156338682Y-142073176D01*
X156406569Y-141864243D01*
X156506304Y-141668502D01*
X156635432Y-141490773D01*
X156790773Y-141335432D01*
X156968502Y-141206304D01*
X157164243Y-141106569D01*
X157373176Y-141038682D01*
X157590157Y-141004316D01*
X157809843Y-141004316D01*
X158026824Y-141038682D01*
G37*
G36*
X130669134Y-141703806D02*
G01*
X130685355Y-141714645D01*
X130696194Y-141730866D01*
X130700000Y-141750000D01*
X130700000Y-143450000D01*
X130696194Y-143469134D01*
X130685355Y-143485355D01*
X130669134Y-143496194D01*
X130650000Y-143500000D01*
X128950000Y-143500000D01*
X128930866Y-143496194D01*
X128914645Y-143485355D01*
X128903806Y-143469134D01*
X128900000Y-143450000D01*
X128900000Y-141750000D01*
X128903806Y-141730866D01*
X128914645Y-141714645D01*
X128930866Y-141703806D01*
X128950000Y-141700000D01*
X130650000Y-141700000D01*
X130669134Y-141703806D01*
G37*
G36*
X132601256Y-141738754D02*
G01*
X132764257Y-141806271D01*
X132910954Y-141904291D01*
X133035709Y-142029046D01*
X133133729Y-142175743D01*
X133201246Y-142338744D01*
X133235666Y-142511785D01*
X133235666Y-142688215D01*
X133201246Y-142861256D01*
X133133729Y-143024257D01*
X133035709Y-143170954D01*
X132910954Y-143295709D01*
X132764257Y-143393729D01*
X132601256Y-143461246D01*
X132428215Y-143495666D01*
X132251785Y-143495666D01*
X132078744Y-143461246D01*
X131915743Y-143393729D01*
X131769046Y-143295709D01*
X131644291Y-143170954D01*
X131546271Y-143024257D01*
X131478754Y-142861256D01*
X131444334Y-142688215D01*
X131444334Y-142511785D01*
X131478754Y-142338744D01*
X131546271Y-142175743D01*
X131644291Y-142029046D01*
X131769046Y-141904291D01*
X131915743Y-141806271D01*
X132078744Y-141738754D01*
X132251785Y-141704334D01*
X132428215Y-141704334D01*
X132601256Y-141738754D01*
G37*
G36*
X135141256Y-141738754D02*
G01*
X135304257Y-141806271D01*
X135450954Y-141904291D01*
X135575709Y-142029046D01*
X135673729Y-142175743D01*
X135741246Y-142338744D01*
X135775666Y-142511785D01*
X135775666Y-142688215D01*
X135741246Y-142861256D01*
X135673729Y-143024257D01*
X135575709Y-143170954D01*
X135450954Y-143295709D01*
X135304257Y-143393729D01*
X135141256Y-143461246D01*
X134968215Y-143495666D01*
X134791785Y-143495666D01*
X134618744Y-143461246D01*
X134455743Y-143393729D01*
X134309046Y-143295709D01*
X134184291Y-143170954D01*
X134086271Y-143024257D01*
X134018754Y-142861256D01*
X133984334Y-142688215D01*
X133984334Y-142511785D01*
X134018754Y-142338744D01*
X134086271Y-142175743D01*
X134184291Y-142029046D01*
X134309046Y-141904291D01*
X134455743Y-141806271D01*
X134618744Y-141738754D01*
X134791785Y-141704334D01*
X134968215Y-141704334D01*
X135141256Y-141738754D01*
G37*
G36*
X137681256Y-141738754D02*
G01*
X137844257Y-141806271D01*
X137990954Y-141904291D01*
X138115709Y-142029046D01*
X138213729Y-142175743D01*
X138281246Y-142338744D01*
X138315666Y-142511785D01*
X138315666Y-142688215D01*
X138281246Y-142861256D01*
X138213729Y-143024257D01*
X138115709Y-143170954D01*
X137990954Y-143295709D01*
X137844257Y-143393729D01*
X137681256Y-143461246D01*
X137508215Y-143495666D01*
X137331785Y-143495666D01*
X137158744Y-143461246D01*
X136995743Y-143393729D01*
X136849046Y-143295709D01*
X136724291Y-143170954D01*
X136626271Y-143024257D01*
X136558754Y-142861256D01*
X136524334Y-142688215D01*
X136524334Y-142511785D01*
X136558754Y-142338744D01*
X136626271Y-142175743D01*
X136724291Y-142029046D01*
X136849046Y-141904291D01*
X136995743Y-141806271D01*
X137158744Y-141738754D01*
X137331785Y-141704334D01*
X137508215Y-141704334D01*
X137681256Y-141738754D01*
G37*
G36*
X140221256Y-141738754D02*
G01*
X140384257Y-141806271D01*
X140530954Y-141904291D01*
X140655709Y-142029046D01*
X140753729Y-142175743D01*
X140821246Y-142338744D01*
X140855666Y-142511785D01*
X140855666Y-142688215D01*
X140821246Y-142861256D01*
X140753729Y-143024257D01*
X140655709Y-143170954D01*
X140530954Y-143295709D01*
X140384257Y-143393729D01*
X140221256Y-143461246D01*
X140048215Y-143495666D01*
X139871785Y-143495666D01*
X139698744Y-143461246D01*
X139535743Y-143393729D01*
X139389046Y-143295709D01*
X139264291Y-143170954D01*
X139166271Y-143024257D01*
X139098754Y-142861256D01*
X139064334Y-142688215D01*
X139064334Y-142511785D01*
X139098754Y-142338744D01*
X139166271Y-142175743D01*
X139264291Y-142029046D01*
X139389046Y-141904291D01*
X139535743Y-141806271D01*
X139698744Y-141738754D01*
X139871785Y-141704334D01*
X140048215Y-141704334D01*
X140221256Y-141738754D01*
G37*
G36*
X142761256Y-141738754D02*
G01*
X142924257Y-141806271D01*
X143070954Y-141904291D01*
X143195709Y-142029046D01*
X143293729Y-142175743D01*
X143361246Y-142338744D01*
X143395666Y-142511785D01*
X143395666Y-142688215D01*
X143361246Y-142861256D01*
X143293729Y-143024257D01*
X143195709Y-143170954D01*
X143070954Y-143295709D01*
X142924257Y-143393729D01*
X142761256Y-143461246D01*
X142588215Y-143495666D01*
X142411785Y-143495666D01*
X142238744Y-143461246D01*
X142075743Y-143393729D01*
X141929046Y-143295709D01*
X141804291Y-143170954D01*
X141706271Y-143024257D01*
X141638754Y-142861256D01*
X141604334Y-142688215D01*
X141604334Y-142511785D01*
X141638754Y-142338744D01*
X141706271Y-142175743D01*
X141804291Y-142029046D01*
X141929046Y-141904291D01*
X142075743Y-141806271D01*
X142238744Y-141738754D01*
X142411785Y-141704334D01*
X142588215Y-141704334D01*
X142761256Y-141738754D01*
G37*
G36*
X145301256Y-141738754D02*
G01*
X145464257Y-141806271D01*
X145610954Y-141904291D01*
X145735709Y-142029046D01*
X145833729Y-142175743D01*
X145901246Y-142338744D01*
X145935666Y-142511785D01*
X145935666Y-142688215D01*
X145901246Y-142861256D01*
X145833729Y-143024257D01*
X145735709Y-143170954D01*
X145610954Y-143295709D01*
X145464257Y-143393729D01*
X145301256Y-143461246D01*
X145128215Y-143495666D01*
X144951785Y-143495666D01*
X144778744Y-143461246D01*
X144615743Y-143393729D01*
X144469046Y-143295709D01*
X144344291Y-143170954D01*
X144246271Y-143024257D01*
X144178754Y-142861256D01*
X144144334Y-142688215D01*
X144144334Y-142511785D01*
X144178754Y-142338744D01*
X144246271Y-142175743D01*
X144344291Y-142029046D01*
X144469046Y-141904291D01*
X144615743Y-141806271D01*
X144778744Y-141738754D01*
X144951785Y-141704334D01*
X145128215Y-141704334D01*
X145301256Y-141738754D01*
G37*
G36*
X147841256Y-141738754D02*
G01*
X148004257Y-141806271D01*
X148150954Y-141904291D01*
X148275709Y-142029046D01*
X148373729Y-142175743D01*
X148441246Y-142338744D01*
X148475666Y-142511785D01*
X148475666Y-142688215D01*
X148441246Y-142861256D01*
X148373729Y-143024257D01*
X148275709Y-143170954D01*
X148150954Y-143295709D01*
X148004257Y-143393729D01*
X147841256Y-143461246D01*
X147668215Y-143495666D01*
X147491785Y-143495666D01*
X147318744Y-143461246D01*
X147155743Y-143393729D01*
X147009046Y-143295709D01*
X146884291Y-143170954D01*
X146786271Y-143024257D01*
X146718754Y-142861256D01*
X146684334Y-142688215D01*
X146684334Y-142511785D01*
X146718754Y-142338744D01*
X146786271Y-142175743D01*
X146884291Y-142029046D01*
X147009046Y-141904291D01*
X147155743Y-141806271D01*
X147318744Y-141738754D01*
X147491785Y-141704334D01*
X147668215Y-141704334D01*
X147841256Y-141738754D01*
G37*
G36*
X150381256Y-141738754D02*
G01*
X150544257Y-141806271D01*
X150690954Y-141904291D01*
X150815709Y-142029046D01*
X150913729Y-142175743D01*
X150981246Y-142338744D01*
X151015666Y-142511785D01*
X151015666Y-142688215D01*
X150981246Y-142861256D01*
X150913729Y-143024257D01*
X150815709Y-143170954D01*
X150690954Y-143295709D01*
X150544257Y-143393729D01*
X150381256Y-143461246D01*
X150208215Y-143495666D01*
X150031785Y-143495666D01*
X149858744Y-143461246D01*
X149695743Y-143393729D01*
X149549046Y-143295709D01*
X149424291Y-143170954D01*
X149326271Y-143024257D01*
X149258754Y-142861256D01*
X149224334Y-142688215D01*
X149224334Y-142511785D01*
X149258754Y-142338744D01*
X149326271Y-142175743D01*
X149424291Y-142029046D01*
X149549046Y-141904291D01*
X149695743Y-141806271D01*
X149858744Y-141738754D01*
X150031785Y-141704334D01*
X150208215Y-141704334D01*
X150381256Y-141738754D01*
G37*
G36*
X152921256Y-141738754D02*
G01*
X153084257Y-141806271D01*
X153230954Y-141904291D01*
X153355709Y-142029046D01*
X153453729Y-142175743D01*
X153521246Y-142338744D01*
X153555666Y-142511785D01*
X153555666Y-142688215D01*
X153521246Y-142861256D01*
X153453729Y-143024257D01*
X153355709Y-143170954D01*
X153230954Y-143295709D01*
X153084257Y-143393729D01*
X152921256Y-143461246D01*
X152748215Y-143495666D01*
X152571785Y-143495666D01*
X152398744Y-143461246D01*
X152235743Y-143393729D01*
X152089046Y-143295709D01*
X151964291Y-143170954D01*
X151866271Y-143024257D01*
X151798754Y-142861256D01*
X151764334Y-142688215D01*
X151764334Y-142511785D01*
X151798754Y-142338744D01*
X151866271Y-142175743D01*
X151964291Y-142029046D01*
X152089046Y-141904291D01*
X152235743Y-141806271D01*
X152398744Y-141738754D01*
X152571785Y-141704334D01*
X152748215Y-141704334D01*
X152921256Y-141738754D01*
G37*
G36*
X101768685Y-141557969D02*
G01*
X101777358Y-141561798D01*
X101784925Y-141562901D01*
X101832223Y-141586023D01*
X101869541Y-141602501D01*
X101872996Y-141605956D01*
X101873920Y-141606408D01*
X101943591Y-141676079D01*
X101944042Y-141677002D01*
X101947499Y-141680459D01*
X101963978Y-141717782D01*
X101987098Y-141765073D01*
X101988200Y-141772639D01*
X101992031Y-141781315D01*
X102000000Y-141850000D01*
X102000000Y-142350000D01*
X101992031Y-142418685D01*
X101988199Y-142427361D01*
X101987098Y-142434925D01*
X101963985Y-142482202D01*
X101947499Y-142519541D01*
X101944041Y-142522998D01*
X101943591Y-142523920D01*
X101873920Y-142593591D01*
X101872998Y-142594041D01*
X101869541Y-142597499D01*
X101832207Y-142613983D01*
X101784926Y-142637098D01*
X101777361Y-142638200D01*
X101768685Y-142642031D01*
X101700000Y-142650000D01*
X100450000Y-142650000D01*
X100381315Y-142642031D01*
X100372638Y-142638200D01*
X100365074Y-142637098D01*
X100317787Y-142613981D01*
X100280459Y-142597499D01*
X100277002Y-142594042D01*
X100276079Y-142593591D01*
X100206408Y-142523920D01*
X100205956Y-142522996D01*
X100202501Y-142519541D01*
X100186025Y-142482228D01*
X100162901Y-142434926D01*
X100161798Y-142427357D01*
X100157969Y-142418685D01*
X100150000Y-142350000D01*
X100150000Y-141850000D01*
X100157969Y-141781315D01*
X100161798Y-141772642D01*
X100162901Y-141765074D01*
X100186028Y-141717766D01*
X100202501Y-141680459D01*
X100205955Y-141677004D01*
X100206408Y-141676079D01*
X100276079Y-141606408D01*
X100277004Y-141605955D01*
X100280459Y-141602501D01*
X100317761Y-141586030D01*
X100365073Y-141562901D01*
X100372642Y-141561798D01*
X100381315Y-141557969D01*
X100450000Y-141550000D01*
X101700000Y-141550000D01*
X101768685Y-141557969D01*
G37*
G36*
X107218685Y-141557969D02*
G01*
X107227358Y-141561798D01*
X107234925Y-141562901D01*
X107282223Y-141586023D01*
X107319541Y-141602501D01*
X107322996Y-141605956D01*
X107323920Y-141606408D01*
X107393591Y-141676079D01*
X107394042Y-141677002D01*
X107397499Y-141680459D01*
X107413978Y-141717782D01*
X107437098Y-141765073D01*
X107438200Y-141772639D01*
X107442031Y-141781315D01*
X107450000Y-141850000D01*
X107450000Y-142350000D01*
X107442031Y-142418685D01*
X107438199Y-142427361D01*
X107437098Y-142434925D01*
X107413985Y-142482202D01*
X107397499Y-142519541D01*
X107394041Y-142522998D01*
X107393591Y-142523920D01*
X107323920Y-142593591D01*
X107322998Y-142594041D01*
X107319541Y-142597499D01*
X107282207Y-142613983D01*
X107234926Y-142637098D01*
X107227361Y-142638200D01*
X107218685Y-142642031D01*
X107150000Y-142650000D01*
X105900000Y-142650000D01*
X105831315Y-142642031D01*
X105822638Y-142638200D01*
X105815074Y-142637098D01*
X105767787Y-142613981D01*
X105730459Y-142597499D01*
X105727002Y-142594042D01*
X105726079Y-142593591D01*
X105656408Y-142523920D01*
X105655956Y-142522996D01*
X105652501Y-142519541D01*
X105636025Y-142482228D01*
X105612901Y-142434926D01*
X105611798Y-142427357D01*
X105607969Y-142418685D01*
X105600000Y-142350000D01*
X105600000Y-141850000D01*
X105607969Y-141781315D01*
X105611798Y-141772642D01*
X105612901Y-141765074D01*
X105636028Y-141717766D01*
X105652501Y-141680459D01*
X105655955Y-141677004D01*
X105656408Y-141676079D01*
X105726079Y-141606408D01*
X105727004Y-141605955D01*
X105730459Y-141602501D01*
X105767761Y-141586030D01*
X105815073Y-141562901D01*
X105822642Y-141561798D01*
X105831315Y-141557969D01*
X105900000Y-141550000D01*
X107150000Y-141550000D01*
X107218685Y-141557969D01*
G37*
G36*
X111269134Y-140948806D02*
G01*
X111285355Y-140959645D01*
X111296194Y-140975866D01*
X111300000Y-140995000D01*
X111300000Y-142405000D01*
X111296194Y-142424134D01*
X111285355Y-142440355D01*
X111269134Y-142451194D01*
X111250000Y-142455000D01*
X109900000Y-142455000D01*
X109880866Y-142451194D01*
X109864645Y-142440355D01*
X109853806Y-142424134D01*
X109850000Y-142405000D01*
X109850000Y-140995000D01*
X109853806Y-140975866D01*
X109864645Y-140959645D01*
X109880866Y-140948806D01*
X109900000Y-140945000D01*
X111250000Y-140945000D01*
X111269134Y-140948806D01*
G37*
G36*
X108772208Y-141484254D02*
G01*
X108873943Y-141542991D01*
X108957009Y-141626057D01*
X109015746Y-141727792D01*
X109046150Y-141841263D01*
X109046150Y-141958737D01*
X109015746Y-142072208D01*
X108957009Y-142173943D01*
X108873943Y-142257009D01*
X108772208Y-142315746D01*
X108658737Y-142346150D01*
X108541263Y-142346150D01*
X108427792Y-142315746D01*
X108326057Y-142257009D01*
X108242991Y-142173943D01*
X108184254Y-142072208D01*
X108153850Y-141958737D01*
X108153850Y-141841263D01*
X108184254Y-141727792D01*
X108242991Y-141626057D01*
X108326057Y-141542991D01*
X108427792Y-141484254D01*
X108541263Y-141453850D01*
X108658737Y-141453850D01*
X108772208Y-141484254D01*
G37*
G36*
X112572208Y-141484254D02*
G01*
X112673943Y-141542991D01*
X112757009Y-141626057D01*
X112815746Y-141727792D01*
X112846150Y-141841263D01*
X112846150Y-141958737D01*
X112815746Y-142072208D01*
X112757009Y-142173943D01*
X112673943Y-142257009D01*
X112572208Y-142315746D01*
X112458737Y-142346150D01*
X112341263Y-142346150D01*
X112227792Y-142315746D01*
X112126057Y-142257009D01*
X112042991Y-142173943D01*
X111984254Y-142072208D01*
X111953850Y-141958737D01*
X111953850Y-141841263D01*
X111984254Y-141727792D01*
X112042991Y-141626057D01*
X112126057Y-141542991D01*
X112227792Y-141484254D01*
X112341263Y-141453850D01*
X112458737Y-141453850D01*
X112572208Y-141484254D01*
G37*
G36*
X119861256Y-139908754D02*
G01*
X120024257Y-139976271D01*
X120170954Y-140074291D01*
X120295709Y-140199046D01*
X120393729Y-140345743D01*
X120461246Y-140508744D01*
X120495666Y-140681785D01*
X120495666Y-140858215D01*
X120461246Y-141031256D01*
X120393729Y-141194257D01*
X120295709Y-141340954D01*
X120170954Y-141465709D01*
X120024257Y-141563729D01*
X119861256Y-141631246D01*
X119688215Y-141665666D01*
X119511785Y-141665666D01*
X119338744Y-141631246D01*
X119175743Y-141563729D01*
X119029046Y-141465709D01*
X118904291Y-141340954D01*
X118806271Y-141194257D01*
X118738754Y-141031256D01*
X118704334Y-140858215D01*
X118704334Y-140681785D01*
X118738754Y-140508744D01*
X118806271Y-140345743D01*
X118904291Y-140199046D01*
X119029046Y-140074291D01*
X119175743Y-139976271D01*
X119338744Y-139908754D01*
X119511785Y-139874334D01*
X119688215Y-139874334D01*
X119861256Y-139908754D01*
G37*
G36*
X123732228Y-139934448D02*
G01*
X123877117Y-139994463D01*
X124007515Y-140081592D01*
X124118408Y-140192485D01*
X124205537Y-140322883D01*
X124265552Y-140467772D01*
X124296148Y-140621586D01*
X124296148Y-140778414D01*
X124265552Y-140932228D01*
X124205537Y-141077117D01*
X124118408Y-141207515D01*
X124007515Y-141318408D01*
X123877117Y-141405537D01*
X123732228Y-141465552D01*
X123578414Y-141496148D01*
X123421586Y-141496148D01*
X123267772Y-141465552D01*
X123122883Y-141405537D01*
X122992485Y-141318408D01*
X122881592Y-141207515D01*
X122794463Y-141077117D01*
X122734448Y-140932228D01*
X122703852Y-140778414D01*
X122703852Y-140621586D01*
X122734448Y-140467772D01*
X122794463Y-140322883D01*
X122881592Y-140192485D01*
X122992485Y-140081592D01*
X123122883Y-139994463D01*
X123267772Y-139934448D01*
X123421586Y-139903852D01*
X123578414Y-139903852D01*
X123732228Y-139934448D01*
G37*
G36*
X111269134Y-138948806D02*
G01*
X111285355Y-138959645D01*
X111296194Y-138975866D01*
X111300000Y-138995000D01*
X111300000Y-140405000D01*
X111296194Y-140424134D01*
X111285355Y-140440355D01*
X111269134Y-140451194D01*
X111250000Y-140455000D01*
X109900000Y-140455000D01*
X109880866Y-140451194D01*
X109864645Y-140440355D01*
X109853806Y-140424134D01*
X109850000Y-140405000D01*
X109850000Y-138995000D01*
X109853806Y-138975866D01*
X109864645Y-138959645D01*
X109880866Y-138948806D01*
X109900000Y-138945000D01*
X111250000Y-138945000D01*
X111269134Y-138948806D01*
G37*
G36*
X115093685Y-138957969D02*
G01*
X115102358Y-138961798D01*
X115109925Y-138962901D01*
X115157223Y-138986023D01*
X115194541Y-139002501D01*
X115197996Y-139005956D01*
X115198920Y-139006408D01*
X115268591Y-139076079D01*
X115269042Y-139077002D01*
X115272499Y-139080459D01*
X115288978Y-139117782D01*
X115312098Y-139165073D01*
X115313200Y-139172639D01*
X115317031Y-139181315D01*
X115325000Y-139250000D01*
X115325000Y-140050000D01*
X115317031Y-140118685D01*
X115313199Y-140127361D01*
X115312098Y-140134925D01*
X115288985Y-140182202D01*
X115272499Y-140219541D01*
X115269041Y-140222998D01*
X115268591Y-140223920D01*
X115198920Y-140293591D01*
X115197998Y-140294041D01*
X115194541Y-140297499D01*
X115157207Y-140313983D01*
X115109926Y-140337098D01*
X115102361Y-140338200D01*
X115093685Y-140342031D01*
X115025000Y-140350000D01*
X113775000Y-140350000D01*
X113706315Y-140342031D01*
X113697638Y-140338200D01*
X113690074Y-140337098D01*
X113642787Y-140313981D01*
X113605459Y-140297499D01*
X113602002Y-140294042D01*
X113601079Y-140293591D01*
X113531408Y-140223920D01*
X113530956Y-140222996D01*
X113527501Y-140219541D01*
X113511025Y-140182228D01*
X113487901Y-140134926D01*
X113486798Y-140127357D01*
X113482969Y-140118685D01*
X113475000Y-140050000D01*
X113475000Y-139250000D01*
X113482969Y-139181315D01*
X113486798Y-139172642D01*
X113487901Y-139165074D01*
X113511028Y-139117766D01*
X113527501Y-139080459D01*
X113530955Y-139077004D01*
X113531408Y-139076079D01*
X113601079Y-139006408D01*
X113602004Y-139005955D01*
X113605459Y-139002501D01*
X113642761Y-138986030D01*
X113690073Y-138962901D01*
X113697642Y-138961798D01*
X113706315Y-138957969D01*
X113775000Y-138950000D01*
X115025000Y-138950000D01*
X115093685Y-138957969D01*
G37*
G36*
X101768685Y-138357969D02*
G01*
X101777358Y-138361798D01*
X101784925Y-138362901D01*
X101832223Y-138386023D01*
X101869541Y-138402501D01*
X101872996Y-138405956D01*
X101873920Y-138406408D01*
X101943591Y-138476079D01*
X101944042Y-138477002D01*
X101947499Y-138480459D01*
X101963978Y-138517782D01*
X101987098Y-138565073D01*
X101988200Y-138572639D01*
X101992031Y-138581315D01*
X102000000Y-138650000D01*
X102000000Y-139150000D01*
X101992031Y-139218685D01*
X101988199Y-139227361D01*
X101987098Y-139234925D01*
X101963985Y-139282202D01*
X101947499Y-139319541D01*
X101944041Y-139322998D01*
X101943591Y-139323920D01*
X101873920Y-139393591D01*
X101872998Y-139394041D01*
X101869541Y-139397499D01*
X101832207Y-139413983D01*
X101784926Y-139437098D01*
X101777361Y-139438200D01*
X101768685Y-139442031D01*
X101700000Y-139450000D01*
X100450000Y-139450000D01*
X100381315Y-139442031D01*
X100372638Y-139438200D01*
X100365074Y-139437098D01*
X100317787Y-139413981D01*
X100280459Y-139397499D01*
X100277002Y-139394042D01*
X100276079Y-139393591D01*
X100206408Y-139323920D01*
X100205956Y-139322996D01*
X100202501Y-139319541D01*
X100186025Y-139282228D01*
X100162901Y-139234926D01*
X100161798Y-139227357D01*
X100157969Y-139218685D01*
X100150000Y-139150000D01*
X100150000Y-138650000D01*
X100157969Y-138581315D01*
X100161798Y-138572642D01*
X100162901Y-138565074D01*
X100186028Y-138517766D01*
X100202501Y-138480459D01*
X100205955Y-138477004D01*
X100206408Y-138476079D01*
X100276079Y-138406408D01*
X100277004Y-138405955D01*
X100280459Y-138402501D01*
X100317761Y-138386030D01*
X100365073Y-138362901D01*
X100372642Y-138361798D01*
X100381315Y-138357969D01*
X100450000Y-138350000D01*
X101700000Y-138350000D01*
X101768685Y-138357969D01*
G37*
G36*
X107218685Y-138357969D02*
G01*
X107227358Y-138361798D01*
X107234925Y-138362901D01*
X107282223Y-138386023D01*
X107319541Y-138402501D01*
X107322996Y-138405956D01*
X107323920Y-138406408D01*
X107393591Y-138476079D01*
X107394042Y-138477002D01*
X107397499Y-138480459D01*
X107413978Y-138517782D01*
X107437098Y-138565073D01*
X107438200Y-138572639D01*
X107442031Y-138581315D01*
X107450000Y-138650000D01*
X107450000Y-139150000D01*
X107442031Y-139218685D01*
X107438199Y-139227361D01*
X107437098Y-139234925D01*
X107413985Y-139282202D01*
X107397499Y-139319541D01*
X107394041Y-139322998D01*
X107393591Y-139323920D01*
X107323920Y-139393591D01*
X107322998Y-139394041D01*
X107319541Y-139397499D01*
X107282207Y-139413983D01*
X107234926Y-139437098D01*
X107227361Y-139438200D01*
X107218685Y-139442031D01*
X107150000Y-139450000D01*
X105900000Y-139450000D01*
X105831315Y-139442031D01*
X105822638Y-139438200D01*
X105815074Y-139437098D01*
X105767787Y-139413981D01*
X105730459Y-139397499D01*
X105727002Y-139394042D01*
X105726079Y-139393591D01*
X105656408Y-139323920D01*
X105655956Y-139322996D01*
X105652501Y-139319541D01*
X105636025Y-139282228D01*
X105612901Y-139234926D01*
X105611798Y-139227357D01*
X105607969Y-139218685D01*
X105600000Y-139150000D01*
X105600000Y-138650000D01*
X105607969Y-138581315D01*
X105611798Y-138572642D01*
X105612901Y-138565074D01*
X105636028Y-138517766D01*
X105652501Y-138480459D01*
X105655955Y-138477004D01*
X105656408Y-138476079D01*
X105726079Y-138406408D01*
X105727004Y-138405955D01*
X105730459Y-138402501D01*
X105767761Y-138386030D01*
X105815073Y-138362901D01*
X105822642Y-138361798D01*
X105831315Y-138357969D01*
X105900000Y-138350000D01*
X107150000Y-138350000D01*
X107218685Y-138357969D01*
G37*
G36*
X119861256Y-137368754D02*
G01*
X120024257Y-137436271D01*
X120170954Y-137534291D01*
X120295709Y-137659046D01*
X120393729Y-137805743D01*
X120461246Y-137968744D01*
X120495666Y-138141785D01*
X120495666Y-138318215D01*
X120461246Y-138491256D01*
X120393729Y-138654257D01*
X120295709Y-138800954D01*
X120170954Y-138925709D01*
X120024257Y-139023729D01*
X119861256Y-139091246D01*
X119688215Y-139125666D01*
X119511785Y-139125666D01*
X119338744Y-139091246D01*
X119175743Y-139023729D01*
X119029046Y-138925709D01*
X118904291Y-138800954D01*
X118806271Y-138654257D01*
X118738754Y-138491256D01*
X118704334Y-138318215D01*
X118704334Y-138141785D01*
X118738754Y-137968744D01*
X118806271Y-137805743D01*
X118904291Y-137659046D01*
X119029046Y-137534291D01*
X119175743Y-137436271D01*
X119338744Y-137368754D01*
X119511785Y-137334334D01*
X119688215Y-137334334D01*
X119861256Y-137368754D01*
G37*
G36*
X115093685Y-135857969D02*
G01*
X115102358Y-135861798D01*
X115109925Y-135862901D01*
X115157223Y-135886023D01*
X115194541Y-135902501D01*
X115197996Y-135905956D01*
X115198920Y-135906408D01*
X115268591Y-135976079D01*
X115269042Y-135977002D01*
X115272499Y-135980459D01*
X115288978Y-136017782D01*
X115312098Y-136065073D01*
X115313200Y-136072639D01*
X115317031Y-136081315D01*
X115325000Y-136150000D01*
X115325000Y-136950000D01*
X115317031Y-137018685D01*
X115313199Y-137027361D01*
X115312098Y-137034925D01*
X115288985Y-137082202D01*
X115272499Y-137119541D01*
X115269041Y-137122998D01*
X115268591Y-137123920D01*
X115198920Y-137193591D01*
X115197998Y-137194041D01*
X115194541Y-137197499D01*
X115157207Y-137213983D01*
X115109926Y-137237098D01*
X115102361Y-137238200D01*
X115093685Y-137242031D01*
X115025000Y-137250000D01*
X113775000Y-137250000D01*
X113706315Y-137242031D01*
X113697638Y-137238200D01*
X113690074Y-137237098D01*
X113642787Y-137213981D01*
X113605459Y-137197499D01*
X113602002Y-137194042D01*
X113601079Y-137193591D01*
X113531408Y-137123920D01*
X113530956Y-137122996D01*
X113527501Y-137119541D01*
X113511025Y-137082228D01*
X113487901Y-137034926D01*
X113486798Y-137027357D01*
X113482969Y-137018685D01*
X113475000Y-136950000D01*
X113475000Y-136150000D01*
X113482969Y-136081315D01*
X113486798Y-136072642D01*
X113487901Y-136065074D01*
X113511028Y-136017766D01*
X113527501Y-135980459D01*
X113530955Y-135977004D01*
X113531408Y-135976079D01*
X113601079Y-135906408D01*
X113602004Y-135905955D01*
X113605459Y-135902501D01*
X113642761Y-135886030D01*
X113690073Y-135862901D01*
X113697642Y-135861798D01*
X113706315Y-135857969D01*
X113775000Y-135850000D01*
X115025000Y-135850000D01*
X115093685Y-135857969D01*
G37*
G36*
X155132228Y-135534448D02*
G01*
X155277117Y-135594463D01*
X155407515Y-135681592D01*
X155518408Y-135792485D01*
X155605537Y-135922883D01*
X155665552Y-136067772D01*
X155696148Y-136221586D01*
X155696148Y-136378414D01*
X155665552Y-136532228D01*
X155605537Y-136677117D01*
X155518408Y-136807515D01*
X155407515Y-136918408D01*
X155277117Y-137005537D01*
X155132228Y-137065552D01*
X154978414Y-137096148D01*
X154821586Y-137096148D01*
X154667772Y-137065552D01*
X154522883Y-137005537D01*
X154392485Y-136918408D01*
X154281592Y-136807515D01*
X154194463Y-136677117D01*
X154134448Y-136532228D01*
X154103852Y-136378414D01*
X154103852Y-136221586D01*
X154134448Y-136067772D01*
X154194463Y-135922883D01*
X154281592Y-135792485D01*
X154392485Y-135681592D01*
X154522883Y-135594463D01*
X154667772Y-135534448D01*
X154821586Y-135503852D01*
X154978414Y-135503852D01*
X155132228Y-135534448D01*
G37*
G36*
X149067714Y-135582295D02*
G01*
X149203548Y-135638559D01*
X149325795Y-135720242D01*
X149429758Y-135824205D01*
X149511441Y-135946452D01*
X149567705Y-136082286D01*
X149596389Y-136226487D01*
X149596389Y-136373513D01*
X149567705Y-136517714D01*
X149511441Y-136653548D01*
X149429758Y-136775795D01*
X149325795Y-136879758D01*
X149203548Y-136961441D01*
X149067714Y-137017705D01*
X148923513Y-137046389D01*
X148776487Y-137046389D01*
X148632286Y-137017705D01*
X148496452Y-136961441D01*
X148374205Y-136879758D01*
X148270242Y-136775795D01*
X148188559Y-136653548D01*
X148132295Y-136517714D01*
X148103611Y-136373513D01*
X148103611Y-136226487D01*
X148132295Y-136082286D01*
X148188559Y-135946452D01*
X148270242Y-135824205D01*
X148374205Y-135720242D01*
X148496452Y-135638559D01*
X148632286Y-135582295D01*
X148776487Y-135553611D01*
X148923513Y-135553611D01*
X149067714Y-135582295D01*
G37*
G36*
X151607714Y-135582295D02*
G01*
X151743548Y-135638559D01*
X151865795Y-135720242D01*
X151969758Y-135824205D01*
X152051441Y-135946452D01*
X152107705Y-136082286D01*
X152136389Y-136226487D01*
X152136389Y-136373513D01*
X152107705Y-136517714D01*
X152051441Y-136653548D01*
X151969758Y-136775795D01*
X151865795Y-136879758D01*
X151743548Y-136961441D01*
X151607714Y-137017705D01*
X151463513Y-137046389D01*
X151316487Y-137046389D01*
X151172286Y-137017705D01*
X151036452Y-136961441D01*
X150914205Y-136879758D01*
X150810242Y-136775795D01*
X150728559Y-136653548D01*
X150672295Y-136517714D01*
X150643611Y-136373513D01*
X150643611Y-136226487D01*
X150672295Y-136082286D01*
X150728559Y-135946452D01*
X150810242Y-135824205D01*
X150914205Y-135720242D01*
X151036452Y-135638559D01*
X151172286Y-135582295D01*
X151316487Y-135553611D01*
X151463513Y-135553611D01*
X151607714Y-135582295D01*
G37*
G36*
X158693685Y-135557969D02*
G01*
X158702358Y-135561798D01*
X158709925Y-135562901D01*
X158757223Y-135586023D01*
X158794541Y-135602501D01*
X158797996Y-135605956D01*
X158798920Y-135606408D01*
X158868591Y-135676079D01*
X158869042Y-135677002D01*
X158872499Y-135680459D01*
X158888978Y-135717782D01*
X158912098Y-135765073D01*
X158913200Y-135772639D01*
X158917031Y-135781315D01*
X158925000Y-135850000D01*
X158925000Y-136650000D01*
X158917031Y-136718685D01*
X158913199Y-136727361D01*
X158912098Y-136734925D01*
X158888985Y-136782202D01*
X158872499Y-136819541D01*
X158869041Y-136822998D01*
X158868591Y-136823920D01*
X158798920Y-136893591D01*
X158797998Y-136894041D01*
X158794541Y-136897499D01*
X158757207Y-136913983D01*
X158709926Y-136937098D01*
X158702361Y-136938200D01*
X158693685Y-136942031D01*
X158625000Y-136950000D01*
X157375000Y-136950000D01*
X157306315Y-136942031D01*
X157297638Y-136938200D01*
X157290074Y-136937098D01*
X157242787Y-136913981D01*
X157205459Y-136897499D01*
X157202002Y-136894042D01*
X157201079Y-136893591D01*
X157131408Y-136823920D01*
X157130956Y-136822996D01*
X157127501Y-136819541D01*
X157111025Y-136782228D01*
X157087901Y-136734926D01*
X157086798Y-136727357D01*
X157082969Y-136718685D01*
X157075000Y-136650000D01*
X157075000Y-135850000D01*
X157082969Y-135781315D01*
X157086798Y-135772642D01*
X157087901Y-135765074D01*
X157111028Y-135717766D01*
X157127501Y-135680459D01*
X157130955Y-135677004D01*
X157131408Y-135676079D01*
X157201079Y-135606408D01*
X157202004Y-135605955D01*
X157205459Y-135602501D01*
X157242761Y-135586030D01*
X157290073Y-135562901D01*
X157297642Y-135561798D01*
X157306315Y-135557969D01*
X157375000Y-135550000D01*
X158625000Y-135550000D01*
X158693685Y-135557969D01*
G37*
G36*
X110732228Y-135234448D02*
G01*
X110877117Y-135294463D01*
X111007515Y-135381592D01*
X111118408Y-135492485D01*
X111205537Y-135622883D01*
X111265552Y-135767772D01*
X111296148Y-135921586D01*
X111296148Y-136078414D01*
X111265552Y-136232228D01*
X111205537Y-136377117D01*
X111118408Y-136507515D01*
X111007515Y-136618408D01*
X110877117Y-136705537D01*
X110732228Y-136765552D01*
X110578414Y-136796148D01*
X110421586Y-136796148D01*
X110267772Y-136765552D01*
X110122883Y-136705537D01*
X109992485Y-136618408D01*
X109881592Y-136507515D01*
X109794463Y-136377117D01*
X109734448Y-136232228D01*
X109703852Y-136078414D01*
X109703852Y-135921586D01*
X109734448Y-135767772D01*
X109794463Y-135622883D01*
X109881592Y-135492485D01*
X109992485Y-135381592D01*
X110122883Y-135294463D01*
X110267772Y-135234448D01*
X110421586Y-135203852D01*
X110578414Y-135203852D01*
X110732228Y-135234448D01*
G37*
G36*
X120469134Y-134793806D02*
G01*
X120485355Y-134804645D01*
X120496194Y-134820866D01*
X120500000Y-134840000D01*
X120500000Y-136540000D01*
X120496194Y-136559134D01*
X120485355Y-136575355D01*
X120469134Y-136586194D01*
X120450000Y-136590000D01*
X118750000Y-136590000D01*
X118730866Y-136586194D01*
X118714645Y-136575355D01*
X118703806Y-136559134D01*
X118700000Y-136540000D01*
X118700000Y-134840000D01*
X118703806Y-134820866D01*
X118714645Y-134804645D01*
X118730866Y-134793806D01*
X118750000Y-134790000D01*
X120450000Y-134790000D01*
X120469134Y-134793806D01*
G37*
G36*
X158693685Y-132457969D02*
G01*
X158702358Y-132461798D01*
X158709925Y-132462901D01*
X158757223Y-132486023D01*
X158794541Y-132502501D01*
X158797996Y-132505956D01*
X158798920Y-132506408D01*
X158868591Y-132576079D01*
X158869042Y-132577002D01*
X158872499Y-132580459D01*
X158888978Y-132617782D01*
X158912098Y-132665073D01*
X158913200Y-132672639D01*
X158917031Y-132681315D01*
X158925000Y-132750000D01*
X158925000Y-133550000D01*
X158917031Y-133618685D01*
X158913199Y-133627361D01*
X158912098Y-133634925D01*
X158888985Y-133682202D01*
X158872499Y-133719541D01*
X158869041Y-133722998D01*
X158868591Y-133723920D01*
X158798920Y-133793591D01*
X158797998Y-133794041D01*
X158794541Y-133797499D01*
X158757207Y-133813983D01*
X158709926Y-133837098D01*
X158702361Y-133838200D01*
X158693685Y-133842031D01*
X158625000Y-133850000D01*
X157375000Y-133850000D01*
X157306315Y-133842031D01*
X157297638Y-133838200D01*
X157290074Y-133837098D01*
X157242787Y-133813981D01*
X157205459Y-133797499D01*
X157202002Y-133794042D01*
X157201079Y-133793591D01*
X157131408Y-133723920D01*
X157130956Y-133722996D01*
X157127501Y-133719541D01*
X157111025Y-133682228D01*
X157087901Y-133634926D01*
X157086798Y-133627357D01*
X157082969Y-133618685D01*
X157075000Y-133550000D01*
X157075000Y-132750000D01*
X157082969Y-132681315D01*
X157086798Y-132672642D01*
X157087901Y-132665074D01*
X157111028Y-132617766D01*
X157127501Y-132580459D01*
X157130955Y-132577004D01*
X157131408Y-132576079D01*
X157201079Y-132506408D01*
X157202004Y-132505955D01*
X157205459Y-132502501D01*
X157242761Y-132486030D01*
X157290073Y-132462901D01*
X157297642Y-132461798D01*
X157306315Y-132457969D01*
X157375000Y-132450000D01*
X158625000Y-132450000D01*
X158693685Y-132457969D01*
G37*
G36*
X98632228Y-132134448D02*
G01*
X98777117Y-132194463D01*
X98907515Y-132281592D01*
X99018408Y-132392485D01*
X99105537Y-132522883D01*
X99165552Y-132667772D01*
X99196148Y-132821586D01*
X99196148Y-132978414D01*
X99165552Y-133132228D01*
X99105537Y-133277117D01*
X99018408Y-133407515D01*
X98907515Y-133518408D01*
X98777117Y-133605537D01*
X98632228Y-133665552D01*
X98478414Y-133696148D01*
X98321586Y-133696148D01*
X98167772Y-133665552D01*
X98022883Y-133605537D01*
X97892485Y-133518408D01*
X97781592Y-133407515D01*
X97694463Y-133277117D01*
X97634448Y-133132228D01*
X97603852Y-132978414D01*
X97603852Y-132821586D01*
X97634448Y-132667772D01*
X97694463Y-132522883D01*
X97781592Y-132392485D01*
X97892485Y-132281592D01*
X98022883Y-132194463D01*
X98167772Y-132134448D01*
X98321586Y-132103852D01*
X98478414Y-132103852D01*
X98632228Y-132134448D01*
G37*
G36*
X128072208Y-132684254D02*
G01*
X128173943Y-132742991D01*
X128257009Y-132826057D01*
X128315746Y-132927792D01*
X128346150Y-133041263D01*
X128346150Y-133158737D01*
X128315746Y-133272208D01*
X128257009Y-133373943D01*
X128173943Y-133457009D01*
X128072208Y-133515746D01*
X127958737Y-133546150D01*
X127841263Y-133546150D01*
X127727792Y-133515746D01*
X127626057Y-133457009D01*
X127542991Y-133373943D01*
X127484254Y-133272208D01*
X127453850Y-133158737D01*
X127453850Y-133041263D01*
X127484254Y-132927792D01*
X127542991Y-132826057D01*
X127626057Y-132742991D01*
X127727792Y-132684254D01*
X127841263Y-132653850D01*
X127958737Y-132653850D01*
X128072208Y-132684254D01*
G37*
G36*
X104919134Y-131153806D02*
G01*
X104935355Y-131164645D01*
X104946194Y-131180866D01*
X104950000Y-131200000D01*
X104950000Y-133000000D01*
X104946194Y-133019134D01*
X104935355Y-133035355D01*
X104919134Y-133046194D01*
X104900000Y-133050000D01*
X103100000Y-133050000D01*
X103080866Y-133046194D01*
X103064645Y-133035355D01*
X103053806Y-133019134D01*
X103050000Y-133000000D01*
X103050000Y-131200000D01*
X103053806Y-131180866D01*
X103064645Y-131164645D01*
X103080866Y-131153806D01*
X103100000Y-131150000D01*
X104900000Y-131150000D01*
X104919134Y-131153806D01*
G37*
G36*
X106815770Y-131190907D02*
G01*
X106987827Y-131262175D01*
X107142674Y-131365640D01*
X107274360Y-131497326D01*
X107377825Y-131652173D01*
X107449093Y-131824230D01*
X107485425Y-132006884D01*
X107485425Y-132193116D01*
X107449093Y-132375770D01*
X107377825Y-132547827D01*
X107274360Y-132702674D01*
X107142674Y-132834360D01*
X106987827Y-132937825D01*
X106815770Y-133009093D01*
X106633116Y-133045425D01*
X106446884Y-133045425D01*
X106264230Y-133009093D01*
X106092173Y-132937825D01*
X105937326Y-132834360D01*
X105805640Y-132702674D01*
X105702175Y-132547827D01*
X105630907Y-132375770D01*
X105594575Y-132193116D01*
X105594575Y-132006884D01*
X105630907Y-131824230D01*
X105702175Y-131652173D01*
X105805640Y-131497326D01*
X105937326Y-131365640D01*
X106092173Y-131262175D01*
X106264230Y-131190907D01*
X106446884Y-131154575D01*
X106633116Y-131154575D01*
X106815770Y-131190907D01*
G37*
G36*
X125592228Y-131429448D02*
G01*
X125737117Y-131489463D01*
X125867515Y-131576592D01*
X125978408Y-131687485D01*
X126065537Y-131817883D01*
X126125552Y-131962772D01*
X126156148Y-132116586D01*
X126156148Y-132273414D01*
X126125552Y-132427228D01*
X126065537Y-132572117D01*
X125978408Y-132702515D01*
X125867515Y-132813408D01*
X125737117Y-132900537D01*
X125592228Y-132960552D01*
X125438414Y-132991148D01*
X125281586Y-132991148D01*
X125127772Y-132960552D01*
X124982883Y-132900537D01*
X124852485Y-132813408D01*
X124741592Y-132702515D01*
X124654463Y-132572117D01*
X124594448Y-132427228D01*
X124563852Y-132273414D01*
X124563852Y-132116586D01*
X124594448Y-131962772D01*
X124654463Y-131817883D01*
X124741592Y-131687485D01*
X124852485Y-131576592D01*
X124982883Y-131489463D01*
X125127772Y-131429448D01*
X125281586Y-131398852D01*
X125438414Y-131398852D01*
X125592228Y-131429448D01*
G37*
G36*
X130398685Y-131057969D02*
G01*
X130407358Y-131061798D01*
X130414925Y-131062901D01*
X130462223Y-131086023D01*
X130499541Y-131102501D01*
X130502996Y-131105956D01*
X130503920Y-131106408D01*
X130573591Y-131176079D01*
X130574042Y-131177002D01*
X130577499Y-131180459D01*
X130593978Y-131217782D01*
X130617098Y-131265073D01*
X130618200Y-131272639D01*
X130622031Y-131281315D01*
X130630000Y-131350000D01*
X130630000Y-132450000D01*
X130622031Y-132518685D01*
X130618199Y-132527361D01*
X130617098Y-132534925D01*
X130593985Y-132582202D01*
X130577499Y-132619541D01*
X130574041Y-132622998D01*
X130573591Y-132623920D01*
X130503920Y-132693591D01*
X130502998Y-132694041D01*
X130499541Y-132697499D01*
X130462207Y-132713983D01*
X130414926Y-132737098D01*
X130407361Y-132738200D01*
X130398685Y-132742031D01*
X130330000Y-132750000D01*
X129230000Y-132750000D01*
X129161315Y-132742031D01*
X129152638Y-132738200D01*
X129145074Y-132737098D01*
X129097787Y-132713981D01*
X129060459Y-132697499D01*
X129057002Y-132694042D01*
X129056079Y-132693591D01*
X128986408Y-132623920D01*
X128985956Y-132622996D01*
X128982501Y-132619541D01*
X128966025Y-132582228D01*
X128942901Y-132534926D01*
X128941798Y-132527357D01*
X128937969Y-132518685D01*
X128930000Y-132450000D01*
X128930000Y-131350000D01*
X128937969Y-131281315D01*
X128941798Y-131272642D01*
X128942901Y-131265074D01*
X128966028Y-131217766D01*
X128982501Y-131180459D01*
X128985955Y-131177004D01*
X128986408Y-131176079D01*
X129056079Y-131106408D01*
X129057004Y-131105955D01*
X129060459Y-131102501D01*
X129097761Y-131086030D01*
X129145073Y-131062901D01*
X129152642Y-131061798D01*
X129161315Y-131057969D01*
X129230000Y-131050000D01*
X130330000Y-131050000D01*
X130398685Y-131057969D01*
G37*
G36*
X132566742Y-131086601D02*
G01*
X132720687Y-131150367D01*
X132859234Y-131242941D01*
X132977059Y-131360766D01*
X133069633Y-131499313D01*
X133133399Y-131653258D01*
X133165907Y-131816685D01*
X133165907Y-131983315D01*
X133133399Y-132146742D01*
X133069633Y-132300687D01*
X132977059Y-132439234D01*
X132859234Y-132557059D01*
X132720687Y-132649633D01*
X132566742Y-132713399D01*
X132403315Y-132745907D01*
X132236685Y-132745907D01*
X132073258Y-132713399D01*
X131919313Y-132649633D01*
X131780766Y-132557059D01*
X131662941Y-132439234D01*
X131570367Y-132300687D01*
X131506601Y-132146742D01*
X131474093Y-131983315D01*
X131474093Y-131816685D01*
X131506601Y-131653258D01*
X131570367Y-131499313D01*
X131662941Y-131360766D01*
X131780766Y-131242941D01*
X131919313Y-131150367D01*
X132073258Y-131086601D01*
X132236685Y-131054093D01*
X132403315Y-131054093D01*
X132566742Y-131086601D01*
G37*
G36*
X135106742Y-131086601D02*
G01*
X135260687Y-131150367D01*
X135399234Y-131242941D01*
X135517059Y-131360766D01*
X135609633Y-131499313D01*
X135673399Y-131653258D01*
X135705907Y-131816685D01*
X135705907Y-131983315D01*
X135673399Y-132146742D01*
X135609633Y-132300687D01*
X135517059Y-132439234D01*
X135399234Y-132557059D01*
X135260687Y-132649633D01*
X135106742Y-132713399D01*
X134943315Y-132745907D01*
X134776685Y-132745907D01*
X134613258Y-132713399D01*
X134459313Y-132649633D01*
X134320766Y-132557059D01*
X134202941Y-132439234D01*
X134110367Y-132300687D01*
X134046601Y-132146742D01*
X134014093Y-131983315D01*
X134014093Y-131816685D01*
X134046601Y-131653258D01*
X134110367Y-131499313D01*
X134202941Y-131360766D01*
X134320766Y-131242941D01*
X134459313Y-131150367D01*
X134613258Y-131086601D01*
X134776685Y-131054093D01*
X134943315Y-131054093D01*
X135106742Y-131086601D01*
G37*
G36*
X137646742Y-131086601D02*
G01*
X137800687Y-131150367D01*
X137939234Y-131242941D01*
X138057059Y-131360766D01*
X138149633Y-131499313D01*
X138213399Y-131653258D01*
X138245907Y-131816685D01*
X138245907Y-131983315D01*
X138213399Y-132146742D01*
X138149633Y-132300687D01*
X138057059Y-132439234D01*
X137939234Y-132557059D01*
X137800687Y-132649633D01*
X137646742Y-132713399D01*
X137483315Y-132745907D01*
X137316685Y-132745907D01*
X137153258Y-132713399D01*
X136999313Y-132649633D01*
X136860766Y-132557059D01*
X136742941Y-132439234D01*
X136650367Y-132300687D01*
X136586601Y-132146742D01*
X136554093Y-131983315D01*
X136554093Y-131816685D01*
X136586601Y-131653258D01*
X136650367Y-131499313D01*
X136742941Y-131360766D01*
X136860766Y-131242941D01*
X136999313Y-131150367D01*
X137153258Y-131086601D01*
X137316685Y-131054093D01*
X137483315Y-131054093D01*
X137646742Y-131086601D01*
G37*
G36*
X140186742Y-131086601D02*
G01*
X140340687Y-131150367D01*
X140479234Y-131242941D01*
X140597059Y-131360766D01*
X140689633Y-131499313D01*
X140753399Y-131653258D01*
X140785907Y-131816685D01*
X140785907Y-131983315D01*
X140753399Y-132146742D01*
X140689633Y-132300687D01*
X140597059Y-132439234D01*
X140479234Y-132557059D01*
X140340687Y-132649633D01*
X140186742Y-132713399D01*
X140023315Y-132745907D01*
X139856685Y-132745907D01*
X139693258Y-132713399D01*
X139539313Y-132649633D01*
X139400766Y-132557059D01*
X139282941Y-132439234D01*
X139190367Y-132300687D01*
X139126601Y-132146742D01*
X139094093Y-131983315D01*
X139094093Y-131816685D01*
X139126601Y-131653258D01*
X139190367Y-131499313D01*
X139282941Y-131360766D01*
X139400766Y-131242941D01*
X139539313Y-131150367D01*
X139693258Y-131086601D01*
X139856685Y-131054093D01*
X140023315Y-131054093D01*
X140186742Y-131086601D01*
G37*
G36*
X142726742Y-131086601D02*
G01*
X142880687Y-131150367D01*
X143019234Y-131242941D01*
X143137059Y-131360766D01*
X143229633Y-131499313D01*
X143293399Y-131653258D01*
X143325907Y-131816685D01*
X143325907Y-131983315D01*
X143293399Y-132146742D01*
X143229633Y-132300687D01*
X143137059Y-132439234D01*
X143019234Y-132557059D01*
X142880687Y-132649633D01*
X142726742Y-132713399D01*
X142563315Y-132745907D01*
X142396685Y-132745907D01*
X142233258Y-132713399D01*
X142079313Y-132649633D01*
X141940766Y-132557059D01*
X141822941Y-132439234D01*
X141730367Y-132300687D01*
X141666601Y-132146742D01*
X141634093Y-131983315D01*
X141634093Y-131816685D01*
X141666601Y-131653258D01*
X141730367Y-131499313D01*
X141822941Y-131360766D01*
X141940766Y-131242941D01*
X142079313Y-131150367D01*
X142233258Y-131086601D01*
X142396685Y-131054093D01*
X142563315Y-131054093D01*
X142726742Y-131086601D01*
G37*
G36*
X145266742Y-131086601D02*
G01*
X145420687Y-131150367D01*
X145559234Y-131242941D01*
X145677059Y-131360766D01*
X145769633Y-131499313D01*
X145833399Y-131653258D01*
X145865907Y-131816685D01*
X145865907Y-131983315D01*
X145833399Y-132146742D01*
X145769633Y-132300687D01*
X145677059Y-132439234D01*
X145559234Y-132557059D01*
X145420687Y-132649633D01*
X145266742Y-132713399D01*
X145103315Y-132745907D01*
X144936685Y-132745907D01*
X144773258Y-132713399D01*
X144619313Y-132649633D01*
X144480766Y-132557059D01*
X144362941Y-132439234D01*
X144270367Y-132300687D01*
X144206601Y-132146742D01*
X144174093Y-131983315D01*
X144174093Y-131816685D01*
X144206601Y-131653258D01*
X144270367Y-131499313D01*
X144362941Y-131360766D01*
X144480766Y-131242941D01*
X144619313Y-131150367D01*
X144773258Y-131086601D01*
X144936685Y-131054093D01*
X145103315Y-131054093D01*
X145266742Y-131086601D01*
G37*
G36*
X147806742Y-131086601D02*
G01*
X147960687Y-131150367D01*
X148099234Y-131242941D01*
X148217059Y-131360766D01*
X148309633Y-131499313D01*
X148373399Y-131653258D01*
X148405907Y-131816685D01*
X148405907Y-131983315D01*
X148373399Y-132146742D01*
X148309633Y-132300687D01*
X148217059Y-132439234D01*
X148099234Y-132557059D01*
X147960687Y-132649633D01*
X147806742Y-132713399D01*
X147643315Y-132745907D01*
X147476685Y-132745907D01*
X147313258Y-132713399D01*
X147159313Y-132649633D01*
X147020766Y-132557059D01*
X146902941Y-132439234D01*
X146810367Y-132300687D01*
X146746601Y-132146742D01*
X146714093Y-131983315D01*
X146714093Y-131816685D01*
X146746601Y-131653258D01*
X146810367Y-131499313D01*
X146902941Y-131360766D01*
X147020766Y-131242941D01*
X147159313Y-131150367D01*
X147313258Y-131086601D01*
X147476685Y-131054093D01*
X147643315Y-131054093D01*
X147806742Y-131086601D01*
G37*
G36*
X150346742Y-131086601D02*
G01*
X150500687Y-131150367D01*
X150639234Y-131242941D01*
X150757059Y-131360766D01*
X150849633Y-131499313D01*
X150913399Y-131653258D01*
X150945907Y-131816685D01*
X150945907Y-131983315D01*
X150913399Y-132146742D01*
X150849633Y-132300687D01*
X150757059Y-132439234D01*
X150639234Y-132557059D01*
X150500687Y-132649633D01*
X150346742Y-132713399D01*
X150183315Y-132745907D01*
X150016685Y-132745907D01*
X149853258Y-132713399D01*
X149699313Y-132649633D01*
X149560766Y-132557059D01*
X149442941Y-132439234D01*
X149350367Y-132300687D01*
X149286601Y-132146742D01*
X149254093Y-131983315D01*
X149254093Y-131816685D01*
X149286601Y-131653258D01*
X149350367Y-131499313D01*
X149442941Y-131360766D01*
X149560766Y-131242941D01*
X149699313Y-131150367D01*
X149853258Y-131086601D01*
X150016685Y-131054093D01*
X150183315Y-131054093D01*
X150346742Y-131086601D01*
G37*
G36*
X152886742Y-131086601D02*
G01*
X153040687Y-131150367D01*
X153179234Y-131242941D01*
X153297059Y-131360766D01*
X153389633Y-131499313D01*
X153453399Y-131653258D01*
X153485907Y-131816685D01*
X153485907Y-131983315D01*
X153453399Y-132146742D01*
X153389633Y-132300687D01*
X153297059Y-132439234D01*
X153179234Y-132557059D01*
X153040687Y-132649633D01*
X152886742Y-132713399D01*
X152723315Y-132745907D01*
X152556685Y-132745907D01*
X152393258Y-132713399D01*
X152239313Y-132649633D01*
X152100766Y-132557059D01*
X151982941Y-132439234D01*
X151890367Y-132300687D01*
X151826601Y-132146742D01*
X151794093Y-131983315D01*
X151794093Y-131816685D01*
X151826601Y-131653258D01*
X151890367Y-131499313D01*
X151982941Y-131360766D01*
X152100766Y-131242941D01*
X152239313Y-131150367D01*
X152393258Y-131086601D01*
X152556685Y-131054093D01*
X152723315Y-131054093D01*
X152886742Y-131086601D01*
G37*
G36*
X98572208Y-130584254D02*
G01*
X98673943Y-130642991D01*
X98757009Y-130726057D01*
X98815746Y-130827792D01*
X98846150Y-130941263D01*
X98846150Y-131058737D01*
X98815746Y-131172208D01*
X98757009Y-131273943D01*
X98673943Y-131357009D01*
X98572208Y-131415746D01*
X98458737Y-131446150D01*
X98341263Y-131446150D01*
X98227792Y-131415746D01*
X98126057Y-131357009D01*
X98042991Y-131273943D01*
X97984254Y-131172208D01*
X97953850Y-131058737D01*
X97953850Y-130941263D01*
X97984254Y-130827792D01*
X98042991Y-130726057D01*
X98126057Y-130642991D01*
X98227792Y-130584254D01*
X98341263Y-130553850D01*
X98458737Y-130553850D01*
X98572208Y-130584254D01*
G37*
G36*
X126672208Y-130284254D02*
G01*
X126773943Y-130342991D01*
X126857009Y-130426057D01*
X126915746Y-130527792D01*
X126946150Y-130641263D01*
X126946150Y-130758737D01*
X126915746Y-130872208D01*
X126857009Y-130973943D01*
X126773943Y-131057009D01*
X126672208Y-131115746D01*
X126558737Y-131146150D01*
X126441263Y-131146150D01*
X126327792Y-131115746D01*
X126226057Y-131057009D01*
X126142991Y-130973943D01*
X126084254Y-130872208D01*
X126053850Y-130758737D01*
X126053850Y-130641263D01*
X126084254Y-130527792D01*
X126142991Y-130426057D01*
X126226057Y-130342991D01*
X126327792Y-130284254D01*
X126441263Y-130253850D01*
X126558737Y-130253850D01*
X126672208Y-130284254D01*
G37*
G36*
X158275770Y-129090907D02*
G01*
X158447827Y-129162175D01*
X158602674Y-129265640D01*
X158734360Y-129397326D01*
X158837825Y-129552173D01*
X158909093Y-129724230D01*
X158945425Y-129906884D01*
X158945425Y-130093116D01*
X158909093Y-130275770D01*
X158837825Y-130447827D01*
X158734360Y-130602674D01*
X158602674Y-130734360D01*
X158447827Y-130837825D01*
X158275770Y-130909093D01*
X158093116Y-130945425D01*
X157906884Y-130945425D01*
X157724230Y-130909093D01*
X157552173Y-130837825D01*
X157397326Y-130734360D01*
X157265640Y-130602674D01*
X157162175Y-130447827D01*
X157090907Y-130275770D01*
X157054575Y-130093116D01*
X157054575Y-129906884D01*
X157090907Y-129724230D01*
X157162175Y-129552173D01*
X157265640Y-129397326D01*
X157397326Y-129265640D01*
X157552173Y-129162175D01*
X157724230Y-129090907D01*
X157906884Y-129054575D01*
X158093116Y-129054575D01*
X158275770Y-129090907D01*
G37*
G36*
X110868685Y-129082969D02*
G01*
X110877358Y-129086798D01*
X110884925Y-129087901D01*
X110932223Y-129111023D01*
X110969541Y-129127501D01*
X110972996Y-129130956D01*
X110973920Y-129131408D01*
X111043591Y-129201079D01*
X111044042Y-129202002D01*
X111047499Y-129205459D01*
X111063978Y-129242782D01*
X111087098Y-129290073D01*
X111088200Y-129297639D01*
X111092031Y-129306315D01*
X111100000Y-129375000D01*
X111100000Y-130625000D01*
X111092031Y-130693685D01*
X111088199Y-130702361D01*
X111087098Y-130709925D01*
X111063985Y-130757202D01*
X111047499Y-130794541D01*
X111044041Y-130797998D01*
X111043591Y-130798920D01*
X110973920Y-130868591D01*
X110972998Y-130869041D01*
X110969541Y-130872499D01*
X110932207Y-130888983D01*
X110884926Y-130912098D01*
X110877361Y-130913200D01*
X110868685Y-130917031D01*
X110800000Y-130925000D01*
X110000000Y-130925000D01*
X109931315Y-130917031D01*
X109922638Y-130913200D01*
X109915074Y-130912098D01*
X109867787Y-130888981D01*
X109830459Y-130872499D01*
X109827002Y-130869042D01*
X109826079Y-130868591D01*
X109756408Y-130798920D01*
X109755956Y-130797996D01*
X109752501Y-130794541D01*
X109736025Y-130757228D01*
X109712901Y-130709926D01*
X109711798Y-130702357D01*
X109707969Y-130693685D01*
X109700000Y-130625000D01*
X109700000Y-129375000D01*
X109707969Y-129306315D01*
X109711798Y-129297642D01*
X109712901Y-129290074D01*
X109736028Y-129242766D01*
X109752501Y-129205459D01*
X109755955Y-129202004D01*
X109756408Y-129201079D01*
X109826079Y-129131408D01*
X109827004Y-129130955D01*
X109830459Y-129127501D01*
X109867761Y-129111030D01*
X109915073Y-129087901D01*
X109922642Y-129086798D01*
X109931315Y-129082969D01*
X110000000Y-129075000D01*
X110800000Y-129075000D01*
X110868685Y-129082969D01*
G37*
G36*
X113968685Y-129082969D02*
G01*
X113977358Y-129086798D01*
X113984925Y-129087901D01*
X114032223Y-129111023D01*
X114069541Y-129127501D01*
X114072996Y-129130956D01*
X114073920Y-129131408D01*
X114143591Y-129201079D01*
X114144042Y-129202002D01*
X114147499Y-129205459D01*
X114163978Y-129242782D01*
X114187098Y-129290073D01*
X114188200Y-129297639D01*
X114192031Y-129306315D01*
X114200000Y-129375000D01*
X114200000Y-130625000D01*
X114192031Y-130693685D01*
X114188199Y-130702361D01*
X114187098Y-130709925D01*
X114163985Y-130757202D01*
X114147499Y-130794541D01*
X114144041Y-130797998D01*
X114143591Y-130798920D01*
X114073920Y-130868591D01*
X114072998Y-130869041D01*
X114069541Y-130872499D01*
X114032207Y-130888983D01*
X113984926Y-130912098D01*
X113977361Y-130913200D01*
X113968685Y-130917031D01*
X113900000Y-130925000D01*
X113100000Y-130925000D01*
X113031315Y-130917031D01*
X113022638Y-130913200D01*
X113015074Y-130912098D01*
X112967787Y-130888981D01*
X112930459Y-130872499D01*
X112927002Y-130869042D01*
X112926079Y-130868591D01*
X112856408Y-130798920D01*
X112855956Y-130797996D01*
X112852501Y-130794541D01*
X112836025Y-130757228D01*
X112812901Y-130709926D01*
X112811798Y-130702357D01*
X112807969Y-130693685D01*
X112800000Y-130625000D01*
X112800000Y-129375000D01*
X112807969Y-129306315D01*
X112811798Y-129297642D01*
X112812901Y-129290074D01*
X112836028Y-129242766D01*
X112852501Y-129205459D01*
X112855955Y-129202004D01*
X112856408Y-129201079D01*
X112926079Y-129131408D01*
X112927004Y-129130955D01*
X112930459Y-129127501D01*
X112967761Y-129111030D01*
X113015073Y-129087901D01*
X113022642Y-129086798D01*
X113031315Y-129082969D01*
X113100000Y-129075000D01*
X113900000Y-129075000D01*
X113968685Y-129082969D01*
G37*
G36*
X118117714Y-129182295D02*
G01*
X118253548Y-129238559D01*
X118375795Y-129320242D01*
X118479758Y-129424205D01*
X118561441Y-129546452D01*
X118617705Y-129682286D01*
X118646389Y-129826487D01*
X118646389Y-129973513D01*
X118617705Y-130117714D01*
X118561441Y-130253548D01*
X118479758Y-130375795D01*
X118375795Y-130479758D01*
X118253548Y-130561441D01*
X118117714Y-130617705D01*
X117973513Y-130646389D01*
X117826487Y-130646389D01*
X117682286Y-130617705D01*
X117546452Y-130561441D01*
X117424205Y-130479758D01*
X117320242Y-130375795D01*
X117238559Y-130253548D01*
X117182295Y-130117714D01*
X117153611Y-129973513D01*
X117153611Y-129826487D01*
X117182295Y-129682286D01*
X117238559Y-129546452D01*
X117320242Y-129424205D01*
X117424205Y-129320242D01*
X117546452Y-129238559D01*
X117682286Y-129182295D01*
X117826487Y-129153611D01*
X117973513Y-129153611D01*
X118117714Y-129182295D01*
G37*
G36*
X120657714Y-129182295D02*
G01*
X120793548Y-129238559D01*
X120915795Y-129320242D01*
X121019758Y-129424205D01*
X121101441Y-129546452D01*
X121157705Y-129682286D01*
X121186389Y-129826487D01*
X121186389Y-129973513D01*
X121157705Y-130117714D01*
X121101441Y-130253548D01*
X121019758Y-130375795D01*
X120915795Y-130479758D01*
X120793548Y-130561441D01*
X120657714Y-130617705D01*
X120513513Y-130646389D01*
X120366487Y-130646389D01*
X120222286Y-130617705D01*
X120086452Y-130561441D01*
X119964205Y-130479758D01*
X119860242Y-130375795D01*
X119778559Y-130253548D01*
X119722295Y-130117714D01*
X119693611Y-129973513D01*
X119693611Y-129826487D01*
X119722295Y-129682286D01*
X119778559Y-129546452D01*
X119860242Y-129424205D01*
X119964205Y-129320242D01*
X120086452Y-129238559D01*
X120222286Y-129182295D01*
X120366487Y-129153611D01*
X120513513Y-129153611D01*
X120657714Y-129182295D01*
G37*
G36*
X129372208Y-129084254D02*
G01*
X129473943Y-129142991D01*
X129557009Y-129226057D01*
X129615746Y-129327792D01*
X129646150Y-129441263D01*
X129646150Y-129558737D01*
X129615746Y-129672208D01*
X129557009Y-129773943D01*
X129473943Y-129857009D01*
X129372208Y-129915746D01*
X129258737Y-129946150D01*
X129141263Y-129946150D01*
X129027792Y-129915746D01*
X128926057Y-129857009D01*
X128842991Y-129773943D01*
X128784254Y-129672208D01*
X128753850Y-129558737D01*
X128753850Y-129441263D01*
X128784254Y-129327792D01*
X128842991Y-129226057D01*
X128926057Y-129142991D01*
X129027792Y-129084254D01*
X129141263Y-129053850D01*
X129258737Y-129053850D01*
X129372208Y-129084254D01*
G37*
G36*
X126254134Y-128343806D02*
G01*
X126270355Y-128354645D01*
X126281194Y-128370866D01*
X126285000Y-128390000D01*
X126285000Y-129800000D01*
X126281194Y-129819134D01*
X126270355Y-129835355D01*
X126254134Y-129846194D01*
X126235000Y-129850000D01*
X124885000Y-129850000D01*
X124865866Y-129846194D01*
X124849645Y-129835355D01*
X124838806Y-129819134D01*
X124835000Y-129800000D01*
X124835000Y-128390000D01*
X124838806Y-128370866D01*
X124849645Y-128354645D01*
X124865866Y-128343806D01*
X124885000Y-128340000D01*
X126235000Y-128340000D01*
X126254134Y-128343806D01*
G37*
G36*
X95253334Y-127270080D02*
G01*
X95263408Y-127270080D01*
X95302771Y-127277909D01*
X95406245Y-127294298D01*
X95439529Y-127305112D01*
X95466250Y-127310428D01*
X95503959Y-127326047D01*
X95563676Y-127345451D01*
X95619617Y-127373954D01*
X95657324Y-127389573D01*
X95679975Y-127404708D01*
X95711151Y-127420593D01*
X95795895Y-127482163D01*
X95829285Y-127504474D01*
X95836411Y-127511600D01*
X95845064Y-127517887D01*
X95962112Y-127634935D01*
X95968398Y-127643587D01*
X95975526Y-127650715D01*
X95997839Y-127684109D01*
X96059406Y-127768848D01*
X96075289Y-127800021D01*
X96090427Y-127822676D01*
X96106047Y-127860387D01*
X96134548Y-127916323D01*
X96153949Y-127976032D01*
X96169572Y-128013750D01*
X96174888Y-128040475D01*
X96185701Y-128073754D01*
X96202088Y-128177222D01*
X96209920Y-128216592D01*
X96209920Y-128226665D01*
X96211594Y-128237235D01*
X96211594Y-128402764D01*
X96209920Y-128413333D01*
X96209920Y-128423408D01*
X96202088Y-128462780D01*
X96185701Y-128566245D01*
X96174888Y-128599521D01*
X96169572Y-128626250D01*
X96153947Y-128663970D01*
X96134548Y-128723676D01*
X96106049Y-128779607D01*
X96090427Y-128817324D01*
X96075287Y-128839982D01*
X96059406Y-128871151D01*
X95997847Y-128955877D01*
X95975526Y-128989285D01*
X95968395Y-128996415D01*
X95962112Y-129005064D01*
X95845064Y-129122112D01*
X95836415Y-129128395D01*
X95829285Y-129135526D01*
X95795877Y-129157847D01*
X95711151Y-129219406D01*
X95679982Y-129235287D01*
X95657324Y-129250427D01*
X95619607Y-129266049D01*
X95563676Y-129294548D01*
X95503970Y-129313947D01*
X95466250Y-129329572D01*
X95439521Y-129334888D01*
X95406245Y-129345701D01*
X95302780Y-129362088D01*
X95263408Y-129369920D01*
X95253333Y-129369920D01*
X95242764Y-129371594D01*
X95077236Y-129371594D01*
X95066667Y-129369920D01*
X95056592Y-129369920D01*
X95017220Y-129362088D01*
X94913754Y-129345701D01*
X94880475Y-129334888D01*
X94853750Y-129329572D01*
X94816032Y-129313949D01*
X94756323Y-129294548D01*
X94700387Y-129266047D01*
X94662676Y-129250427D01*
X94640021Y-129235289D01*
X94608848Y-129219406D01*
X94524109Y-129157839D01*
X94490715Y-129135526D01*
X94483587Y-129128398D01*
X94474935Y-129122112D01*
X94357887Y-129005064D01*
X94351600Y-128996411D01*
X94344474Y-128989285D01*
X94322163Y-128955895D01*
X94260593Y-128871151D01*
X94244708Y-128839975D01*
X94229573Y-128817324D01*
X94213954Y-128779617D01*
X94185451Y-128723676D01*
X94166047Y-128663959D01*
X94150428Y-128626250D01*
X94145112Y-128599529D01*
X94134298Y-128566245D01*
X94117909Y-128462771D01*
X94110080Y-128423408D01*
X94110080Y-128413333D01*
X94108406Y-128402764D01*
X94108406Y-128237235D01*
X94110080Y-128226665D01*
X94110080Y-128216592D01*
X94117909Y-128177232D01*
X94134298Y-128073754D01*
X94145113Y-128040467D01*
X94150428Y-128013750D01*
X94166046Y-127976043D01*
X94185451Y-127916323D01*
X94213956Y-127860376D01*
X94229573Y-127822676D01*
X94244706Y-127800027D01*
X94260593Y-127768848D01*
X94322171Y-127684092D01*
X94344474Y-127650715D01*
X94351598Y-127643590D01*
X94357887Y-127634935D01*
X94474935Y-127517887D01*
X94483590Y-127511598D01*
X94490715Y-127504474D01*
X94524092Y-127482171D01*
X94608848Y-127420593D01*
X94640027Y-127404706D01*
X94662676Y-127389573D01*
X94700376Y-127373956D01*
X94756323Y-127345451D01*
X94816043Y-127326046D01*
X94853750Y-127310428D01*
X94880467Y-127305113D01*
X94913754Y-127294298D01*
X95017229Y-127277909D01*
X95056592Y-127270080D01*
X95066666Y-127270080D01*
X95077236Y-127268406D01*
X95242764Y-127268406D01*
X95253334Y-127270080D01*
G37*
G36*
X99235770Y-127410907D02*
G01*
X99407827Y-127482175D01*
X99562674Y-127585640D01*
X99694360Y-127717326D01*
X99797825Y-127872173D01*
X99869093Y-128044230D01*
X99905425Y-128226884D01*
X99905425Y-128413116D01*
X99869093Y-128595770D01*
X99797825Y-128767827D01*
X99694360Y-128922674D01*
X99562674Y-129054360D01*
X99407827Y-129157825D01*
X99235770Y-129229093D01*
X99053116Y-129265425D01*
X98866884Y-129265425D01*
X98684230Y-129229093D01*
X98512173Y-129157825D01*
X98357326Y-129054360D01*
X98225640Y-128922674D01*
X98122175Y-128767827D01*
X98050907Y-128595770D01*
X98014575Y-128413116D01*
X98014575Y-128226884D01*
X98050907Y-128044230D01*
X98122175Y-127872173D01*
X98225640Y-127717326D01*
X98357326Y-127585640D01*
X98512173Y-127482175D01*
X98684230Y-127410907D01*
X98866884Y-127374575D01*
X99053116Y-127374575D01*
X99235770Y-127410907D01*
G37*
G36*
X158919134Y-126513806D02*
G01*
X158935355Y-126524645D01*
X158946194Y-126540866D01*
X158950000Y-126560000D01*
X158950000Y-128360000D01*
X158946194Y-128379134D01*
X158935355Y-128395355D01*
X158919134Y-128406194D01*
X158900000Y-128410000D01*
X157100000Y-128410000D01*
X157080866Y-128406194D01*
X157064645Y-128395355D01*
X157053806Y-128379134D01*
X157050000Y-128360000D01*
X157050000Y-126560000D01*
X157053806Y-126540866D01*
X157064645Y-126524645D01*
X157080866Y-126513806D01*
X157100000Y-126510000D01*
X158900000Y-126510000D01*
X158919134Y-126513806D01*
G37*
G36*
X130972208Y-127484254D02*
G01*
X131073943Y-127542991D01*
X131157009Y-127626057D01*
X131215746Y-127727792D01*
X131246150Y-127841263D01*
X131246150Y-127958737D01*
X131215746Y-128072208D01*
X131157009Y-128173943D01*
X131073943Y-128257009D01*
X130972208Y-128315746D01*
X130858737Y-128346150D01*
X130741263Y-128346150D01*
X130627792Y-128315746D01*
X130526057Y-128257009D01*
X130442991Y-128173943D01*
X130384254Y-128072208D01*
X130353850Y-127958737D01*
X130353850Y-127841263D01*
X130384254Y-127727792D01*
X130442991Y-127626057D01*
X130526057Y-127542991D01*
X130627792Y-127484254D01*
X130741263Y-127453850D01*
X130858737Y-127453850D01*
X130972208Y-127484254D01*
G37*
G36*
X124072208Y-127084254D02*
G01*
X124173943Y-127142991D01*
X124257009Y-127226057D01*
X124315746Y-127327792D01*
X124346150Y-127441263D01*
X124346150Y-127558737D01*
X124315746Y-127672208D01*
X124257009Y-127773943D01*
X124173943Y-127857009D01*
X124072208Y-127915746D01*
X123958737Y-127946150D01*
X123841263Y-127946150D01*
X123727792Y-127915746D01*
X123626057Y-127857009D01*
X123542991Y-127773943D01*
X123484254Y-127672208D01*
X123453850Y-127558737D01*
X123453850Y-127441263D01*
X123484254Y-127327792D01*
X123542991Y-127226057D01*
X123626057Y-127142991D01*
X123727792Y-127084254D01*
X123841263Y-127053850D01*
X123958737Y-127053850D01*
X124072208Y-127084254D01*
G37*
G36*
X126254134Y-126343806D02*
G01*
X126270355Y-126354645D01*
X126281194Y-126370866D01*
X126285000Y-126390000D01*
X126285000Y-127800000D01*
X126281194Y-127819134D01*
X126270355Y-127835355D01*
X126254134Y-127846194D01*
X126235000Y-127850000D01*
X124885000Y-127850000D01*
X124865866Y-127846194D01*
X124849645Y-127835355D01*
X124838806Y-127819134D01*
X124835000Y-127800000D01*
X124835000Y-126390000D01*
X124838806Y-126370866D01*
X124849645Y-126354645D01*
X124865866Y-126343806D01*
X124885000Y-126340000D01*
X126235000Y-126340000D01*
X126254134Y-126343806D01*
G37*
G36*
X109972208Y-126384254D02*
G01*
X110073943Y-126442991D01*
X110157009Y-126526057D01*
X110215746Y-126627792D01*
X110246150Y-126741263D01*
X110246150Y-126858737D01*
X110215746Y-126972208D01*
X110157009Y-127073943D01*
X110073943Y-127157009D01*
X109972208Y-127215746D01*
X109858737Y-127246150D01*
X109741263Y-127246150D01*
X109627792Y-127215746D01*
X109526057Y-127157009D01*
X109442991Y-127073943D01*
X109384254Y-126972208D01*
X109353850Y-126858737D01*
X109353850Y-126741263D01*
X109384254Y-126627792D01*
X109442991Y-126526057D01*
X109526057Y-126442991D01*
X109627792Y-126384254D01*
X109741263Y-126353850D01*
X109858737Y-126353850D01*
X109972208Y-126384254D01*
G37*
G36*
X100059134Y-126303806D02*
G01*
X100075355Y-126314645D01*
X100086194Y-126330866D01*
X100090000Y-126350000D01*
X100090000Y-127150000D01*
X100086194Y-127169134D01*
X100075355Y-127185355D01*
X100059134Y-127196194D01*
X100040000Y-127200000D01*
X98440000Y-127200000D01*
X98420866Y-127196194D01*
X98404645Y-127185355D01*
X98393806Y-127169134D01*
X98390000Y-127150000D01*
X98390000Y-126350000D01*
X98393806Y-126330866D01*
X98404645Y-126314645D01*
X98420866Y-126303806D01*
X98440000Y-126300000D01*
X100040000Y-126300000D01*
X100059134Y-126303806D01*
G37*
G36*
X105572208Y-125984254D02*
G01*
X105673943Y-126042991D01*
X105757009Y-126126057D01*
X105815746Y-126227792D01*
X105846150Y-126341263D01*
X105846150Y-126458737D01*
X105815746Y-126572208D01*
X105757009Y-126673943D01*
X105673943Y-126757009D01*
X105572208Y-126815746D01*
X105458737Y-126846150D01*
X105341263Y-126846150D01*
X105227792Y-126815746D01*
X105126057Y-126757009D01*
X105042991Y-126673943D01*
X104984254Y-126572208D01*
X104953850Y-126458737D01*
X104953850Y-126341263D01*
X104984254Y-126227792D01*
X105042991Y-126126057D01*
X105126057Y-126042991D01*
X105227792Y-125984254D01*
X105341263Y-125953850D01*
X105458737Y-125953850D01*
X105572208Y-125984254D01*
G37*
G36*
X124072208Y-125884254D02*
G01*
X124173943Y-125942991D01*
X124257009Y-126026057D01*
X124315746Y-126127792D01*
X124346150Y-126241263D01*
X124346150Y-126358737D01*
X124315746Y-126472208D01*
X124257009Y-126573943D01*
X124173943Y-126657009D01*
X124072208Y-126715746D01*
X123958737Y-126746150D01*
X123841263Y-126746150D01*
X123727792Y-126715746D01*
X123626057Y-126657009D01*
X123542991Y-126573943D01*
X123484254Y-126472208D01*
X123453850Y-126358737D01*
X123453850Y-126241263D01*
X123484254Y-126127792D01*
X123542991Y-126026057D01*
X123626057Y-125942991D01*
X123727792Y-125884254D01*
X123841263Y-125853850D01*
X123958737Y-125853850D01*
X124072208Y-125884254D01*
G37*
G36*
X110318685Y-124757969D02*
G01*
X110327358Y-124761798D01*
X110334925Y-124762901D01*
X110382223Y-124786023D01*
X110419541Y-124802501D01*
X110422996Y-124805956D01*
X110423920Y-124806408D01*
X110493591Y-124876079D01*
X110494042Y-124877002D01*
X110497499Y-124880459D01*
X110513978Y-124917782D01*
X110537098Y-124965073D01*
X110538200Y-124972639D01*
X110542031Y-124981315D01*
X110550000Y-125050000D01*
X110550000Y-125750000D01*
X110542031Y-125818685D01*
X110538199Y-125827361D01*
X110537098Y-125834925D01*
X110513985Y-125882202D01*
X110497499Y-125919541D01*
X110494041Y-125922998D01*
X110493591Y-125923920D01*
X110423920Y-125993591D01*
X110422998Y-125994041D01*
X110419541Y-125997499D01*
X110382207Y-126013983D01*
X110334926Y-126037098D01*
X110327361Y-126038200D01*
X110318685Y-126042031D01*
X110250000Y-126050000D01*
X109350000Y-126050000D01*
X109281315Y-126042031D01*
X109272638Y-126038200D01*
X109265074Y-126037098D01*
X109217787Y-126013981D01*
X109180459Y-125997499D01*
X109177002Y-125994042D01*
X109176079Y-125993591D01*
X109106408Y-125923920D01*
X109105956Y-125922996D01*
X109102501Y-125919541D01*
X109086025Y-125882228D01*
X109062901Y-125834926D01*
X109061798Y-125827357D01*
X109057969Y-125818685D01*
X109050000Y-125750000D01*
X109050000Y-125050000D01*
X109057969Y-124981315D01*
X109061798Y-124972642D01*
X109062901Y-124965074D01*
X109086028Y-124917766D01*
X109102501Y-124880459D01*
X109105955Y-124877004D01*
X109106408Y-124876079D01*
X109176079Y-124806408D01*
X109177004Y-124805955D01*
X109180459Y-124802501D01*
X109217761Y-124786030D01*
X109265073Y-124762901D01*
X109272642Y-124761798D01*
X109281315Y-124757969D01*
X109350000Y-124750000D01*
X110250000Y-124750000D01*
X110318685Y-124757969D01*
G37*
G36*
X100059134Y-125093806D02*
G01*
X100075355Y-125104645D01*
X100086194Y-125120866D01*
X100090000Y-125140000D01*
X100090000Y-125900000D01*
X100086194Y-125919134D01*
X100075355Y-125935355D01*
X100059134Y-125946194D01*
X100040000Y-125950000D01*
X98440000Y-125950000D01*
X98420866Y-125946194D01*
X98404645Y-125935355D01*
X98393806Y-125919134D01*
X98390000Y-125900000D01*
X98390000Y-125140000D01*
X98393806Y-125120866D01*
X98404645Y-125104645D01*
X98420866Y-125093806D01*
X98440000Y-125090000D01*
X100040000Y-125090000D01*
X100059134Y-125093806D01*
G37*
G36*
X108272208Y-125084254D02*
G01*
X108373943Y-125142991D01*
X108457009Y-125226057D01*
X108515746Y-125327792D01*
X108546150Y-125441263D01*
X108546150Y-125558737D01*
X108515746Y-125672208D01*
X108457009Y-125773943D01*
X108373943Y-125857009D01*
X108272208Y-125915746D01*
X108158737Y-125946150D01*
X108041263Y-125946150D01*
X107927792Y-125915746D01*
X107826057Y-125857009D01*
X107742991Y-125773943D01*
X107684254Y-125672208D01*
X107653850Y-125558737D01*
X107653850Y-125441263D01*
X107684254Y-125327792D01*
X107742991Y-125226057D01*
X107826057Y-125142991D01*
X107927792Y-125084254D01*
X108041263Y-125053850D01*
X108158737Y-125053850D01*
X108272208Y-125084254D01*
G37*
G36*
X111672208Y-125084254D02*
G01*
X111773943Y-125142991D01*
X111857009Y-125226057D01*
X111915746Y-125327792D01*
X111946150Y-125441263D01*
X111946150Y-125558737D01*
X111915746Y-125672208D01*
X111857009Y-125773943D01*
X111773943Y-125857009D01*
X111672208Y-125915746D01*
X111558737Y-125946150D01*
X111441263Y-125946150D01*
X111327792Y-125915746D01*
X111226057Y-125857009D01*
X111142991Y-125773943D01*
X111084254Y-125672208D01*
X111053850Y-125558737D01*
X111053850Y-125441263D01*
X111084254Y-125327792D01*
X111142991Y-125226057D01*
X111226057Y-125142991D01*
X111327792Y-125084254D01*
X111441263Y-125053850D01*
X111558737Y-125053850D01*
X111672208Y-125084254D01*
G37*
G36*
X103945634Y-124005306D02*
G01*
X103961855Y-124016145D01*
X103972694Y-124032366D01*
X103976500Y-124051500D01*
X103976500Y-125428500D01*
X103972694Y-125447634D01*
X103961855Y-125463855D01*
X103945634Y-125474694D01*
X103926500Y-125478500D01*
X102793500Y-125478500D01*
X102774366Y-125474694D01*
X102758145Y-125463855D01*
X102747306Y-125447634D01*
X102743500Y-125428500D01*
X102743500Y-124051500D01*
X102747306Y-124032366D01*
X102758145Y-124016145D01*
X102774366Y-124005306D01*
X102793500Y-124001500D01*
X103926500Y-124001500D01*
X103945634Y-124005306D01*
G37*
G36*
X105945634Y-124005306D02*
G01*
X105961855Y-124016145D01*
X105972694Y-124032366D01*
X105976500Y-124051500D01*
X105976500Y-125428500D01*
X105972694Y-125447634D01*
X105961855Y-125463855D01*
X105945634Y-125474694D01*
X105926500Y-125478500D01*
X104793500Y-125478500D01*
X104774366Y-125474694D01*
X104758145Y-125463855D01*
X104747306Y-125447634D01*
X104743500Y-125428500D01*
X104743500Y-124051500D01*
X104747306Y-124032366D01*
X104758145Y-124016145D01*
X104774366Y-124005306D01*
X104793500Y-124001500D01*
X105926500Y-124001500D01*
X105945634Y-124005306D01*
G37*
G36*
X107072208Y-124284254D02*
G01*
X107173943Y-124342991D01*
X107257009Y-124426057D01*
X107315746Y-124527792D01*
X107346150Y-124641263D01*
X107346150Y-124758737D01*
X107315746Y-124872208D01*
X107257009Y-124973943D01*
X107173943Y-125057009D01*
X107072208Y-125115746D01*
X106958737Y-125146150D01*
X106841263Y-125146150D01*
X106727792Y-125115746D01*
X106626057Y-125057009D01*
X106542991Y-124973943D01*
X106484254Y-124872208D01*
X106453850Y-124758737D01*
X106453850Y-124641263D01*
X106484254Y-124527792D01*
X106542991Y-124426057D01*
X106626057Y-124342991D01*
X106727792Y-124284254D01*
X106841263Y-124253850D01*
X106958737Y-124253850D01*
X107072208Y-124284254D01*
G37*
G36*
X130026742Y-123466601D02*
G01*
X130180687Y-123530367D01*
X130319234Y-123622941D01*
X130437059Y-123740766D01*
X130529633Y-123879313D01*
X130593399Y-124033258D01*
X130625907Y-124196685D01*
X130625907Y-124363315D01*
X130593399Y-124526742D01*
X130529633Y-124680687D01*
X130437059Y-124819234D01*
X130319234Y-124937059D01*
X130180687Y-125029633D01*
X130026742Y-125093399D01*
X129863315Y-125125907D01*
X129696685Y-125125907D01*
X129533258Y-125093399D01*
X129379313Y-125029633D01*
X129240766Y-124937059D01*
X129122941Y-124819234D01*
X129030367Y-124680687D01*
X128966601Y-124526742D01*
X128934093Y-124363315D01*
X128934093Y-124196685D01*
X128966601Y-124033258D01*
X129030367Y-123879313D01*
X129122941Y-123740766D01*
X129240766Y-123622941D01*
X129379313Y-123530367D01*
X129533258Y-123466601D01*
X129696685Y-123434093D01*
X129863315Y-123434093D01*
X130026742Y-123466601D01*
G37*
G36*
X132566742Y-123466601D02*
G01*
X132720687Y-123530367D01*
X132859234Y-123622941D01*
X132977059Y-123740766D01*
X133069633Y-123879313D01*
X133133399Y-124033258D01*
X133165907Y-124196685D01*
X133165907Y-124363315D01*
X133133399Y-124526742D01*
X133069633Y-124680687D01*
X132977059Y-124819234D01*
X132859234Y-124937059D01*
X132720687Y-125029633D01*
X132566742Y-125093399D01*
X132403315Y-125125907D01*
X132236685Y-125125907D01*
X132073258Y-125093399D01*
X131919313Y-125029633D01*
X131780766Y-124937059D01*
X131662941Y-124819234D01*
X131570367Y-124680687D01*
X131506601Y-124526742D01*
X131474093Y-124363315D01*
X131474093Y-124196685D01*
X131506601Y-124033258D01*
X131570367Y-123879313D01*
X131662941Y-123740766D01*
X131780766Y-123622941D01*
X131919313Y-123530367D01*
X132073258Y-123466601D01*
X132236685Y-123434093D01*
X132403315Y-123434093D01*
X132566742Y-123466601D01*
G37*
G36*
X135106742Y-123466601D02*
G01*
X135260687Y-123530367D01*
X135399234Y-123622941D01*
X135517059Y-123740766D01*
X135609633Y-123879313D01*
X135673399Y-124033258D01*
X135705907Y-124196685D01*
X135705907Y-124363315D01*
X135673399Y-124526742D01*
X135609633Y-124680687D01*
X135517059Y-124819234D01*
X135399234Y-124937059D01*
X135260687Y-125029633D01*
X135106742Y-125093399D01*
X134943315Y-125125907D01*
X134776685Y-125125907D01*
X134613258Y-125093399D01*
X134459313Y-125029633D01*
X134320766Y-124937059D01*
X134202941Y-124819234D01*
X134110367Y-124680687D01*
X134046601Y-124526742D01*
X134014093Y-124363315D01*
X134014093Y-124196685D01*
X134046601Y-124033258D01*
X134110367Y-123879313D01*
X134202941Y-123740766D01*
X134320766Y-123622941D01*
X134459313Y-123530367D01*
X134613258Y-123466601D01*
X134776685Y-123434093D01*
X134943315Y-123434093D01*
X135106742Y-123466601D01*
G37*
G36*
X137646742Y-123466601D02*
G01*
X137800687Y-123530367D01*
X137939234Y-123622941D01*
X138057059Y-123740766D01*
X138149633Y-123879313D01*
X138213399Y-124033258D01*
X138245907Y-124196685D01*
X138245907Y-124363315D01*
X138213399Y-124526742D01*
X138149633Y-124680687D01*
X138057059Y-124819234D01*
X137939234Y-124937059D01*
X137800687Y-125029633D01*
X137646742Y-125093399D01*
X137483315Y-125125907D01*
X137316685Y-125125907D01*
X137153258Y-125093399D01*
X136999313Y-125029633D01*
X136860766Y-124937059D01*
X136742941Y-124819234D01*
X136650367Y-124680687D01*
X136586601Y-124526742D01*
X136554093Y-124363315D01*
X136554093Y-124196685D01*
X136586601Y-124033258D01*
X136650367Y-123879313D01*
X136742941Y-123740766D01*
X136860766Y-123622941D01*
X136999313Y-123530367D01*
X137153258Y-123466601D01*
X137316685Y-123434093D01*
X137483315Y-123434093D01*
X137646742Y-123466601D01*
G37*
G36*
X140186742Y-123466601D02*
G01*
X140340687Y-123530367D01*
X140479234Y-123622941D01*
X140597059Y-123740766D01*
X140689633Y-123879313D01*
X140753399Y-124033258D01*
X140785907Y-124196685D01*
X140785907Y-124363315D01*
X140753399Y-124526742D01*
X140689633Y-124680687D01*
X140597059Y-124819234D01*
X140479234Y-124937059D01*
X140340687Y-125029633D01*
X140186742Y-125093399D01*
X140023315Y-125125907D01*
X139856685Y-125125907D01*
X139693258Y-125093399D01*
X139539313Y-125029633D01*
X139400766Y-124937059D01*
X139282941Y-124819234D01*
X139190367Y-124680687D01*
X139126601Y-124526742D01*
X139094093Y-124363315D01*
X139094093Y-124196685D01*
X139126601Y-124033258D01*
X139190367Y-123879313D01*
X139282941Y-123740766D01*
X139400766Y-123622941D01*
X139539313Y-123530367D01*
X139693258Y-123466601D01*
X139856685Y-123434093D01*
X140023315Y-123434093D01*
X140186742Y-123466601D01*
G37*
G36*
X142726742Y-123466601D02*
G01*
X142880687Y-123530367D01*
X143019234Y-123622941D01*
X143137059Y-123740766D01*
X143229633Y-123879313D01*
X143293399Y-124033258D01*
X143325907Y-124196685D01*
X143325907Y-124363315D01*
X143293399Y-124526742D01*
X143229633Y-124680687D01*
X143137059Y-124819234D01*
X143019234Y-124937059D01*
X142880687Y-125029633D01*
X142726742Y-125093399D01*
X142563315Y-125125907D01*
X142396685Y-125125907D01*
X142233258Y-125093399D01*
X142079313Y-125029633D01*
X141940766Y-124937059D01*
X141822941Y-124819234D01*
X141730367Y-124680687D01*
X141666601Y-124526742D01*
X141634093Y-124363315D01*
X141634093Y-124196685D01*
X141666601Y-124033258D01*
X141730367Y-123879313D01*
X141822941Y-123740766D01*
X141940766Y-123622941D01*
X142079313Y-123530367D01*
X142233258Y-123466601D01*
X142396685Y-123434093D01*
X142563315Y-123434093D01*
X142726742Y-123466601D01*
G37*
G36*
X145266742Y-123466601D02*
G01*
X145420687Y-123530367D01*
X145559234Y-123622941D01*
X145677059Y-123740766D01*
X145769633Y-123879313D01*
X145833399Y-124033258D01*
X145865907Y-124196685D01*
X145865907Y-124363315D01*
X145833399Y-124526742D01*
X145769633Y-124680687D01*
X145677059Y-124819234D01*
X145559234Y-124937059D01*
X145420687Y-125029633D01*
X145266742Y-125093399D01*
X145103315Y-125125907D01*
X144936685Y-125125907D01*
X144773258Y-125093399D01*
X144619313Y-125029633D01*
X144480766Y-124937059D01*
X144362941Y-124819234D01*
X144270367Y-124680687D01*
X144206601Y-124526742D01*
X144174093Y-124363315D01*
X144174093Y-124196685D01*
X144206601Y-124033258D01*
X144270367Y-123879313D01*
X144362941Y-123740766D01*
X144480766Y-123622941D01*
X144619313Y-123530367D01*
X144773258Y-123466601D01*
X144936685Y-123434093D01*
X145103315Y-123434093D01*
X145266742Y-123466601D01*
G37*
G36*
X147806742Y-123466601D02*
G01*
X147960687Y-123530367D01*
X148099234Y-123622941D01*
X148217059Y-123740766D01*
X148309633Y-123879313D01*
X148373399Y-124033258D01*
X148405907Y-124196685D01*
X148405907Y-124363315D01*
X148373399Y-124526742D01*
X148309633Y-124680687D01*
X148217059Y-124819234D01*
X148099234Y-124937059D01*
X147960687Y-125029633D01*
X147806742Y-125093399D01*
X147643315Y-125125907D01*
X147476685Y-125125907D01*
X147313258Y-125093399D01*
X147159313Y-125029633D01*
X147020766Y-124937059D01*
X146902941Y-124819234D01*
X146810367Y-124680687D01*
X146746601Y-124526742D01*
X146714093Y-124363315D01*
X146714093Y-124196685D01*
X146746601Y-124033258D01*
X146810367Y-123879313D01*
X146902941Y-123740766D01*
X147020766Y-123622941D01*
X147159313Y-123530367D01*
X147313258Y-123466601D01*
X147476685Y-123434093D01*
X147643315Y-123434093D01*
X147806742Y-123466601D01*
G37*
G36*
X150346742Y-123466601D02*
G01*
X150500687Y-123530367D01*
X150639234Y-123622941D01*
X150757059Y-123740766D01*
X150849633Y-123879313D01*
X150913399Y-124033258D01*
X150945907Y-124196685D01*
X150945907Y-124363315D01*
X150913399Y-124526742D01*
X150849633Y-124680687D01*
X150757059Y-124819234D01*
X150639234Y-124937059D01*
X150500687Y-125029633D01*
X150346742Y-125093399D01*
X150183315Y-125125907D01*
X150016685Y-125125907D01*
X149853258Y-125093399D01*
X149699313Y-125029633D01*
X149560766Y-124937059D01*
X149442941Y-124819234D01*
X149350367Y-124680687D01*
X149286601Y-124526742D01*
X149254093Y-124363315D01*
X149254093Y-124196685D01*
X149286601Y-124033258D01*
X149350367Y-123879313D01*
X149442941Y-123740766D01*
X149560766Y-123622941D01*
X149699313Y-123530367D01*
X149853258Y-123466601D01*
X150016685Y-123434093D01*
X150183315Y-123434093D01*
X150346742Y-123466601D01*
G37*
G36*
X152886742Y-123466601D02*
G01*
X153040687Y-123530367D01*
X153179234Y-123622941D01*
X153297059Y-123740766D01*
X153389633Y-123879313D01*
X153453399Y-124033258D01*
X153485907Y-124196685D01*
X153485907Y-124363315D01*
X153453399Y-124526742D01*
X153389633Y-124680687D01*
X153297059Y-124819234D01*
X153179234Y-124937059D01*
X153040687Y-125029633D01*
X152886742Y-125093399D01*
X152723315Y-125125907D01*
X152556685Y-125125907D01*
X152393258Y-125093399D01*
X152239313Y-125029633D01*
X152100766Y-124937059D01*
X151982941Y-124819234D01*
X151890367Y-124680687D01*
X151826601Y-124526742D01*
X151794093Y-124363315D01*
X151794093Y-124196685D01*
X151826601Y-124033258D01*
X151890367Y-123879313D01*
X151982941Y-123740766D01*
X152100766Y-123622941D01*
X152239313Y-123530367D01*
X152393258Y-123466601D01*
X152556685Y-123434093D01*
X152723315Y-123434093D01*
X152886742Y-123466601D01*
G37*
G36*
X100059134Y-124103806D02*
G01*
X100075355Y-124114645D01*
X100086194Y-124130866D01*
X100090000Y-124150000D01*
X100090000Y-124850000D01*
X100086194Y-124869134D01*
X100075355Y-124885355D01*
X100059134Y-124896194D01*
X100040000Y-124900000D01*
X98440000Y-124900000D01*
X98420866Y-124896194D01*
X98404645Y-124885355D01*
X98393806Y-124869134D01*
X98390000Y-124850000D01*
X98390000Y-124150000D01*
X98393806Y-124130866D01*
X98404645Y-124114645D01*
X98420866Y-124103806D01*
X98440000Y-124100000D01*
X100040000Y-124100000D01*
X100059134Y-124103806D01*
G37*
G36*
X125592228Y-123229448D02*
G01*
X125737117Y-123289463D01*
X125867515Y-123376592D01*
X125978408Y-123487485D01*
X126065537Y-123617883D01*
X126125552Y-123762772D01*
X126156148Y-123916586D01*
X126156148Y-124073414D01*
X126125552Y-124227228D01*
X126065537Y-124372117D01*
X125978408Y-124502515D01*
X125867515Y-124613408D01*
X125737117Y-124700537D01*
X125592228Y-124760552D01*
X125438414Y-124791148D01*
X125281586Y-124791148D01*
X125127772Y-124760552D01*
X124982883Y-124700537D01*
X124852485Y-124613408D01*
X124741592Y-124502515D01*
X124654463Y-124372117D01*
X124594448Y-124227228D01*
X124563852Y-124073414D01*
X124563852Y-123916586D01*
X124594448Y-123762772D01*
X124654463Y-123617883D01*
X124741592Y-123487485D01*
X124852485Y-123376592D01*
X124982883Y-123289463D01*
X125127772Y-123229448D01*
X125281586Y-123198852D01*
X125438414Y-123198852D01*
X125592228Y-123229448D01*
G37*
G36*
X123572208Y-123584254D02*
G01*
X123673943Y-123642991D01*
X123757009Y-123726057D01*
X123815746Y-123827792D01*
X123846150Y-123941263D01*
X123846150Y-124058737D01*
X123815746Y-124172208D01*
X123757009Y-124273943D01*
X123673943Y-124357009D01*
X123572208Y-124415746D01*
X123458737Y-124446150D01*
X123341263Y-124446150D01*
X123227792Y-124415746D01*
X123126057Y-124357009D01*
X123042991Y-124273943D01*
X122984254Y-124172208D01*
X122953850Y-124058737D01*
X122953850Y-123941263D01*
X122984254Y-123827792D01*
X123042991Y-123726057D01*
X123126057Y-123642991D01*
X123227792Y-123584254D01*
X123341263Y-123553850D01*
X123458737Y-123553850D01*
X123572208Y-123584254D01*
G37*
G36*
X110318685Y-122757969D02*
G01*
X110327358Y-122761798D01*
X110334925Y-122762901D01*
X110382223Y-122786023D01*
X110419541Y-122802501D01*
X110422996Y-122805956D01*
X110423920Y-122806408D01*
X110493591Y-122876079D01*
X110494042Y-122877002D01*
X110497499Y-122880459D01*
X110513978Y-122917782D01*
X110537098Y-122965073D01*
X110538200Y-122972639D01*
X110542031Y-122981315D01*
X110550000Y-123050000D01*
X110550000Y-123750000D01*
X110542031Y-123818685D01*
X110538199Y-123827361D01*
X110537098Y-123834925D01*
X110513985Y-123882202D01*
X110497499Y-123919541D01*
X110494041Y-123922998D01*
X110493591Y-123923920D01*
X110423920Y-123993591D01*
X110422998Y-123994041D01*
X110419541Y-123997499D01*
X110382207Y-124013983D01*
X110334926Y-124037098D01*
X110327361Y-124038200D01*
X110318685Y-124042031D01*
X110250000Y-124050000D01*
X109350000Y-124050000D01*
X109281315Y-124042031D01*
X109272638Y-124038200D01*
X109265074Y-124037098D01*
X109217787Y-124013981D01*
X109180459Y-123997499D01*
X109177002Y-123994042D01*
X109176079Y-123993591D01*
X109106408Y-123923920D01*
X109105956Y-123922996D01*
X109102501Y-123919541D01*
X109086025Y-123882228D01*
X109062901Y-123834926D01*
X109061798Y-123827357D01*
X109057969Y-123818685D01*
X109050000Y-123750000D01*
X109050000Y-123050000D01*
X109057969Y-122981315D01*
X109061798Y-122972642D01*
X109062901Y-122965074D01*
X109086028Y-122917766D01*
X109102501Y-122880459D01*
X109105955Y-122877004D01*
X109106408Y-122876079D01*
X109176079Y-122806408D01*
X109177004Y-122805955D01*
X109180459Y-122802501D01*
X109217761Y-122786030D01*
X109265073Y-122762901D01*
X109272642Y-122761798D01*
X109281315Y-122757969D01*
X109350000Y-122750000D01*
X110250000Y-122750000D01*
X110318685Y-122757969D01*
G37*
G36*
X100059134Y-123103806D02*
G01*
X100075355Y-123114645D01*
X100086194Y-123130866D01*
X100090000Y-123150000D01*
X100090000Y-123850000D01*
X100086194Y-123869134D01*
X100075355Y-123885355D01*
X100059134Y-123896194D01*
X100040000Y-123900000D01*
X98440000Y-123900000D01*
X98420866Y-123896194D01*
X98404645Y-123885355D01*
X98393806Y-123869134D01*
X98390000Y-123850000D01*
X98390000Y-123150000D01*
X98393806Y-123130866D01*
X98404645Y-123114645D01*
X98420866Y-123103806D01*
X98440000Y-123100000D01*
X100040000Y-123100000D01*
X100059134Y-123103806D01*
G37*
G36*
X115232228Y-122034448D02*
G01*
X115377117Y-122094463D01*
X115507515Y-122181592D01*
X115618408Y-122292485D01*
X115705537Y-122422883D01*
X115765552Y-122567772D01*
X115796148Y-122721586D01*
X115796148Y-122878414D01*
X115765552Y-123032228D01*
X115705537Y-123177117D01*
X115618408Y-123307515D01*
X115507515Y-123418408D01*
X115377117Y-123505537D01*
X115232228Y-123565552D01*
X115078414Y-123596148D01*
X114921586Y-123596148D01*
X114767772Y-123565552D01*
X114622883Y-123505537D01*
X114492485Y-123418408D01*
X114381592Y-123307515D01*
X114294463Y-123177117D01*
X114234448Y-123032228D01*
X114203852Y-122878414D01*
X114203852Y-122721586D01*
X114234448Y-122567772D01*
X114294463Y-122422883D01*
X114381592Y-122292485D01*
X114492485Y-122181592D01*
X114622883Y-122094463D01*
X114767772Y-122034448D01*
X114921586Y-122003852D01*
X115078414Y-122003852D01*
X115232228Y-122034448D01*
G37*
G36*
X103945634Y-121865306D02*
G01*
X103961855Y-121876145D01*
X103972694Y-121892366D01*
X103976500Y-121911500D01*
X103976500Y-123288500D01*
X103972694Y-123307634D01*
X103961855Y-123323855D01*
X103945634Y-123334694D01*
X103926500Y-123338500D01*
X102793500Y-123338500D01*
X102774366Y-123334694D01*
X102758145Y-123323855D01*
X102747306Y-123307634D01*
X102743500Y-123288500D01*
X102743500Y-121911500D01*
X102747306Y-121892366D01*
X102758145Y-121876145D01*
X102774366Y-121865306D01*
X102793500Y-121861500D01*
X103926500Y-121861500D01*
X103945634Y-121865306D01*
G37*
G36*
X105945634Y-121865306D02*
G01*
X105961855Y-121876145D01*
X105972694Y-121892366D01*
X105976500Y-121911500D01*
X105976500Y-123288500D01*
X105972694Y-123307634D01*
X105961855Y-123323855D01*
X105945634Y-123334694D01*
X105926500Y-123338500D01*
X104793500Y-123338500D01*
X104774366Y-123334694D01*
X104758145Y-123323855D01*
X104747306Y-123307634D01*
X104743500Y-123288500D01*
X104743500Y-121911500D01*
X104747306Y-121892366D01*
X104758145Y-121876145D01*
X104774366Y-121865306D01*
X104793500Y-121861500D01*
X105926500Y-121861500D01*
X105945634Y-121865306D01*
G37*
G36*
X107072208Y-122084254D02*
G01*
X107173943Y-122142991D01*
X107257009Y-122226057D01*
X107315746Y-122327792D01*
X107346150Y-122441263D01*
X107346150Y-122558737D01*
X107315746Y-122672208D01*
X107257009Y-122773943D01*
X107173943Y-122857009D01*
X107072208Y-122915746D01*
X106958737Y-122946150D01*
X106841263Y-122946150D01*
X106727792Y-122915746D01*
X106626057Y-122857009D01*
X106542991Y-122773943D01*
X106484254Y-122672208D01*
X106453850Y-122558737D01*
X106453850Y-122441263D01*
X106484254Y-122327792D01*
X106542991Y-122226057D01*
X106626057Y-122142991D01*
X106727792Y-122084254D01*
X106841263Y-122053850D01*
X106958737Y-122053850D01*
X107072208Y-122084254D01*
G37*
G36*
X100059134Y-122053806D02*
G01*
X100075355Y-122064645D01*
X100086194Y-122080866D01*
X100090000Y-122100000D01*
X100090000Y-122860000D01*
X100086194Y-122879134D01*
X100075355Y-122895355D01*
X100059134Y-122906194D01*
X100040000Y-122910000D01*
X98440000Y-122910000D01*
X98420866Y-122906194D01*
X98404645Y-122895355D01*
X98393806Y-122879134D01*
X98390000Y-122860000D01*
X98390000Y-122100000D01*
X98393806Y-122080866D01*
X98404645Y-122064645D01*
X98420866Y-122053806D01*
X98440000Y-122050000D01*
X100040000Y-122050000D01*
X100059134Y-122053806D01*
G37*
G36*
X122872208Y-120884254D02*
G01*
X122973943Y-120942991D01*
X123057009Y-121026057D01*
X123115746Y-121127792D01*
X123146150Y-121241263D01*
X123146150Y-121358737D01*
X123115746Y-121472208D01*
X123057009Y-121573943D01*
X122973943Y-121657009D01*
X122872208Y-121715746D01*
X122758737Y-121746150D01*
X122641263Y-121746150D01*
X122527792Y-121715746D01*
X122426057Y-121657009D01*
X122342991Y-121573943D01*
X122284254Y-121472208D01*
X122253850Y-121358737D01*
X122253850Y-121241263D01*
X122284254Y-121127792D01*
X122342991Y-121026057D01*
X122426057Y-120942991D01*
X122527792Y-120884254D01*
X122641263Y-120853850D01*
X122758737Y-120853850D01*
X122872208Y-120884254D01*
G37*
G36*
X100059134Y-120803806D02*
G01*
X100075355Y-120814645D01*
X100086194Y-120830866D01*
X100090000Y-120850000D01*
X100090000Y-121650000D01*
X100086194Y-121669134D01*
X100075355Y-121685355D01*
X100059134Y-121696194D01*
X100040000Y-121700000D01*
X98440000Y-121700000D01*
X98420866Y-121696194D01*
X98404645Y-121685355D01*
X98393806Y-121669134D01*
X98390000Y-121650000D01*
X98390000Y-120850000D01*
X98393806Y-120830866D01*
X98404645Y-120814645D01*
X98420866Y-120803806D01*
X98440000Y-120800000D01*
X100040000Y-120800000D01*
X100059134Y-120803806D01*
G37*
G36*
X105472208Y-120584254D02*
G01*
X105573943Y-120642991D01*
X105657009Y-120726057D01*
X105715746Y-120827792D01*
X105746150Y-120941263D01*
X105746150Y-121058737D01*
X105715746Y-121172208D01*
X105657009Y-121273943D01*
X105573943Y-121357009D01*
X105472208Y-121415746D01*
X105358737Y-121446150D01*
X105241263Y-121446150D01*
X105127792Y-121415746D01*
X105026057Y-121357009D01*
X104942991Y-121273943D01*
X104884254Y-121172208D01*
X104853850Y-121058737D01*
X104853850Y-120941263D01*
X104884254Y-120827792D01*
X104942991Y-120726057D01*
X105026057Y-120642991D01*
X105127792Y-120584254D01*
X105241263Y-120553850D01*
X105358737Y-120553850D01*
X105472208Y-120584254D01*
G37*
G36*
X110318685Y-119957969D02*
G01*
X110327358Y-119961798D01*
X110334925Y-119962901D01*
X110382223Y-119986023D01*
X110419541Y-120002501D01*
X110422996Y-120005956D01*
X110423920Y-120006408D01*
X110493591Y-120076079D01*
X110494042Y-120077002D01*
X110497499Y-120080459D01*
X110513978Y-120117782D01*
X110537098Y-120165073D01*
X110538200Y-120172639D01*
X110542031Y-120181315D01*
X110550000Y-120250000D01*
X110550000Y-120950000D01*
X110542031Y-121018685D01*
X110538199Y-121027361D01*
X110537098Y-121034925D01*
X110513985Y-121082202D01*
X110497499Y-121119541D01*
X110494041Y-121122998D01*
X110493591Y-121123920D01*
X110423920Y-121193591D01*
X110422998Y-121194041D01*
X110419541Y-121197499D01*
X110382207Y-121213983D01*
X110334926Y-121237098D01*
X110327361Y-121238200D01*
X110318685Y-121242031D01*
X110250000Y-121250000D01*
X109350000Y-121250000D01*
X109281315Y-121242031D01*
X109272638Y-121238200D01*
X109265074Y-121237098D01*
X109217787Y-121213981D01*
X109180459Y-121197499D01*
X109177002Y-121194042D01*
X109176079Y-121193591D01*
X109106408Y-121123920D01*
X109105956Y-121122996D01*
X109102501Y-121119541D01*
X109086025Y-121082228D01*
X109062901Y-121034926D01*
X109061798Y-121027357D01*
X109057969Y-121018685D01*
X109050000Y-120950000D01*
X109050000Y-120250000D01*
X109057969Y-120181315D01*
X109061798Y-120172642D01*
X109062901Y-120165074D01*
X109086028Y-120117766D01*
X109102501Y-120080459D01*
X109105955Y-120077004D01*
X109106408Y-120076079D01*
X109176079Y-120006408D01*
X109177004Y-120005955D01*
X109180459Y-120002501D01*
X109217761Y-119986030D01*
X109265073Y-119962901D01*
X109272642Y-119961798D01*
X109281315Y-119957969D01*
X109350000Y-119950000D01*
X110250000Y-119950000D01*
X110318685Y-119957969D01*
G37*
G36*
X108072208Y-120384254D02*
G01*
X108173943Y-120442991D01*
X108257009Y-120526057D01*
X108315746Y-120627792D01*
X108346150Y-120741263D01*
X108346150Y-120858737D01*
X108315746Y-120972208D01*
X108257009Y-121073943D01*
X108173943Y-121157009D01*
X108072208Y-121215746D01*
X107958737Y-121246150D01*
X107841263Y-121246150D01*
X107727792Y-121215746D01*
X107626057Y-121157009D01*
X107542991Y-121073943D01*
X107484254Y-120972208D01*
X107453850Y-120858737D01*
X107453850Y-120741263D01*
X107484254Y-120627792D01*
X107542991Y-120526057D01*
X107626057Y-120442991D01*
X107727792Y-120384254D01*
X107841263Y-120353850D01*
X107958737Y-120353850D01*
X108072208Y-120384254D01*
G37*
G36*
X106919134Y-120153806D02*
G01*
X106935355Y-120164645D01*
X106946194Y-120180866D01*
X106950000Y-120200000D01*
X106950000Y-121000000D01*
X106946194Y-121019134D01*
X106935355Y-121035355D01*
X106919134Y-121046194D01*
X106900000Y-121050000D01*
X106100000Y-121050000D01*
X106080866Y-121046194D01*
X106064645Y-121035355D01*
X106053806Y-121019134D01*
X106050000Y-121000000D01*
X106050000Y-120200000D01*
X106053806Y-120180866D01*
X106064645Y-120164645D01*
X106080866Y-120153806D01*
X106100000Y-120150000D01*
X106900000Y-120150000D01*
X106919134Y-120153806D01*
G37*
G36*
X95253334Y-118630080D02*
G01*
X95263408Y-118630080D01*
X95302771Y-118637909D01*
X95406245Y-118654298D01*
X95439529Y-118665112D01*
X95466250Y-118670428D01*
X95503959Y-118686047D01*
X95563676Y-118705451D01*
X95619617Y-118733954D01*
X95657324Y-118749573D01*
X95679975Y-118764708D01*
X95711151Y-118780593D01*
X95795895Y-118842163D01*
X95829285Y-118864474D01*
X95836411Y-118871600D01*
X95845064Y-118877887D01*
X95962112Y-118994935D01*
X95968398Y-119003587D01*
X95975526Y-119010715D01*
X95997839Y-119044109D01*
X96059406Y-119128848D01*
X96075289Y-119160021D01*
X96090427Y-119182676D01*
X96106047Y-119220387D01*
X96134548Y-119276323D01*
X96153949Y-119336032D01*
X96169572Y-119373750D01*
X96174888Y-119400475D01*
X96185701Y-119433754D01*
X96202088Y-119537222D01*
X96209920Y-119576592D01*
X96209920Y-119586665D01*
X96211594Y-119597235D01*
X96211594Y-119762764D01*
X96209920Y-119773333D01*
X96209920Y-119783408D01*
X96202088Y-119822780D01*
X96185701Y-119926245D01*
X96174888Y-119959521D01*
X96169572Y-119986250D01*
X96153947Y-120023970D01*
X96134548Y-120083676D01*
X96106049Y-120139607D01*
X96090427Y-120177324D01*
X96075287Y-120199982D01*
X96059406Y-120231151D01*
X95997847Y-120315877D01*
X95975526Y-120349285D01*
X95968395Y-120356415D01*
X95962112Y-120365064D01*
X95845064Y-120482112D01*
X95836415Y-120488395D01*
X95829285Y-120495526D01*
X95795877Y-120517847D01*
X95711151Y-120579406D01*
X95679982Y-120595287D01*
X95657324Y-120610427D01*
X95619607Y-120626049D01*
X95563676Y-120654548D01*
X95503970Y-120673947D01*
X95466250Y-120689572D01*
X95439521Y-120694888D01*
X95406245Y-120705701D01*
X95302780Y-120722088D01*
X95263408Y-120729920D01*
X95253333Y-120729920D01*
X95242764Y-120731594D01*
X95077236Y-120731594D01*
X95066667Y-120729920D01*
X95056592Y-120729920D01*
X95017220Y-120722088D01*
X94913754Y-120705701D01*
X94880475Y-120694888D01*
X94853750Y-120689572D01*
X94816032Y-120673949D01*
X94756323Y-120654548D01*
X94700387Y-120626047D01*
X94662676Y-120610427D01*
X94640021Y-120595289D01*
X94608848Y-120579406D01*
X94524109Y-120517839D01*
X94490715Y-120495526D01*
X94483587Y-120488398D01*
X94474935Y-120482112D01*
X94357887Y-120365064D01*
X94351600Y-120356411D01*
X94344474Y-120349285D01*
X94322163Y-120315895D01*
X94260593Y-120231151D01*
X94244708Y-120199975D01*
X94229573Y-120177324D01*
X94213954Y-120139617D01*
X94185451Y-120083676D01*
X94166047Y-120023959D01*
X94150428Y-119986250D01*
X94145112Y-119959529D01*
X94134298Y-119926245D01*
X94117909Y-119822771D01*
X94110080Y-119783408D01*
X94110080Y-119773333D01*
X94108406Y-119762764D01*
X94108406Y-119597235D01*
X94110080Y-119586665D01*
X94110080Y-119576592D01*
X94117909Y-119537232D01*
X94134298Y-119433754D01*
X94145113Y-119400467D01*
X94150428Y-119373750D01*
X94166046Y-119336043D01*
X94185451Y-119276323D01*
X94213956Y-119220376D01*
X94229573Y-119182676D01*
X94244706Y-119160027D01*
X94260593Y-119128848D01*
X94322171Y-119044092D01*
X94344474Y-119010715D01*
X94351598Y-119003590D01*
X94357887Y-118994935D01*
X94474935Y-118877887D01*
X94483590Y-118871598D01*
X94490715Y-118864474D01*
X94524092Y-118842171D01*
X94608848Y-118780593D01*
X94640027Y-118764706D01*
X94662676Y-118749573D01*
X94700376Y-118733956D01*
X94756323Y-118705451D01*
X94816043Y-118686046D01*
X94853750Y-118670428D01*
X94880467Y-118665113D01*
X94913754Y-118654298D01*
X95017229Y-118637909D01*
X95056592Y-118630080D01*
X95066666Y-118630080D01*
X95077236Y-118628406D01*
X95242764Y-118628406D01*
X95253334Y-118630080D01*
G37*
G36*
X99235770Y-118770907D02*
G01*
X99407827Y-118842175D01*
X99562674Y-118945640D01*
X99694360Y-119077326D01*
X99797825Y-119232173D01*
X99869093Y-119404230D01*
X99905425Y-119586884D01*
X99905425Y-119773116D01*
X99869093Y-119955770D01*
X99797825Y-120127827D01*
X99694360Y-120282674D01*
X99562674Y-120414360D01*
X99407827Y-120517825D01*
X99235770Y-120589093D01*
X99053116Y-120625425D01*
X98866884Y-120625425D01*
X98684230Y-120589093D01*
X98512173Y-120517825D01*
X98357326Y-120414360D01*
X98225640Y-120282674D01*
X98122175Y-120127827D01*
X98050907Y-119955770D01*
X98014575Y-119773116D01*
X98014575Y-119586884D01*
X98050907Y-119404230D01*
X98122175Y-119232173D01*
X98225640Y-119077326D01*
X98357326Y-118945640D01*
X98512173Y-118842175D01*
X98684230Y-118770907D01*
X98866884Y-118734575D01*
X99053116Y-118734575D01*
X99235770Y-118770907D01*
G37*
G36*
X113872208Y-119684254D02*
G01*
X113973943Y-119742991D01*
X114057009Y-119826057D01*
X114115746Y-119927792D01*
X114146150Y-120041263D01*
X114146150Y-120158737D01*
X114115746Y-120272208D01*
X114057009Y-120373943D01*
X113973943Y-120457009D01*
X113872208Y-120515746D01*
X113758737Y-120546150D01*
X113641263Y-120546150D01*
X113527792Y-120515746D01*
X113426057Y-120457009D01*
X113342991Y-120373943D01*
X113284254Y-120272208D01*
X113253850Y-120158737D01*
X113253850Y-120041263D01*
X113284254Y-119927792D01*
X113342991Y-119826057D01*
X113426057Y-119742991D01*
X113527792Y-119684254D01*
X113641263Y-119653850D01*
X113758737Y-119653850D01*
X113872208Y-119684254D01*
G37*
G36*
X123294134Y-118848806D02*
G01*
X123310355Y-118859645D01*
X123321194Y-118875866D01*
X123325000Y-118895000D01*
X123325000Y-120305000D01*
X123321194Y-120324134D01*
X123310355Y-120340355D01*
X123294134Y-120351194D01*
X123275000Y-120355000D01*
X121925000Y-120355000D01*
X121905866Y-120351194D01*
X121889645Y-120340355D01*
X121878806Y-120324134D01*
X121875000Y-120305000D01*
X121875000Y-118895000D01*
X121878806Y-118875866D01*
X121889645Y-118859645D01*
X121905866Y-118848806D01*
X121925000Y-118845000D01*
X123275000Y-118845000D01*
X123294134Y-118848806D01*
G37*
G36*
X121072208Y-119484254D02*
G01*
X121173943Y-119542991D01*
X121257009Y-119626057D01*
X121315746Y-119727792D01*
X121346150Y-119841263D01*
X121346150Y-119958737D01*
X121315746Y-120072208D01*
X121257009Y-120173943D01*
X121173943Y-120257009D01*
X121072208Y-120315746D01*
X120958737Y-120346150D01*
X120841263Y-120346150D01*
X120727792Y-120315746D01*
X120626057Y-120257009D01*
X120542991Y-120173943D01*
X120484254Y-120072208D01*
X120453850Y-119958737D01*
X120453850Y-119841263D01*
X120484254Y-119727792D01*
X120542991Y-119626057D01*
X120626057Y-119542991D01*
X120727792Y-119484254D01*
X120841263Y-119453850D01*
X120958737Y-119453850D01*
X121072208Y-119484254D01*
G37*
G36*
X117219134Y-119153806D02*
G01*
X117235355Y-119164645D01*
X117246194Y-119180866D01*
X117250000Y-119200000D01*
X117250000Y-119800000D01*
X117246194Y-119819134D01*
X117235355Y-119835355D01*
X117219134Y-119846194D01*
X117200000Y-119850000D01*
X116200000Y-119850000D01*
X116180866Y-119846194D01*
X116164645Y-119835355D01*
X116153806Y-119819134D01*
X116150000Y-119800000D01*
X116150000Y-119200000D01*
X116153806Y-119180866D01*
X116164645Y-119164645D01*
X116180866Y-119153806D01*
X116200000Y-119150000D01*
X117200000Y-119150000D01*
X117219134Y-119153806D01*
G37*
G36*
X119819134Y-119153806D02*
G01*
X119835355Y-119164645D01*
X119846194Y-119180866D01*
X119850000Y-119200000D01*
X119850000Y-119800000D01*
X119846194Y-119819134D01*
X119835355Y-119835355D01*
X119819134Y-119846194D01*
X119800000Y-119850000D01*
X118800000Y-119850000D01*
X118780866Y-119846194D01*
X118764645Y-119835355D01*
X118753806Y-119819134D01*
X118750000Y-119800000D01*
X118750000Y-119200000D01*
X118753806Y-119180866D01*
X118764645Y-119164645D01*
X118780866Y-119153806D01*
X118800000Y-119150000D01*
X119800000Y-119150000D01*
X119819134Y-119153806D01*
G37*
G36*
X114294134Y-117748806D02*
G01*
X114310355Y-117759645D01*
X114321194Y-117775866D01*
X114325000Y-117795000D01*
X114325000Y-119205000D01*
X114321194Y-119224134D01*
X114310355Y-119240355D01*
X114294134Y-119251194D01*
X114275000Y-119255000D01*
X112925000Y-119255000D01*
X112905866Y-119251194D01*
X112889645Y-119240355D01*
X112878806Y-119224134D01*
X112875000Y-119205000D01*
X112875000Y-117795000D01*
X112878806Y-117775866D01*
X112889645Y-117759645D01*
X112905866Y-117748806D01*
X112925000Y-117745000D01*
X114275000Y-117745000D01*
X114294134Y-117748806D01*
G37*
G36*
X110318685Y-117957969D02*
G01*
X110327358Y-117961798D01*
X110334925Y-117962901D01*
X110382223Y-117986023D01*
X110419541Y-118002501D01*
X110422996Y-118005956D01*
X110423920Y-118006408D01*
X110493591Y-118076079D01*
X110494042Y-118077002D01*
X110497499Y-118080459D01*
X110513978Y-118117782D01*
X110537098Y-118165073D01*
X110538200Y-118172639D01*
X110542031Y-118181315D01*
X110550000Y-118250000D01*
X110550000Y-118950000D01*
X110542031Y-119018685D01*
X110538199Y-119027361D01*
X110537098Y-119034925D01*
X110513985Y-119082202D01*
X110497499Y-119119541D01*
X110494041Y-119122998D01*
X110493591Y-119123920D01*
X110423920Y-119193591D01*
X110422998Y-119194041D01*
X110419541Y-119197499D01*
X110382207Y-119213983D01*
X110334926Y-119237098D01*
X110327361Y-119238200D01*
X110318685Y-119242031D01*
X110250000Y-119250000D01*
X109350000Y-119250000D01*
X109281315Y-119242031D01*
X109272638Y-119238200D01*
X109265074Y-119237098D01*
X109217787Y-119213981D01*
X109180459Y-119197499D01*
X109177002Y-119194042D01*
X109176079Y-119193591D01*
X109106408Y-119123920D01*
X109105956Y-119122996D01*
X109102501Y-119119541D01*
X109086025Y-119082228D01*
X109062901Y-119034926D01*
X109061798Y-119027357D01*
X109057969Y-119018685D01*
X109050000Y-118950000D01*
X109050000Y-118250000D01*
X109057969Y-118181315D01*
X109061798Y-118172642D01*
X109062901Y-118165074D01*
X109086028Y-118117766D01*
X109102501Y-118080459D01*
X109105955Y-118077004D01*
X109106408Y-118076079D01*
X109176079Y-118006408D01*
X109177004Y-118005955D01*
X109180459Y-118002501D01*
X109217761Y-117986030D01*
X109265073Y-117962901D01*
X109272642Y-117961798D01*
X109281315Y-117957969D01*
X109350000Y-117950000D01*
X110250000Y-117950000D01*
X110318685Y-117957969D01*
G37*
G36*
X112172208Y-118384254D02*
G01*
X112273943Y-118442991D01*
X112357009Y-118526057D01*
X112415746Y-118627792D01*
X112446150Y-118741263D01*
X112446150Y-118858737D01*
X112415746Y-118972208D01*
X112357009Y-119073943D01*
X112273943Y-119157009D01*
X112172208Y-119215746D01*
X112058737Y-119246150D01*
X111941263Y-119246150D01*
X111827792Y-119215746D01*
X111726057Y-119157009D01*
X111642991Y-119073943D01*
X111584254Y-118972208D01*
X111553850Y-118858737D01*
X111553850Y-118741263D01*
X111584254Y-118627792D01*
X111642991Y-118526057D01*
X111726057Y-118442991D01*
X111827792Y-118384254D01*
X111941263Y-118353850D01*
X112058737Y-118353850D01*
X112172208Y-118384254D01*
G37*
G36*
X117219134Y-118203806D02*
G01*
X117235355Y-118214645D01*
X117246194Y-118230866D01*
X117250000Y-118250000D01*
X117250000Y-118850000D01*
X117246194Y-118869134D01*
X117235355Y-118885355D01*
X117219134Y-118896194D01*
X117200000Y-118900000D01*
X116200000Y-118900000D01*
X116180866Y-118896194D01*
X116164645Y-118885355D01*
X116153806Y-118869134D01*
X116150000Y-118850000D01*
X116150000Y-118250000D01*
X116153806Y-118230866D01*
X116164645Y-118214645D01*
X116180866Y-118203806D01*
X116200000Y-118200000D01*
X117200000Y-118200000D01*
X117219134Y-118203806D01*
G37*
G36*
X106919134Y-117753806D02*
G01*
X106935355Y-117764645D01*
X106946194Y-117780866D01*
X106950000Y-117800000D01*
X106950000Y-118600000D01*
X106946194Y-118619134D01*
X106935355Y-118635355D01*
X106919134Y-118646194D01*
X106900000Y-118650000D01*
X106100000Y-118650000D01*
X106080866Y-118646194D01*
X106064645Y-118635355D01*
X106053806Y-118619134D01*
X106050000Y-118600000D01*
X106050000Y-117800000D01*
X106053806Y-117780866D01*
X106064645Y-117764645D01*
X106080866Y-117753806D01*
X106100000Y-117750000D01*
X106900000Y-117750000D01*
X106919134Y-117753806D01*
G37*
G36*
X123294134Y-116848806D02*
G01*
X123310355Y-116859645D01*
X123321194Y-116875866D01*
X123325000Y-116895000D01*
X123325000Y-118305000D01*
X123321194Y-118324134D01*
X123310355Y-118340355D01*
X123294134Y-118351194D01*
X123275000Y-118355000D01*
X121925000Y-118355000D01*
X121905866Y-118351194D01*
X121889645Y-118340355D01*
X121878806Y-118324134D01*
X121875000Y-118305000D01*
X121875000Y-116895000D01*
X121878806Y-116875866D01*
X121889645Y-116859645D01*
X121905866Y-116848806D01*
X121925000Y-116845000D01*
X123275000Y-116845000D01*
X123294134Y-116848806D01*
G37*
G36*
X117219134Y-117253806D02*
G01*
X117235355Y-117264645D01*
X117246194Y-117280866D01*
X117250000Y-117300000D01*
X117250000Y-117900000D01*
X117246194Y-117919134D01*
X117235355Y-117935355D01*
X117219134Y-117946194D01*
X117200000Y-117950000D01*
X116200000Y-117950000D01*
X116180866Y-117946194D01*
X116164645Y-117935355D01*
X116153806Y-117919134D01*
X116150000Y-117900000D01*
X116150000Y-117300000D01*
X116153806Y-117280866D01*
X116164645Y-117264645D01*
X116180866Y-117253806D01*
X116200000Y-117250000D01*
X117200000Y-117250000D01*
X117219134Y-117253806D01*
G37*
G36*
X119819134Y-117253806D02*
G01*
X119835355Y-117264645D01*
X119846194Y-117280866D01*
X119850000Y-117300000D01*
X119850000Y-117900000D01*
X119846194Y-117919134D01*
X119835355Y-117935355D01*
X119819134Y-117946194D01*
X119800000Y-117950000D01*
X118800000Y-117950000D01*
X118780866Y-117946194D01*
X118764645Y-117935355D01*
X118753806Y-117919134D01*
X118750000Y-117900000D01*
X118750000Y-117300000D01*
X118753806Y-117280866D01*
X118764645Y-117264645D01*
X118780866Y-117253806D01*
X118800000Y-117250000D01*
X119800000Y-117250000D01*
X119819134Y-117253806D01*
G37*
G36*
X114294134Y-115748806D02*
G01*
X114310355Y-115759645D01*
X114321194Y-115775866D01*
X114325000Y-115795000D01*
X114325000Y-117205000D01*
X114321194Y-117224134D01*
X114310355Y-117240355D01*
X114294134Y-117251194D01*
X114275000Y-117255000D01*
X112925000Y-117255000D01*
X112905866Y-117251194D01*
X112889645Y-117240355D01*
X112878806Y-117224134D01*
X112875000Y-117205000D01*
X112875000Y-115795000D01*
X112878806Y-115775866D01*
X112889645Y-115759645D01*
X112905866Y-115748806D01*
X112925000Y-115745000D01*
X114275000Y-115745000D01*
X114294134Y-115748806D01*
G37*
G36*
X106932228Y-114834448D02*
G01*
X107077117Y-114894463D01*
X107207515Y-114981592D01*
X107318408Y-115092485D01*
X107405537Y-115222883D01*
X107465552Y-115367772D01*
X107496148Y-115521586D01*
X107496148Y-115678414D01*
X107465552Y-115832228D01*
X107405537Y-115977117D01*
X107318408Y-116107515D01*
X107207515Y-116218408D01*
X107077117Y-116305537D01*
X106932228Y-116365552D01*
X106778414Y-116396148D01*
X106621586Y-116396148D01*
X106467772Y-116365552D01*
X106322883Y-116305537D01*
X106192485Y-116218408D01*
X106081592Y-116107515D01*
X105994463Y-115977117D01*
X105934448Y-115832228D01*
X105903852Y-115678414D01*
X105903852Y-115521586D01*
X105934448Y-115367772D01*
X105994463Y-115222883D01*
X106081592Y-115092485D01*
X106192485Y-114981592D01*
X106322883Y-114894463D01*
X106467772Y-114834448D01*
X106621586Y-114803852D01*
X106778414Y-114803852D01*
X106932228Y-114834448D01*
G37*
G36*
X96226824Y-112238682D02*
G01*
X96435757Y-112306569D01*
X96631498Y-112406304D01*
X96809227Y-112535432D01*
X96964568Y-112690773D01*
X97093696Y-112868502D01*
X97193431Y-113064243D01*
X97261318Y-113273176D01*
X97295684Y-113490157D01*
X97295684Y-113709843D01*
X97261318Y-113926824D01*
X97193431Y-114135757D01*
X97093696Y-114331498D01*
X96964568Y-114509227D01*
X96809227Y-114664568D01*
X96631498Y-114793696D01*
X96435757Y-114893431D01*
X96226824Y-114961318D01*
X96009843Y-114995684D01*
X95790157Y-114995684D01*
X95573176Y-114961318D01*
X95364243Y-114893431D01*
X95168502Y-114793696D01*
X94990773Y-114664568D01*
X94835432Y-114509227D01*
X94706304Y-114331498D01*
X94606569Y-114135757D01*
X94538682Y-113926824D01*
X94504316Y-113709843D01*
X94504316Y-113490157D01*
X94538682Y-113273176D01*
X94606569Y-113064243D01*
X94706304Y-112868502D01*
X94835432Y-112690773D01*
X94990773Y-112535432D01*
X95168502Y-112406304D01*
X95364243Y-112306569D01*
X95573176Y-112238682D01*
X95790157Y-112204316D01*
X96009843Y-112204316D01*
X96226824Y-112238682D01*
G37*
G36*
X158026824Y-112238682D02*
G01*
X158235757Y-112306569D01*
X158431498Y-112406304D01*
X158609227Y-112535432D01*
X158764568Y-112690773D01*
X158893696Y-112868502D01*
X158993431Y-113064243D01*
X159061318Y-113273176D01*
X159095684Y-113490157D01*
X159095684Y-113709843D01*
X159061318Y-113926824D01*
X158993431Y-114135757D01*
X158893696Y-114331498D01*
X158764568Y-114509227D01*
X158609227Y-114664568D01*
X158431498Y-114793696D01*
X158235757Y-114893431D01*
X158026824Y-114961318D01*
X157809843Y-114995684D01*
X157590157Y-114995684D01*
X157373176Y-114961318D01*
X157164243Y-114893431D01*
X156968502Y-114793696D01*
X156790773Y-114664568D01*
X156635432Y-114509227D01*
X156506304Y-114331498D01*
X156406569Y-114135757D01*
X156338682Y-113926824D01*
X156304316Y-113709843D01*
X156304316Y-113490157D01*
X156338682Y-113273176D01*
X156406569Y-113064243D01*
X156506304Y-112868502D01*
X156635432Y-112690773D01*
X156790773Y-112535432D01*
X156968502Y-112406304D01*
X157164243Y-112306569D01*
X157373176Y-112238682D01*
X157590157Y-112204316D01*
X157809843Y-112204316D01*
X158026824Y-112238682D01*
G37*
G36*
X153469134Y-112603806D02*
G01*
X153485355Y-112614645D01*
X153496194Y-112630866D01*
X153500000Y-112650000D01*
X153500000Y-114350000D01*
X153496194Y-114369134D01*
X153485355Y-114385355D01*
X153469134Y-114396194D01*
X153450000Y-114400000D01*
X151750000Y-114400000D01*
X151730866Y-114396194D01*
X151714645Y-114385355D01*
X151703806Y-114369134D01*
X151700000Y-114350000D01*
X151700000Y-112650000D01*
X151703806Y-112630866D01*
X151714645Y-112614645D01*
X151730866Y-112603806D01*
X151750000Y-112600000D01*
X153450000Y-112600000D01*
X153469134Y-112603806D01*
G37*
G36*
X130001256Y-112638754D02*
G01*
X130164257Y-112706271D01*
X130310954Y-112804291D01*
X130435709Y-112929046D01*
X130533729Y-113075743D01*
X130601246Y-113238744D01*
X130635666Y-113411785D01*
X130635666Y-113588215D01*
X130601246Y-113761256D01*
X130533729Y-113924257D01*
X130435709Y-114070954D01*
X130310954Y-114195709D01*
X130164257Y-114293729D01*
X130001256Y-114361246D01*
X129828215Y-114395666D01*
X129651785Y-114395666D01*
X129478744Y-114361246D01*
X129315743Y-114293729D01*
X129169046Y-114195709D01*
X129044291Y-114070954D01*
X128946271Y-113924257D01*
X128878754Y-113761256D01*
X128844334Y-113588215D01*
X128844334Y-113411785D01*
X128878754Y-113238744D01*
X128946271Y-113075743D01*
X129044291Y-112929046D01*
X129169046Y-112804291D01*
X129315743Y-112706271D01*
X129478744Y-112638754D01*
X129651785Y-112604334D01*
X129828215Y-112604334D01*
X130001256Y-112638754D01*
G37*
G36*
X132541256Y-112638754D02*
G01*
X132704257Y-112706271D01*
X132850954Y-112804291D01*
X132975709Y-112929046D01*
X133073729Y-113075743D01*
X133141246Y-113238744D01*
X133175666Y-113411785D01*
X133175666Y-113588215D01*
X133141246Y-113761256D01*
X133073729Y-113924257D01*
X132975709Y-114070954D01*
X132850954Y-114195709D01*
X132704257Y-114293729D01*
X132541256Y-114361246D01*
X132368215Y-114395666D01*
X132191785Y-114395666D01*
X132018744Y-114361246D01*
X131855743Y-114293729D01*
X131709046Y-114195709D01*
X131584291Y-114070954D01*
X131486271Y-113924257D01*
X131418754Y-113761256D01*
X131384334Y-113588215D01*
X131384334Y-113411785D01*
X131418754Y-113238744D01*
X131486271Y-113075743D01*
X131584291Y-112929046D01*
X131709046Y-112804291D01*
X131855743Y-112706271D01*
X132018744Y-112638754D01*
X132191785Y-112604334D01*
X132368215Y-112604334D01*
X132541256Y-112638754D01*
G37*
G36*
X135081256Y-112638754D02*
G01*
X135244257Y-112706271D01*
X135390954Y-112804291D01*
X135515709Y-112929046D01*
X135613729Y-113075743D01*
X135681246Y-113238744D01*
X135715666Y-113411785D01*
X135715666Y-113588215D01*
X135681246Y-113761256D01*
X135613729Y-113924257D01*
X135515709Y-114070954D01*
X135390954Y-114195709D01*
X135244257Y-114293729D01*
X135081256Y-114361246D01*
X134908215Y-114395666D01*
X134731785Y-114395666D01*
X134558744Y-114361246D01*
X134395743Y-114293729D01*
X134249046Y-114195709D01*
X134124291Y-114070954D01*
X134026271Y-113924257D01*
X133958754Y-113761256D01*
X133924334Y-113588215D01*
X133924334Y-113411785D01*
X133958754Y-113238744D01*
X134026271Y-113075743D01*
X134124291Y-112929046D01*
X134249046Y-112804291D01*
X134395743Y-112706271D01*
X134558744Y-112638754D01*
X134731785Y-112604334D01*
X134908215Y-112604334D01*
X135081256Y-112638754D01*
G37*
G36*
X137621256Y-112638754D02*
G01*
X137784257Y-112706271D01*
X137930954Y-112804291D01*
X138055709Y-112929046D01*
X138153729Y-113075743D01*
X138221246Y-113238744D01*
X138255666Y-113411785D01*
X138255666Y-113588215D01*
X138221246Y-113761256D01*
X138153729Y-113924257D01*
X138055709Y-114070954D01*
X137930954Y-114195709D01*
X137784257Y-114293729D01*
X137621256Y-114361246D01*
X137448215Y-114395666D01*
X137271785Y-114395666D01*
X137098744Y-114361246D01*
X136935743Y-114293729D01*
X136789046Y-114195709D01*
X136664291Y-114070954D01*
X136566271Y-113924257D01*
X136498754Y-113761256D01*
X136464334Y-113588215D01*
X136464334Y-113411785D01*
X136498754Y-113238744D01*
X136566271Y-113075743D01*
X136664291Y-112929046D01*
X136789046Y-112804291D01*
X136935743Y-112706271D01*
X137098744Y-112638754D01*
X137271785Y-112604334D01*
X137448215Y-112604334D01*
X137621256Y-112638754D01*
G37*
G36*
X140161256Y-112638754D02*
G01*
X140324257Y-112706271D01*
X140470954Y-112804291D01*
X140595709Y-112929046D01*
X140693729Y-113075743D01*
X140761246Y-113238744D01*
X140795666Y-113411785D01*
X140795666Y-113588215D01*
X140761246Y-113761256D01*
X140693729Y-113924257D01*
X140595709Y-114070954D01*
X140470954Y-114195709D01*
X140324257Y-114293729D01*
X140161256Y-114361246D01*
X139988215Y-114395666D01*
X139811785Y-114395666D01*
X139638744Y-114361246D01*
X139475743Y-114293729D01*
X139329046Y-114195709D01*
X139204291Y-114070954D01*
X139106271Y-113924257D01*
X139038754Y-113761256D01*
X139004334Y-113588215D01*
X139004334Y-113411785D01*
X139038754Y-113238744D01*
X139106271Y-113075743D01*
X139204291Y-112929046D01*
X139329046Y-112804291D01*
X139475743Y-112706271D01*
X139638744Y-112638754D01*
X139811785Y-112604334D01*
X139988215Y-112604334D01*
X140161256Y-112638754D01*
G37*
G36*
X142701256Y-112638754D02*
G01*
X142864257Y-112706271D01*
X143010954Y-112804291D01*
X143135709Y-112929046D01*
X143233729Y-113075743D01*
X143301246Y-113238744D01*
X143335666Y-113411785D01*
X143335666Y-113588215D01*
X143301246Y-113761256D01*
X143233729Y-113924257D01*
X143135709Y-114070954D01*
X143010954Y-114195709D01*
X142864257Y-114293729D01*
X142701256Y-114361246D01*
X142528215Y-114395666D01*
X142351785Y-114395666D01*
X142178744Y-114361246D01*
X142015743Y-114293729D01*
X141869046Y-114195709D01*
X141744291Y-114070954D01*
X141646271Y-113924257D01*
X141578754Y-113761256D01*
X141544334Y-113588215D01*
X141544334Y-113411785D01*
X141578754Y-113238744D01*
X141646271Y-113075743D01*
X141744291Y-112929046D01*
X141869046Y-112804291D01*
X142015743Y-112706271D01*
X142178744Y-112638754D01*
X142351785Y-112604334D01*
X142528215Y-112604334D01*
X142701256Y-112638754D01*
G37*
G36*
X145241256Y-112638754D02*
G01*
X145404257Y-112706271D01*
X145550954Y-112804291D01*
X145675709Y-112929046D01*
X145773729Y-113075743D01*
X145841246Y-113238744D01*
X145875666Y-113411785D01*
X145875666Y-113588215D01*
X145841246Y-113761256D01*
X145773729Y-113924257D01*
X145675709Y-114070954D01*
X145550954Y-114195709D01*
X145404257Y-114293729D01*
X145241256Y-114361246D01*
X145068215Y-114395666D01*
X144891785Y-114395666D01*
X144718744Y-114361246D01*
X144555743Y-114293729D01*
X144409046Y-114195709D01*
X144284291Y-114070954D01*
X144186271Y-113924257D01*
X144118754Y-113761256D01*
X144084334Y-113588215D01*
X144084334Y-113411785D01*
X144118754Y-113238744D01*
X144186271Y-113075743D01*
X144284291Y-112929046D01*
X144409046Y-112804291D01*
X144555743Y-112706271D01*
X144718744Y-112638754D01*
X144891785Y-112604334D01*
X145068215Y-112604334D01*
X145241256Y-112638754D01*
G37*
G36*
X147781256Y-112638754D02*
G01*
X147944257Y-112706271D01*
X148090954Y-112804291D01*
X148215709Y-112929046D01*
X148313729Y-113075743D01*
X148381246Y-113238744D01*
X148415666Y-113411785D01*
X148415666Y-113588215D01*
X148381246Y-113761256D01*
X148313729Y-113924257D01*
X148215709Y-114070954D01*
X148090954Y-114195709D01*
X147944257Y-114293729D01*
X147781256Y-114361246D01*
X147608215Y-114395666D01*
X147431785Y-114395666D01*
X147258744Y-114361246D01*
X147095743Y-114293729D01*
X146949046Y-114195709D01*
X146824291Y-114070954D01*
X146726271Y-113924257D01*
X146658754Y-113761256D01*
X146624334Y-113588215D01*
X146624334Y-113411785D01*
X146658754Y-113238744D01*
X146726271Y-113075743D01*
X146824291Y-112929046D01*
X146949046Y-112804291D01*
X147095743Y-112706271D01*
X147258744Y-112638754D01*
X147431785Y-112604334D01*
X147608215Y-112604334D01*
X147781256Y-112638754D01*
G37*
G36*
X150321256Y-112638754D02*
G01*
X150484257Y-112706271D01*
X150630954Y-112804291D01*
X150755709Y-112929046D01*
X150853729Y-113075743D01*
X150921246Y-113238744D01*
X150955666Y-113411785D01*
X150955666Y-113588215D01*
X150921246Y-113761256D01*
X150853729Y-113924257D01*
X150755709Y-114070954D01*
X150630954Y-114195709D01*
X150484257Y-114293729D01*
X150321256Y-114361246D01*
X150148215Y-114395666D01*
X149971785Y-114395666D01*
X149798744Y-114361246D01*
X149635743Y-114293729D01*
X149489046Y-114195709D01*
X149364291Y-114070954D01*
X149266271Y-113924257D01*
X149198754Y-113761256D01*
X149164334Y-113588215D01*
X149164334Y-113411785D01*
X149198754Y-113238744D01*
X149266271Y-113075743D01*
X149364291Y-112929046D01*
X149489046Y-112804291D01*
X149635743Y-112706271D01*
X149798744Y-112638754D01*
X149971785Y-112604334D01*
X150148215Y-112604334D01*
X150321256Y-112638754D01*
G37*
G36*
X117468685Y-112057969D02*
G01*
X117477358Y-112061798D01*
X117484925Y-112062901D01*
X117532223Y-112086023D01*
X117569541Y-112102501D01*
X117572996Y-112105956D01*
X117573920Y-112106408D01*
X117643591Y-112176079D01*
X117644042Y-112177002D01*
X117647499Y-112180459D01*
X117663978Y-112217782D01*
X117687098Y-112265073D01*
X117688200Y-112272639D01*
X117692031Y-112281315D01*
X117700000Y-112350000D01*
X117700000Y-113650000D01*
X117692031Y-113718685D01*
X117688199Y-113727361D01*
X117687098Y-113734925D01*
X117663985Y-113782202D01*
X117647499Y-113819541D01*
X117644041Y-113822998D01*
X117643591Y-113823920D01*
X117573920Y-113893591D01*
X117572998Y-113894041D01*
X117569541Y-113897499D01*
X117532207Y-113913983D01*
X117484926Y-113937098D01*
X117477361Y-113938200D01*
X117468685Y-113942031D01*
X117400000Y-113950000D01*
X114400000Y-113950000D01*
X114331315Y-113942031D01*
X114322638Y-113938200D01*
X114315074Y-113937098D01*
X114267787Y-113913981D01*
X114230459Y-113897499D01*
X114227002Y-113894042D01*
X114226079Y-113893591D01*
X114156408Y-113823920D01*
X114155956Y-113822996D01*
X114152501Y-113819541D01*
X114136025Y-113782228D01*
X114112901Y-113734926D01*
X114111798Y-113727357D01*
X114107969Y-113718685D01*
X114100000Y-113650000D01*
X114100000Y-112350000D01*
X114107969Y-112281315D01*
X114111798Y-112272642D01*
X114112901Y-112265074D01*
X114136028Y-112217766D01*
X114152501Y-112180459D01*
X114155955Y-112177004D01*
X114156408Y-112176079D01*
X114226079Y-112106408D01*
X114227004Y-112105955D01*
X114230459Y-112102501D01*
X114267761Y-112086030D01*
X114315073Y-112062901D01*
X114322642Y-112061798D01*
X114331315Y-112057969D01*
X114400000Y-112050000D01*
X117400000Y-112050000D01*
X117468685Y-112057969D01*
G37*
G36*
X122468685Y-112057969D02*
G01*
X122477358Y-112061798D01*
X122484925Y-112062901D01*
X122532223Y-112086023D01*
X122569541Y-112102501D01*
X122572996Y-112105956D01*
X122573920Y-112106408D01*
X122643591Y-112176079D01*
X122644042Y-112177002D01*
X122647499Y-112180459D01*
X122663978Y-112217782D01*
X122687098Y-112265073D01*
X122688200Y-112272639D01*
X122692031Y-112281315D01*
X122700000Y-112350000D01*
X122700000Y-113650000D01*
X122692031Y-113718685D01*
X122688199Y-113727361D01*
X122687098Y-113734925D01*
X122663985Y-113782202D01*
X122647499Y-113819541D01*
X122644041Y-113822998D01*
X122643591Y-113823920D01*
X122573920Y-113893591D01*
X122572998Y-113894041D01*
X122569541Y-113897499D01*
X122532207Y-113913983D01*
X122484926Y-113937098D01*
X122477361Y-113938200D01*
X122468685Y-113942031D01*
X122400000Y-113950000D01*
X119400000Y-113950000D01*
X119331315Y-113942031D01*
X119322638Y-113938200D01*
X119315074Y-113937098D01*
X119267787Y-113913981D01*
X119230459Y-113897499D01*
X119227002Y-113894042D01*
X119226079Y-113893591D01*
X119156408Y-113823920D01*
X119155956Y-113822996D01*
X119152501Y-113819541D01*
X119136025Y-113782228D01*
X119112901Y-113734926D01*
X119111798Y-113727357D01*
X119107969Y-113718685D01*
X119100000Y-113650000D01*
X119100000Y-112350000D01*
X119107969Y-112281315D01*
X119111798Y-112272642D01*
X119112901Y-112265074D01*
X119136028Y-112217766D01*
X119152501Y-112180459D01*
X119155955Y-112177004D01*
X119156408Y-112176079D01*
X119226079Y-112106408D01*
X119227004Y-112105955D01*
X119230459Y-112102501D01*
X119267761Y-112086030D01*
X119315073Y-112062901D01*
X119322642Y-112061798D01*
X119331315Y-112057969D01*
X119400000Y-112050000D01*
X122400000Y-112050000D01*
X122468685Y-112057969D01*
G37*
M02*
